<?xml version="1.0" standalone="no"?>
<!DOCTYPE svg PUBLIC "-//W3C//DTD SVG 1.1//EN" "http://www.w3.org/Graphics/SVG/1.1/DTD/svg11.dtd" >
<svg xmlns="http://www.w3.org/2000/svg" xmlns:xlink="http://www.w3.org/1999/xlink" version="1.1">
<metadata>
Created by FontForge 20150318 at Wed Jun  3 20:04:16 2015
 By uniteet7
Copyright (c) 2011 by Brittney Murphy. All rights reserved.
</metadata>
<defs>
<font id="skinny_jeans" horiz-adv-x="596" >
  <font-face 
    font-family="skinny_jeans"
    font-weight="400"
    font-stretch="normal"
    units-per-em="1000"
    panose-1="0 0 0 0 0 0 0 0 0 0"
    ascent="750"
    descent="-250"
    x-height="544"
    cap-height="936"
    bbox="-353 -358.714 1245 1300"
    underline-thickness="50"
    underline-position="-50"
    unicode-range="U+0020-FB02"
  />
<missing-glyph horiz-adv-x="289" 
 />
    <glyph glyph-name=".notdef" horiz-adv-x="289" 
 />
    <glyph glyph-name=".null" horiz-adv-x="0" 
 />
    <glyph glyph-name="nonmarkingreturn" horiz-adv-x="333" 
 />
    <glyph glyph-name="space" unicode=" " horiz-adv-x="289" 
 />
    <glyph glyph-name="exclam" unicode="!" horiz-adv-x="166" 
d="M30 4q22 1 45.5 -1t45.5 0q4 0 6.5 3t3.5 13t0.5 29t-2.5 52q-2 6 -18 9.5t-35 4.5t-35 0t-17 -3q-1 -23 -3 -46t-3 -46q0 -5 4 -9.5t8 -5.5zM43 93q16 -1 33 -2.5t33 -2.5l3 -67q-17 -2 -39 0t-39 0q1 17 4.5 36t4.5 36zM36 861q22 -1 45.5 1t45.5 0q8 -1 10 -6t-2 -10
l-14 -675q-2 -5 -14 -7t-26.5 -1.5t-27.5 2t-17 3.5q0 6 -0.5 36.5t-1.5 77.5t-2 105.5t-2 119.5t-2 119.5t-2 105.5t-1.5 77.5t-0.5 36.5q0 5 4 9.5t8 5.5zM55 186q16 1 23 -1.5t23 -1.5l17 661q-17 2 -39 0t-39 0q0 -4 1 -33.5t2 -75.5t2 -103t2.5 -116.5t2.5 -117t2 -103
t2 -75.5t1 -34z" />
    <glyph glyph-name="quotedbl" unicode="&#x22;" horiz-adv-x="253" 
d="M18 861q22 -1 39 1t39 0q8 -1 10 -6t-2 -10l-8 -186q-2 -5 -13 -7.5t-24.5 -2.5t-25.5 1t-15 3q0 11 -2 38.5t-4 57.5t-4 57.5t-2 38.5q0 5 4 9.5t8 5.5zM37 672h12h7.5h7.5h12l11 172q-17 2 -32.5 0t-32.5 0q0 -8 2.5 -33t5 -53t5 -52.5t2.5 -33.5zM138 863q4 0 17.5 1
t27.5 0t26 -4t15 -12q-4 -73 -7 -113t-6 -58.5t-5.5 -21t-4.5 -1.5q-14 -2 -21 -0.5t-23 0.5q-8 -2 -13 9.5t-8.5 30.5t-5 42.5t-2.5 45.5t-1.5 40t-0.5 26q0 5 4 9.5t8 5.5zM157 674h12h7.5h7.5h12l11 172q-17 2 -32.5 0t-32.5 0q0 -8 2.5 -33t5 -53t5 -52.5t2.5 -33.5z
" />
    <glyph glyph-name="numbersign" unicode="#" horiz-adv-x="594" 
d="M443 628q2 -9 -0.5 -32t-6.5 -46t-7.5 -41.5l-3.5 -18.5q14 0 36.5 -0.5t44 -0.5t38 0.5t18.5 1.5v-19.5t-1 -31t-2 -30t-3 -16.5q0 -6 -9 -8h-127v-68q48 5 75.5 7.5t42 2.5t19 -2.5t5.5 -6.5v-19.5t-1 -31t-2 -30t-3 -16.5q0 -6 -9 -8h-127q0 -18 0.5 -38t1 -39.5
t0.5 -37t-2 -30.5h-19.5t-31 1t-30 2.5t-16.5 3.5q-6 0 -8 9q1 32 1.5 64.5t0.5 64.5h-69q-1 -18 -0.5 -37.5t1.5 -39t1 -36.5t-2 -30q-28 0 -47.5 3t-46.5 3q-9 0 -11 10q1 32 1.5 63.5t0.5 63.5h-65t-65 1q-8 2 -9.5 5.5t-4.5 13.5l1 101q29 -2 67.5 -9.5t76.5 -7.5
q1 17 1 34v34h-66t-68 1q-5 5 -7 6t-5 13l1 101q1 3 22 -0.5t46.5 -8t48.5 -8t29 -0.5l3 131q5 5 6.5 7t12.5 5l101 -2q2 -11 -2 -30t-8.5 -40.5t-8 -41.5t0.5 -32h67l3 132q-2 3 5 7t14 5zM401 89q0 49 0.5 76.5t0.5 42v19.5v8l135 -1q0 20 1.5 33t3.5 33q-31 0 -64.5 -0.5
t-83.5 -1.5q1 -1 2 12.5t2 32t1.5 37t1.5 27.5q2 0 6.5 0.5t18 0.5t39.5 -0.5t72 -1.5q0 20 1.5 33t3.5 33h-33h-38.5t-38.5 -1t-32 -2q0 3 0.5 7t2.5 18t6 40.5t11 74.5l-77 2l-2 -141q-5 0 -22.5 -1t-37 -1.5t-36 -1t-19.5 0.5q0 2 0.5 6.5t2.5 18.5t6.5 42t12.5 77l-77 2
l-3 -145q-2 0 -6 0.5t-18.5 2t-42.5 4.5t-79 9l-1 -77h32t41.5 -0.5t41 -0.5t31.5 1v-1h2q0 -6 -1.5 -13.5t-3 -19.5t-2.5 -30.5t-1 -47.5q-41 2 -78.5 5t-60.5 12l-1 -77q12 0 32.5 -0.5t43 -1t41.5 -1.5t28 -2q-2 -33 -1.5 -66.5t-1.5 -66.5q20 0 33 -2t33 -4l1 140
q5 0 11.5 0.5t18 1t30 1t47.5 0.5q-1 -34 -1 -68.5t-1 -70.5q20 -1 33 -2.5t33 -3.5zM334 294h-5.5h-14t-30 0.5t-54.5 1.5q1 23 -2 47.5t-4 62.5h4v3l107 -3zM318 315q1 18 1 36v35h-71v-71h70z" />
    <glyph glyph-name="dollar" unicode="$" horiz-adv-x="525" 
d="M4 222q-2 9 6.5 21t21 22t26.5 16.5t24 5.5l20.5 -20.5t23 -18.5t28 -13t36.5 -4v160q-29 7 -56 17.5t-54 30.5q-33 20 -48 47.5t-15 56.5t13 58t35.5 53t53.5 40.5t66 20.5q1 49 -2 86.5t1 62.5q5 0 21 1t34 0t33 -4t17 -11v-126q31 -2 61.5 -10.5t57.5 -24t48.5 -38.5
t34.5 -56q-1 -9 -13.5 -18t-26.5 -15.5t-25 -9t-9 1.5q-4 7 -17.5 18.5t-32 23t-39.5 20t-39 11.5q1 -35 1 -72v-75q67 -12 110.5 -40t64 -63.5t18.5 -74t-24 -72t-64.5 -57.5t-102.5 -30v-43t-0.5 -43.5t-1.5 -37t-2 -22.5l-105 -2q-2 10 -1.5 31.5t2 44t3 41t0.5 24.5
q-32 1 -57 3.5t-46 11.5t-40.5 25.5t-39.5 45.5zM473 601q-35 51 -88 80t-116 21h-2q1 3 1 7.5v18v39.5t1 73q-20 0 -33 1.5t-33 2.5v-147q-32 -1 -61.5 -13t-53 -32t-38 -45.5t-14.5 -52.5q0 -23 7 -41t21 -35q26 -30 60.5 -46t88.5 -28q0 1 -0.5 -6t-1 -28t-1 -59
t-0.5 -98q-18 -2 -37.5 -1t-37.5 7t-32.5 17.5t-21.5 30.5l-2 2h-1q-8 -5 -16 -11q-7 -5 -15.5 -11.5t-16.5 -13.5q-1 0 4 -13t23 -28t53 -28.5t94 -15.5q0 -16 -0.5 -36.5t-1 -40t-1 -34.5t-1.5 -21l73 -2l-2 144q56 1 98 21t66 51t28 67.5t-15 70t-62.5 60t-114.5 36.5h1
q-4 44 -2.5 85.5t-1.5 92.5h1q19 3 42 -2t44.5 -15t40 -23.5t30.5 -26.5q12 3 27 10.5t20 15.5zM278 216q-5 97 -4 138.5t0 36.5q18 4 37.5 -1t37 -17t29.5 -29t14 -38q1 -24 -11 -38.5t-30.5 -23.5t-38.5 -15t-34 -13zM114 539q-4 41 23 66t65 31q5 -38 5 -77t2 -81
q-14 2 -29 5.5t-28.5 10.5t-23.5 17.5t-14 27.5zM356 275q15 15 13 34.5t-14 35.5t-30 25t-34 4q1 -34 1 -67v-65q42 11 64 33zM134 542q0 -13 18 -23t37 -18l-2 110q-23 -11 -38.5 -28.5t-14.5 -40.5z" />
    <glyph glyph-name="percent" unicode="%" horiz-adv-x="836" 
d="M66 760q31 25 69.5 35t77.5 7.5t74 -17t59 -39t32 -58t-6 -74.5q-12 -35 -40.5 -67.5t-66 -53.5t-81.5 -26.5t-88 12.5q-45 19 -68 54.5t-26 76t13.5 81t50.5 69.5zM138 37q-1 0 -5 2.5t-2 4.5q-1 0 0 1v5l1 2q20 39 54 102.5t75 139t84.5 157t84.5 157t74.5 139
t54.5 103.5q5 5 18.5 2t29 -9.5t30 -15t22.5 -13.5q-15 -31 -46 -87t-69.5 -125.5t-80.5 -146.5t-80.5 -148.5t-69 -131t-45.5 -95.5q-11 -26 -20 -51t-16 -45zM352 619q11 39 2.5 69.5t-30.5 52t-53 33t-65 13t-67.5 -8.5t-58.5 -32q-31 -27 -45.5 -62t-12 -70.5t22.5 -67
t59 -49.5q34 -16 73.5 -12t75 22t62.5 47.5t37 64.5zM221 13q2 17 9.5 38t17 42t19 39t15.5 29q14 27 41 77.5t61.5 113.5t72 131.5t72 131t62.5 113t42 77.5q-18 8 -30.5 12.5t-30.5 14.5q-20 -38 -53 -100.5t-73 -137t-83.5 -154.5t-83.5 -154.5t-73.5 -137t-53.5 -100.5z
M176 729q23 0 49 -8.5t43.5 -24.5t21.5 -39t-18 -51q-11 -14 -21.5 -23t-22 -15t-25.5 -10.5t-31 -9.5q-20 -6 -40.5 3t-35 26t-21 38t1.5 40q9 22 17 34.5t19 20t25 11.5t35 8h3zM177 708q-5 -2 -6 0q-20 -3 -33 -6.5t-28 -22.5q-14 -17 -15 -37.5t8 -37.5t26.5 -28
t39.5 -9q29 3 50 16.5t32 30.5t12.5 36t-7.5 33.5t-28.5 22t-50.5 2.5zM471 342q31 25 69.5 35t77.5 7.5t74 -17t59 -39t32 -58t-6 -74.5q-12 -35 -40.5 -67.5t-66 -53.5t-81.5 -26.5t-88 12.5q-45 19 -68 54.5t-26 76t13.5 81t50.5 69.5zM757 201q11 39 2.5 69.5t-30.5 52
t-53 33t-65 13t-67.5 -8.5t-58.5 -32q-31 -27 -45.5 -62t-12 -70.5t22.5 -67t59 -49.5q34 -16 73.5 -12t75 22t62.5 47.5t37 64.5zM584 312q28 1 53 -9t40.5 -27.5t17 -40.5t-17.5 -47q-11 -14 -21.5 -23t-22 -15t-25.5 -10.5t-31 -9.5q-20 -6 -40.5 3t-35 26t-21 38t1.5 40
q9 22 17 34.5t19 20t26 11.5t37 8q1 0 1.5 0.5t1.5 0.5zM582 290q-5 -2 -6 0q-20 -3 -33 -6.5t-28 -22.5q-14 -17 -15 -37.5t8 -37.5t26.5 -28t39.5 -9q29 3 50 16.5t32 30.5t12.5 36t-7.5 33.5t-28.5 22t-50.5 2.5z" />
    <glyph glyph-name="ampersand" unicode="&#x26;" horiz-adv-x="969" 
d="M861 457q9 8 16 -4l60 -82q6 -14 -8 -16q-20 -18 -55 -37.5t-75.5 -37t-81.5 -32.5t-72 -25q0 -10 0.5 -19t0.5 -18q1 -12 2 -32.5t1.5 -42.5t0.5 -42.5v-33.5q3 -8 -2 -13v-7q-8 -2 -27 -3t-38.5 -0.5t-35 1t-15.5 1.5q0 33 1 58t0.5 45.5t-3 38t-9.5 36.5
q-46 -9 -92.5 -13.5t-92.5 -1.5q-33 2 -53.5 5t-38.5 8t-37.5 13t-49.5 19q-21 8 -39.5 22.5t-34.5 31.5q-30 31 -50.5 69.5t-26 78.5t6 79t45.5 72q24 23 53 36t61 18.5t65 5t63 -5.5q38 -6 72 -24t63.5 -42.5t53.5 -55t43 -62.5l1 215q-1 1 14.5 1.5t34 0.5h34t14.5 0
t0 -29.5t2.5 -76.5t4 -106.5t4.5 -119.5l4 2q31 14 58 25t52.5 24t50.5 30.5t51 43.5zM625 305q-2 51 -4 110t-3 109.5t-2 83t-2 30.5q-16 -4 -30 -1t-32 7l1 -252l-1 2v-3q-25 37 -55 75.5t-66 70.5t-79.5 54t-95.5 25q-80 5 -135.5 -23.5t-79.5 -76.5t-12 -107.5
t68 -117.5q15 -16 33 -28.5t37 -23.5q39 -20 82.5 -30t86.5 -12q45 -2 90 2t89 13q7 1 10 2t3.5 1h0.5l3 1q6 -15 14.5 -59t5.5 -124q12 3 35 1t39 0q0 -1 0 2t1 6l-2 188v6q30 11 70 25.5t80 31t76 35t58 36.5v1q-3 7 1 11q-3 7 -8 14q-8 11 -19 21.5t-19 22.5
q-28 -24 -55 -43t-55.5 -34.5t-60 -28t-68.5 -23.5zM534 278q-32 -13 -80.5 -16t-100.5 4.5t-102.5 24.5t-87 43.5t-54 61.5t-3.5 79q24 45 64 61.5t83.5 11.5t85 -27t69.5 -55q15 -16 33 -39t35.5 -49t33 -52t24.5 -48zM121 453q-10 -23 4.5 -48t45.5 -48t73.5 -41.5
t88.5 -28.5t91 -10t81 16q-6 12 -17.5 30.5t-24 38t-25 37.5t-20.5 29q-12 17 -34.5 36t-50 34.5t-58 24.5t-59 6t-53.5 -20.5t-42 -55.5z" />
    <glyph glyph-name="quotesingle" unicode="'" horiz-adv-x="126" 
d="M18 861q22 -1 39 1t39 0q8 -1 10 -6t-2 -10l-8 -186q-2 -5 -13 -7.5t-24.5 -2.5t-25.5 1t-15 3q0 11 -2 38.5t-4 57.5t-4 57.5t-2 38.5q0 5 4 9.5t8 5.5zM37 672h12h7.5h7.5h12l11 172q-17 2 -32.5 0t-32.5 0q0 -8 2.5 -33t5 -53t5 -52.5t2.5 -33.5z" />
    <glyph glyph-name="parenleft" unicode="(" horiz-adv-x="354" 
d="M351 -10l-5.5 -10t-13.5 -24.5t-17 -30t-17 -26.5q-75 22 -137.5 81.5t-102 145t-52.5 192.5t11 223q16 75 46 144t68.5 123.5t83 90.5t90.5 46q0 -1 6 -14.5t14.5 -30t16 -31t9.5 -17.5q-46 -17 -85 -52.5t-69 -84.5t-51 -107.5t-31 -121t-8.5 -126t15.5 -121t42 -106.5
t71 -83q28 -22 54 -36.5t62 -23.5zM28 512q-10 -64 -7.5 -129t16 -125.5t37 -114.5t56 -98t73 -75t88.5 -44q10 12 20 25t16 27q-33 11 -63 26.5t-43 32.5q-45 32 -75.5 89t-46.5 125t-16.5 140.5t14.5 137.5q12 50 35 102.5t53 99t65.5 82t74.5 50.5q-5 12 -15 28.5
t-18 30.5q-42 -18 -84 -56t-78 -91.5t-63 -120.5t-39 -142z" />
    <glyph glyph-name="parenright" unicode=")" horiz-adv-x="377" 
d="M-1 -10q36 9 62 23.5t54 36.5q43 34 71 83t42 106.5t15.5 121t-8.5 126t-31 121t-51 107.5t-69 84.5t-85 52.5q2 3 9.5 17.5t15.5 31t14.5 30t6.5 14.5q46 -10 90.5 -46t83 -90.5t68 -123.5t46.5 -144q24 -116 11 -223t-52.5 -192.5t-102 -145t-137.5 -81.5
q-8 11 -17 26.5t-17 30t-13.5 24.5zM322 512q-12 75 -39 142t-63 120.5t-78 91.5t-84 56q-8 -14 -18 -30.5t-15 -28.5q39 -15 74.5 -50.5t65.5 -82t53 -99t35 -102.5q15 -65 14.5 -137.5t-16.5 -140.5t-46.5 -125t-75.5 -89q-13 -17 -43 -32.5t-63 -26.5q6 -14 16 -27
t20 -25q47 13 88 44t73.5 75t56 98t37 114.5t16 125.5t-7.5 129z" />
    <glyph glyph-name="asterisk" unicode="*" horiz-adv-x="717" 
d="M65 146q1 1 15.5 16t37 38t49 49.5t51.5 50.5q-31 0 -57.5 -1.5t-51.5 -3t-50.5 -2t-53.5 1.5q-2 7 -2.5 25.5t-0.5 37.5t1 33.5l1 14.5q1 0 24.5 -1t58 -2.5t74 -2.5t72.5 -1q-21 20 -48 42.5t-52 42.5t-41.5 34t-16.5 16q0 3 -0.5 4t6.5 8t25 22.5t53 48.5
q7 -10 20.5 -26t31 -34.5t37 -38.5t37.5 -38q-1 30 -2.5 63.5t-2.5 63t-1 49.5t2 22t2.5 3t10.5 1t33.5 -1t71.5 -2q-2 -13 -3 -36.5t-1.5 -52t-0.5 -59t1 -56.5l156 154q0 1 11 -10t23.5 -24.5t23.5 -24.5t11 -10q-1 -1 -15 -15.5t-35 -36.5t-45.5 -47.5t-45.5 -47.5
q25 0 55 0.5t58.5 0.5t54 0.5t42.5 0.5q1 1 1 -14.5v-34.5v-34.5t1 -14.5q-1 0 -24 -1t-57 -2t-72 -2.5t-69 -2.5l107 -107q30 -30 60 -61l-9 -10t-21 -22l-23 -23t-15 -14q-42 30 -82 68t-78 76q0 -34 0.5 -70.5t1.5 -68.5q1 -37 1 -72q-24 -1 -44 -2q-17 -1 -32.5 -1
t-20.5 1q-9 53 -11.5 110.5t-3.5 112.5q-23 -23 -41.5 -43.5t-36.5 -39.5t-37 -38t-41 -38q-7 4 -20 16.5t-26 26.5t-22.5 25zM396 449q-1 -1 -3.5 0.5t-6 3.5t-6 4t-3.5 1q-1 29 -1.5 63.5t-1.5 64.5q-1 35 -1 70q0 1 -7 0.5t-18 -0.5t-23.5 1t-23.5 4v-22t1 -52t1.5 -66
t1.5 -64q-2 -2 -10 -3t-10 0q-21 20 -44 43l-42 42l-43 43l-4.5 -4.5l-11.5 -11.5t-16.5 -15t-19.5 -13q0 -1 18 -15t43.5 -34.5t53.5 -44.5t49 -45q-1 0 -2 -3.5t-2.5 -7.5t-3.5 -7.5t-4 -2.5q-32 0 -72 1.5t-75.5 3.5t-60 3t-25.5 0q2 -15 0 -36t0 -37q28 2 53 2.5t50 0.5
t52 0.5t59 1.5q2 1 4.5 -1.5t5 -6t3.5 -6.5t0 -2q-22 -22 -49.5 -49t-51.5 -50.5t-40.5 -40t-15.5 -17.5q11 -11 25 -26.5t26 -26.5q6 8 14.5 17.5t25 26t44.5 44t72 72.5q0 5 10 2.5t10 -4.5q0 -25 0.5 -54.5t1.5 -59.5t3 -59t5 -53q9 -1 29 1t35 -2q0 4 -0.5 26.5t-2 54.5
t-3 68t-2.5 68l3 2t7 4t7.5 2.5t4.5 -2.5q18 -17 38 -37t40.5 -40t40.5 -38.5t38 -32.5q7 6 20 21t27 23q-3 4 -22 22t-45.5 43t-55.5 52t-51 49q1 0 2.5 4t3.5 8.5t3.5 7t3.5 0.5q31 2 68 4t70 3.5t56.5 2.5t27.5 1q-4 16 -4 27.5t4 29.5l-214 -3q-1 -1 -2.5 2t-3 7
t-2.5 7.5t1 3.5q21 22 44.5 47.5t43.5 47.5t34.5 37t17.5 18q-14 9 -21.5 17t-17.5 24z" />
    <glyph glyph-name="plus" unicode="+" horiz-adv-x="430" 
d="M155 311q-6 2 -29.5 1t-49.5 -2.5t-47.5 -2.5t-24.5 2q-2 2 -3 2.5t-1 10.5t0.5 33.5t1.5 71.5q19 -3 45 -4.5t49 -1.5t39.5 1t16.5 4q-2 1 -2 13.5v33t0.5 46.5t-0.5 55q-1 1 14 1h34h34.5t14.5 1q0 -1 1 -13.5t2 -30.5t2 -38t2 -36t2 -25t2 -4q0 -1 23.5 -0.5t51.5 0.5
q33 0 74 1l1 -15t1.5 -34t0.5 -37v-22q-3 -5 -25 -6.5t-48 -1.5t-50 1t-31 1q1 -15 3 -34.5t3.5 -40.5t1.5 -41.5t-1 -36.5q-8 -2 -26 -3t-37 -1t-33.5 0.5t-14.5 1.5v13.5v32.5t0.5 47t2.5 57zM171 406q1 -1 -21 -1.5t-50 -1.5q-33 -1 -75 -2l-0.5 -1.5t-1 -8t-1 -20.5
t-1.5 -38h12.5t28.5 0.5t36 1t35 0.5h26.5h10.5q2 0 2.5 -11.5t0 -28.5t-1 -37t-1 -37t-0.5 -28.5t2 -12.5q12 3 35 1t39 0q-3 18 -3.5 38t-0.5 40v39t-1 35q0 3 8.5 2.5t26.5 -0.5t46.5 1t67.5 6q0 4 -0.5 13t-1 19.5t-0.5 20.5t2 18q-7 1 -31 -1t-50.5 -4t-47 -3t-20.5 1
q-2 1 -3.5 22t-2.5 47t-2 49.5t-1 28.5q-3 1 -11.5 1h-19t-20 -0.5t-12.5 -0.5q1 -28 1.5 -54t0.5 -46v-32.5v-14.5z" />
    <glyph glyph-name="comma" unicode="," horiz-adv-x="135" 
d="M16 -58q3 6 10.5 9.5t12.5 9.5q5 7 6.5 12t1.5 9.5t-1.5 8.5t-2.5 8l-16 -2t-12 -2q-4 1 -8 5.5t-4 9.5q1 23 3 46t3 46q4 3 18.5 2.5t31.5 -2.5t32.5 -5t22.5 -6v-1q2 -10 3 -29t-0.5 -40.5t-6.5 -43.5t-14.5 -40t-24.5 -29t-36 -10q-3 0 -7.5 4.5t-8 11t-5.5 13.5t0 11
q0 2 1 3zM25 85q-1 -17 -3 -35t-3 -35q4 0 11.5 0.5t14 1t11 1t3.5 0.5q3 -15 5 -25.5t-0.5 -19t-9.5 -17t-22 -19.5q2 -5 7.5 -12t9.5 -10q22 10 32.5 28.5t14.5 41.5t3.5 48t-0.5 48q-16 1 -37 2t-37 2z" />
    <glyph glyph-name="hyphen" unicode="-" horiz-adv-x="466" 
d="M431 312q-1 0 -20.5 0.5t-52 1.5t-75 1.5t-88 1t-91 0t-85.5 -1.5q-4 -8 -11 -8t-9 9q0 28 2.5 47.5t2.5 46.5q0 2 1 3q0 6 9 8q67 -1 113.5 -1h89h89t112.5 -1h2q2 -1 3 -1t2 -1l1 -1l2 -2q1 -2 1 -7l3 -7zM412 399q-43 1 -76.5 1h-62.5h-55h-55h-62.5t-76.5 1
q0 -20 -1.5 -33t-3.5 -33h71t84.5 -0.5t85.5 -1.5t75.5 -1.5t54.5 -1l21 -0.5z" />
    <glyph glyph-name="period" unicode="." horiz-adv-x="137" 
d="M114 3q-5 -2 -21 -4t-33.5 -1.5t-32 4.5t-16.5 14q-1 4 -2 13.5t-2 21t-1.5 23t1.5 19.5q1 4 16.5 6t34.5 2t36 -3t20 -7v-88zM25 81q1 -20 1 -32.5v-31.5h70l1 64h-72z" />
    <glyph glyph-name="slash" unicode="/" horiz-adv-x="536" 
d="M0 45q-1 0 1 4t14 26t38 71t74 138t122 227t182 339q5 5 18.5 2t29 -9.5t30 -15t22.5 -13.5q-15 -31 -46 -87t-69.5 -125.5t-80.5 -146.5t-80.5 -148.5t-69 -131t-45.5 -95.5q-11 -26 -20 -51t-16 -45zM93 13q2 17 9.5 38t17 42t19 39t15.5 29q13 27 40.5 77.5t62 113.5
t72 131.5t72 131t62.5 113t42 77.5q-18 8 -30.5 12.5t-30.5 14.5q-20 -38 -53 -100.5t-73 -137t-83.5 -154.5t-83.5 -154.5t-73.5 -137t-53.5 -100.5z" />
    <glyph glyph-name="zero" unicode="0" horiz-adv-x="754" 
d="M376 89q42 -1 83.5 18t79.5 54q54 50 80 115.5t24.5 133.5t-31 130.5t-86.5 106.5q-33 25 -73.5 32.5t-80.5 8.5q-69 0 -124.5 -30t-92 -78t-52.5 -109t-7 -123.5t45 -121t103 -101.5q19 -12 35 -19t31 -10.5t30.5 -4.5t35.5 -2zM376 12q32 0 67 6t70 20t68 39t59.5 63
t44.5 91.5t25 125.5q10 107 -15.5 185t-73.5 129t-111 76t-129 26q-26 3 -60.5 -2t-72 -19.5t-75 -41t-69 -66.5t-54 -95t-30.5 -127t4.5 -130t39 -103t64 -77.5t79.5 -54t85.5 -32.5t83.5 -13zM377 -7q-40 1 -87 12t-92.5 33t-87 57t-69 85.5t-38.5 117.5t3 154
q16 100 56.5 166t93 105t111.5 54.5t114 14.5q40 -2 84 -13t86.5 -34t79.5 -59t62 -87t35 -118.5t-2 -153.5q-14 -99 -49.5 -164t-84 -103.5t-105 -53.5t-110.5 -13zM376 68q-9 0 -27.5 2t-40 7t-43 13.5t-34.5 22.5q-42 33 -74.5 69t-52 78t-25 90t5.5 105q13 66 43 114
t70 79.5t87 47t95 15.5q59 -2 113.5 -25t94 -68t59 -112.5t9.5 -157.5q-11 -65 -38.5 -117t-65.5 -88t-83.5 -55.5t-92.5 -19.5z" />
    <glyph glyph-name="one" unicode="1" horiz-adv-x="336" 
d="M68 598q-8 -8 -18 -3q-4 3 -13.5 12.5t-19.5 21t-16.5 23t-3.5 17.5q7 7 29 25t46.5 37t44.5 34t22 15q14 2 37 2.5t51 0.5q3 -33 4 -85t0 -114t-2.5 -129.5t-2.5 -131.5t-0.5 -120.5t4.5 -96.5q14 1 28.5 1.5t31.5 -1.5q4 2 8.5 0.5t6.5 -8.5q0 -22 1.5 -45t1.5 -44
q-2 -5 -6 -6.5t-12 -3.5q-61 0 -120.5 0.5t-119.5 -1.5q-5 2 -6 5t-4 6q-2 4 -3.5 14t-2.5 21t-1.5 22t-1.5 18q0 5 7 12t12 9h74q1 57 1.5 125.5t2 140t3.5 142t6 131.5q1 -1 -7 -7.5t-19.5 -14.5t-23.5 -15t-19 -9zM153 646q-5 -67 -6 -142.5t-1 -150.5t-1 -144t-7 -124
h-87q2 -18 3 -34t6 -33q58 2 114.5 1.5t113.5 -0.5q-1 16 -2 34t-1 35h-1q-15 0 -34.5 -0.5t-34.5 -2.5q-3 6 -4 41.5t-0.5 90.5t1.5 124t2 142.5t1 146t-1 134.5h-16.5t-21.5 -0.5t-21 -2t-14 -4.5q-1 1 -15 -9t-32.5 -25t-39 -31t-35.5 -28q7 -14 18 -27.5t22 -22.5
q7 3 20 11.5t25.5 17.5t21.5 15.5t8 5.5q7 8 14.5 2t4.5 -20z" />
    <glyph glyph-name="two" unicode="2" horiz-adv-x="571" 
d="M60 588q-3 3 -10 18t-14.5 31.5t-14.5 30.5t-10 16q33 22 83 46t104.5 39.5t108 18t94.5 -19.5q68 -33 99.5 -74.5t35.5 -88t-15.5 -96t-54 -98t-79 -94.5t-90 -86.5t-88.5 -72.5t-74 -53q94 1 186.5 5t186.5 5q12 -2 10 -11q2 -5 4 -18.5t3 -29t0.5 -29.5t-2.5 -18
q-2 -6 -6.5 -8t-9.5 1q-124 -5 -243 -3.5t-243 1.5q-1 0 -1 1q-6 0 -8 7q-4 19 -4 37t0.5 32.5t1.5 23.5t0 11q-1 14 18.5 34.5t52 45.5t73.5 54.5t83 62.5t81 69.5t66.5 75t40 79t1.5 81.5q-18 30 -49.5 42t-68 11.5t-75.5 -10.5t-73.5 -23t-61 -26t-38.5 -20zM445 621
q13 -41 3 -81.5t-36.5 -80.5t-65 -77.5t-80.5 -72t-84 -65t-75.5 -55t-55 -43t-22.5 -28.5q4 -28 1.5 -51t0.5 -47q121 3 236 -0.5t236 2.5q0 19 1.5 35.5t1.5 35.5v2q-97 -1 -192 -5t-192 -5q-5 -1 -12.5 1t-13 5.5t-7 7t7.5 6.5q2 0 32 20t74.5 54t96.5 79.5t98 97
t78.5 106t38.5 106.5t-21.5 99t-102.5 83q-27 13 -68 14.5t-89 -7t-99 -27.5t-98 -47q3 -8 7.5 -19t9 -21t9 -16.5t8.5 -4.5q27 15 63.5 28t75 22t77 12.5t71 -1.5t56 -20t31.5 -42z" />
    <glyph glyph-name="three" unicode="3" horiz-adv-x="500" 
d="M167 430q67 23 106 60.5t52.5 75.5t2.5 71t-45 47t-90 3t-132 -59q-5 -3 -12 7t-13.5 24.5t-12 28.5t-6.5 19q48 46 100.5 66t102.5 19t94.5 -19.5t76 -49.5t46.5 -70.5t7 -82t-42.5 -85t-103.5 -79.5q12 -2 31 -6t41 -12t43.5 -21.5t38 -35.5t26 -53.5t6.5 -75.5
q-2 -24 -11.5 -50.5t-24.5 -50.5t-33 -43t-36 -28q-26 -13 -53.5 -20.5t-56.5 -8.5q-28 -1 -66 5t-75.5 17.5t-70 29.5t-48.5 41q1 9 10.5 24t21.5 29t22.5 23.5t13.5 6.5q38 -40 89 -60.5t97 -17.5t79 30.5t35 82.5q2 26 -8.5 45t-29 32.5t-42 22t-46.5 13.5t-42.5 7.5
t-30.5 3.5q0 11 -6 26t-10.5 29t-4.5 25t10 14zM188 412q-7 -3 -7.5 -8.5t2 -12.5t7 -15.5t6.5 -17.5q5 -3 22 -6t40 -8.5t47.5 -14.5t45.5 -23.5t34 -35.5t12 -51q-2 -51 -22.5 -80.5t-51.5 -42.5t-68.5 -12.5t-73 9.5t-65.5 24.5t-46 32.5q-10 -10 -21.5 -24.5
t-17.5 -27.5q1 -1 2 -1q17 -19 45 -33.5t61.5 -24t69.5 -13.5t70.5 -1.5t64 11.5t50.5 26q31 24 48 62t20 78q9 50 -3 82.5t-39 54t-66.5 35.5t-84.5 26q-3 1 -5 5.5t3 6.5q90 40 126 91.5t32.5 102t-39.5 92t-91.5 60.5t-123 9t-133.5 -64q8 -8 13 -21t13 -24
q81 40 140.5 47t96 -9.5t48.5 -50.5t-1.5 -75t-53 -83t-106.5 -75z" />
    <glyph glyph-name="four" unicode="4" horiz-adv-x="491" 
d="M465 465q8 -1 13 -14q0 -23 1.5 -44.5t1.5 -44.5q-2 -6 -9.5 -7.5t-17 -1t-19 2.5t-15.5 2q3 -84 5 -141.5t3.5 -96t2 -59.5t0 -31.5t-1.5 -14t-2 -4.5q-7 -3 -21.5 -7t-29.5 -5t-28 2t-18 12q0 49 -1.5 90.5t-2.5 80.5t-2.5 80t-1.5 90h-290q-6 -1 -14 1t-13.5 5.5
t-6 8.5t7.5 10q-1 0 11.5 17t32.5 44.5t46.5 63.5t54 73t54 73t47.5 64t33.5 46t12.5 19q0 5 5 6t8 2q5 0 21.5 0.5t34.5 0t32.5 -4t16.5 -10.5l2 -314q10 2 24 3.5t23 2.5zM409 439q-2 0 -2 1h-8l-3 323q-24 2 -40.5 4t-40.5 0q-1 0 -14 -17.5t-33.5 -45t-47 -63
t-53.5 -72.5q-64 -86 -145 -196q48 -1 86.5 -0.5t74.5 1t74 0.5t85 -3q0 -50 1.5 -92.5t2.5 -83t2.5 -82.5t1.5 -92q24 0 33 0.5t24 3.5l-7 341q-3 3 1.5 7t7.5 5q11 0 26 -1t26 -1l-2 34t-1 34zM315 682q8 6 14 -2q3 -1 4 -14.5t1 -35.5v-48.5t0.5 -52.5t1 -49t2.5 -36
q-1 -5 -5 -9t-9 -4q-23 0 -56.5 -1.5t-64.5 -3t-53 -1t-22 5.5zM318 451q-1 13 -2.5 41.5t-2 59.5t-0.5 59.5t2 43.5l-159 -215q15 2 35.5 4t42.5 3.5t44 2.5t40 1z" />
    <glyph glyph-name="five" unicode="5" horiz-adv-x="547" 
d="M30 779q0 1 31.5 2t78.5 1.5t101.5 0.5h101.5t79 -0.5t33 -0.5q0 -21 1 -41.5t2 -41.5q-2 -5 -6.5 -11.5t-10.5 -8.5h-48t-64.5 -0.5t-70 -1t-65 -0.5h-48.5h-20q1 -18 2 -43t1.5 -51.5t0.5 -50t-1 -38.5q110 26 187 8.5t123.5 -60.5t63.5 -103t6.5 -118.5t-48 -107.5
t-99.5 -70q-60 -20 -103.5 -25.5t-82 -1.5t-76.5 15t-86 23q-9 3 -8 17.5t8 31t17.5 29.5t21.5 11q13 -10 44 -17t69 -9t79 3t75.5 20.5t57.5 42.5t25 70q2 40 -17.5 67.5t-52 44.5t-74 24.5t-83.5 8t-81 -5t-66 -14.5q0 26 1.5 80t2.5 115t1 117.5t-3 88.5zM113 470
q1 7 0.5 26t-1.5 44t-2 52.5t-2 50.5t-1 38.5t2 16.5q1 2 9.5 2.5t40.5 0t97.5 -1t181.5 -0.5q-1 17 -2 33.5t-1 33.5q-2 0 -12 -0.5t-47.5 -1t-114 -1.5t-211.5 -1q1 -41 1.5 -87.5t0.5 -94t-1 -93.5t-5 -86v-2q84 17 145.5 15.5t105 -15t70.5 -35.5t42 -45.5t19 -45.5
t1 -36q-7 -37 -31 -64t-58 -44t-74.5 -25t-81 -8t-77 6.5t-62.5 19.5q-3 -3 -6 -10.5t-6 -16t-6 -15t-6 -8.5q56 -20 110.5 -30.5t104.5 -9t94.5 17t80.5 48.5q47 43 66 94t13 101t-35.5 93.5t-78 70.5t-115.5 33t-148 -20z" />
    <glyph glyph-name="six" unicode="6" horiz-adv-x="592" 
d="M175 15q-50 14 -83.5 40.5t-54 58.5t-28.5 67.5t-7.5 69t8.5 62t20 46.5q9 14 19.5 30.5t20 30.5t16 23.5l6.5 9.5q49 81 84 137.5t58.5 94t38 58.5t22 31.5t10 12.5t2.5 1l106 -4h2q6 0 2 -8q-12 -18 -35 -54.5t-49.5 -78.5t-53 -83.5t-45.5 -69.5q73 11 137.5 -5.5
t110.5 -54.5t69.5 -93t13.5 -121q-7 -36 -28.5 -68t-53 -58t-70.5 -45.5t-80 -30t-82 -11t-76 11.5zM316 767q-58 -94 -110.5 -173.5t-93 -142t-65.5 -107t-27 -69.5q0 -36 3 -68t17.5 -60.5t43.5 -55t81 -52.5q30 -15 68 -17t78 6.5t79.5 26.5t72 42.5t54 55t26.5 63.5
q9 62 -12.5 116t-68 90t-115.5 48.5t-155 -7.5l194 301q-17 2 -35.5 1.5t-34.5 1.5zM110 167q-14 27 -18.5 56.5t1 58.5t20.5 55.5t42 46.5q40 22 83 30.5t82.5 3.5t73.5 -22.5t55 -46.5t27 -69t-10 -90q-11 -32 -36.5 -55.5t-59.5 -36.5t-72.5 -15.5t-74.5 5.5t-66 27.5
t-47 51.5zM456 233q8 45 -6.5 78.5t-42 54.5t-64.5 29.5t-75 5t-72 -19t-55.5 -43.5t-26 -68t15.5 -92q12 -32 39.5 -51t61.5 -25.5t71 -1.5t69 21.5t55 44.5t30 67z" />
    <glyph glyph-name="seven" unicode="7" horiz-adv-x="535" 
d="M4 683q-5 3 -7.5 19t-1.5 34.5t6 33.5t15 15q143 2 255 3h93.5t80.5 -0.5t56 -2t20 -3.5q-18 -39 -51 -99.5t-73 -132t-83 -148.5t-82 -149.5t-69 -135t-44 -104.5q-6 -15 -18.5 -16t-27 5t-29 15t-24.5 14q-5 5 -8.5 9t-1.5 12q16 32 41.5 78t56 101t64.5 115.5
t67.5 120.5t64.5 117.5t57 105.5q-85 -2 -178.5 -4t-178.5 -3zM18 703q25 -2 62.5 -2t79 0.5t83 2t74.5 2t53 0.5t19 -1q-25 -47 -56.5 -105t-66 -120.5t-69.5 -126t-66.5 -120.5t-58 -105t-42.5 -80l69 -35q15 46 44 106.5t65.5 128.5t77 140t80 140.5t73.5 130.5t58 110
q0 1 -35 1t-87 -0.5t-113.5 -1t-114 -1t-88.5 -1.5t-37 -1q-2 0 -3 -1z" />
    <glyph glyph-name="eight" unicode="8" horiz-adv-x="588" 
d="M326 792q37 0 77 -18t72 -48.5t49.5 -71.5t10.5 -87q-5 -29 -14.5 -51.5t-20.5 -38t-21.5 -25t-16.5 -10.5q62 -33 88.5 -93.5t15.5 -132.5q-1 -9 -2.5 -19.5t-7.5 -25t-18.5 -34t-35.5 -46.5t-62 -48.5t-84 -34.5t-90 -15t-79 12q-44 16 -80 41.5t-61 58t-37 71.5t-8 82
q3 54 36 102t83 76q-41 30 -59.5 73t-13.5 94q9 94 83 141.5t196 47.5zM67 605q-2 -60 20 -100t67 -72q-27 -7 -51 -24.5t-41.5 -41.5t-27.5 -52.5t-11 -58.5q-1 -40 7.5 -72.5t29 -60t53.5 -51t81 -44.5q30 -13 66.5 -13.5t74.5 10t74 29.5t65.5 45t49.5 56.5t25 64.5
q4 30 -2.5 63.5t-23 63t-42.5 53t-61 34.5q36 14 61 48.5t33 91.5q5 38 -7 70t-34.5 56.5t-51.5 42t-57 26.5q-42 11 -93.5 6t-96 -25.5t-75.5 -57t-32 -87.5zM110 297q24 47 63.5 72.5t83.5 32t87.5 -4.5t75 -37.5t46 -67t0.5 -92.5q-15 -49 -59.5 -80t-98 -40t-105 5.5
t-80.5 56.5q-25 36 -28 78t15 77zM397 349q-35 24 -73 32.5t-74.5 1.5t-68 -30t-52.5 -60q-7 -12 -10 -30t-2 -37t5 -37.5t11 -30.5q14 -25 42.5 -40t63 -18.5t70.5 3.5t67 24.5t51.5 46t24.5 67.5q4 40 -11 62.5t-44 45.5zM428 554q-9 -29 -28 -50.5t-41 -31.5
q-45 -21 -91.5 -17t-80 26.5t-47 60.5t6.5 86q13 32 45 54t70 30t76.5 0t65.5 -35q13 -11 20 -26.5t9.5 -32t0.5 -33.5t-6 -31zM415 585q6 29 -5 52t-32.5 37.5t-51 20t-59 -0.5t-56.5 -24.5t-45 -50.5q-11 -20 -10.5 -41t10.5 -40t27 -34t39 -23q32 -7 62.5 -5.5t55 13.5
t42 35.5t23.5 60.5z" />
    <glyph glyph-name="nine" unicode="9" horiz-adv-x="595" 
d="M391 771q93 -38 133.5 -89.5t43 -109.5t-24.5 -119.5t-69 -119.5q-53 -83 -88.5 -140t-58 -94t-35 -57.5t-19 -30t-9 -11.5t-5.5 -2l-106 4h-2q-6 0 -2 8q12 18 35 54.5t49.5 78.5t53 83.5t45.5 69.5q-73 -11 -137.5 5.5t-110.5 54.5t-69.5 93t-13.5 121q7 36 28.5 68
t53 58t70.5 45.5t80 30t82 11t76 -11.5zM250 19q58 94 110 174t92.5 143.5t65 109t27.5 70.5q4 38 1.5 69t-17.5 58t-45.5 52.5t-82.5 51.5q-29 15 -67.5 17t-78.5 -6.5t-79.5 -26.5t-71.5 -42.5t-54 -55t-27 -63.5q-9 -62 12.5 -116t68 -90t115.5 -48.5t155 7.5l-194 -301
q17 -2 35.5 -1.5t34.5 -1.5zM456 619q13 -27 18 -56.5t-0.5 -58.5t-20.5 -55.5t-42 -46.5q-40 -22 -83 -30.5t-82.5 -3.5t-73.5 22.5t-55 46.5t-27 69t10 90q11 32 36.5 55.5t59.5 36.5t72.5 15.5t74.5 -5.5t66 -28t47 -51zM110 553q-8 -45 6.5 -78.5t42 -54.5t64.5 -29.5
t75 -5t72 19t55.5 43.5t26 68t-15.5 92q-13 32 -40 51t-61 25.5t-71 1.5t-69 -21.5t-55 -44.5t-30 -67z" />
    <glyph glyph-name="colon" unicode=":" horiz-adv-x="154" 
d="M113 394q-5 -2 -21 -4t-33.5 -1.5t-32 4.5t-16.5 14q-1 4 -2 13.5t-2 21t-1.5 23t1.5 19.5q1 4 16.5 6t34.5 2t36 -3t20 -7v-88zM24 472q1 -20 1 -32.5v-31.5h70l1 64h-72zM114 3q-5 -2 -21 -4t-33.5 -1.5t-32 4.5t-16.5 14q-1 4 -2 13.5t-2 21t-1.5 23t1.5 19.5
q1 4 16.5 6t34.5 2t36 -3t20 -7v-88zM25 81q1 -20 1 -32.5v-31.5h70l1 64h-72z" />
    <glyph glyph-name="semicolon" unicode=";" horiz-adv-x="139" 
d="M23 -58q3 6 10.5 9.5t12.5 9.5q5 7 6.5 12t1.5 9.5t-1.5 8.5t-2.5 8l-16 -2t-12 -2q-4 1 -8 5.5t-4 9.5q1 23 3 46t3 46q4 3 18.5 2.5t31.5 -2.5t32.5 -5t22.5 -6v-1q2 -10 3 -29t-0.5 -40.5t-6.5 -43.5t-14.5 -40t-24.5 -29t-36 -10q-3 0 -7.5 4.5t-8 11t-5.5 13.5t0 11
q0 2 1 3zM32 85q-1 -17 -3 -35t-3 -35q4 0 11.5 0.5t14 1t11 1t3.5 0.5q3 -15 5 -25.5t-0.5 -19t-9.5 -17t-22 -19.5q2 -5 7.5 -12t9.5 -10q22 10 32.5 28.5t14.5 41.5t3.5 48t-0.5 48q-16 1 -37 2t-37 2zM113 394q-5 -2 -21 -4t-33.5 -1.5t-32 4.5t-16.5 14q-1 4 -2 13.5
t-2 21t-1.5 23t1.5 19.5q1 4 16.5 6t34.5 2t36 -3t20 -7v-88zM24 472q1 -20 1 -32.5v-31.5h70l1 64h-72z" />
    <glyph glyph-name="less" unicode="&#x3c;" horiz-adv-x="410" 
d="M380 176q6 -7 4 -14q-2 -6 -10.5 -17.5t-19.5 -22.5t-21.5 -18.5t-16.5 -4.5l-22.5 15.5t-56.5 39.5t-73.5 51.5t-73.5 51.5t-57 40l-23 16q-2 2 -3 14.5t-1 28.5t2.5 32t7.5 25q58 35 110.5 66.5t92.5 56t64.5 40t28.5 17.5q4 4 9 4.5t9 -6.5q6 -21 22 -43t30 -36
q-7 -13 -23.5 -24.5t-46 -27t-73.5 -38.5t-106 -60q1 -2 20 -16.5t47 -35t60 -43.5t59 -43t44.5 -33.5t16.5 -14.5zM316 124q15 8 28.5 17t18.5 20q0 1 -19 15t-46.5 35t-60 45t-59.5 44.5t-45 34.5t-17 15q-4 12 -4 17.5t5 8.5q106 64 168.5 96t69.5 39q-10 11 -22 28
t-17 31q-1 -1 -22.5 -15t-60 -37t-91.5 -54.5t-117 -66.5q-2 -1 -2.5 -11t-0.5 -22t0.5 -23t-0.5 -12l-1 1q0 -3 1 -2q0 1 22 -14l55 -37.5t71 -49t70.5 -49.5t54 -38.5z" />
    <glyph glyph-name="equal" unicode="=" horiz-adv-x="470" 
d="M0 488q-1 0 21.5 -0.5t60 -1.5t84.5 -1.5t95 -1t93 -0.5t78 1q0 -28 -2.5 -47.5t-2.5 -46.5q0 -9 -10 -11q-67 1 -113.5 1h-89h-89t-112.5 1q-5 2 -8 3.5t-3 8.5zM19 401q43 -1 76.5 -1h62.5h55h55t62.5 -0.5t76.5 -0.5q0 20 1.5 33t3.5 33h-71t-84.5 0.5t-85.5 1.5
t-75.5 1.5t-54.5 1l-21 0.5zM435 223q1 0 -21.5 0.5t-60 1.5t-84.5 1.5t-95 1t-93 0.5t-78 -1q0 28 2.5 47.5t2.5 46.5q0 9 10 11q67 -1 113.5 -1h89h89.5t114 -1q7 -3 8.5 -7t3.5 -12zM416 310q-43 0 -76.5 0.5t-62.5 0.5h-55h-55h-62.5t-76.5 1q0 -20 -1.5 -33t-3.5 -33
h71t84.5 -0.5t85.5 -1.5t75.5 -1.5t54.5 -1l21 -0.5z" />
    <glyph glyph-name="greater" unicode="&#x3e;" horiz-adv-x="428" 
d="M8 176q-1 1 16.5 14.5t44.5 33.5t59 43t60 43.5t47 35t20 16.5q-62 37 -106 60t-73.5 38.5t-46 27t-23.5 24.5q14 14 30 36t22 43q4 7 9 6.5t9 -4.5q4 -2 28.5 -17.5t64.5 -40t92 -56t111 -66.5q5 -9 7.5 -25t2.5 -32t-1 -28.5t-3 -14.5l-23 -16t-57 -40t-73.5 -51.5
t-73.5 -51.5t-56.5 -39.5l-22.5 -15.5q-6 -3 -16.5 4.5t-21.5 18.5t-19.5 22.5t-10.5 17.5q-2 7 4 14zM72 124l21.5 15.5t54 38.5t70.5 49.5t71 49l55 37.5t22 14q1 -1 1 2l-1 -1q-1 1 -0.5 12t0.5 23t-0.5 22t-2.5 11q-64 35 -117 66.5t-91.5 54.5t-60 37t-22.5 15
q-5 -14 -17 -31t-22 -28q7 -7 69.5 -39t168.5 -96q5 -3 5 -8.5t-4 -17.5q1 -1 -17 -15t-45 -34.5t-59.5 -44.5t-60 -45t-46.5 -35t-19 -15q5 -11 18.5 -20t28.5 -17z" />
    <glyph glyph-name="question" unicode="?" horiz-adv-x="482" 
d="M156 160q-32 -2 -50.5 -2t-28 1.5t-12.5 4t-3 6.5v67t-1 86.5t-3 85t-4 63.5q0 3 -1 7t-1 7.5t1.5 6.5t6.5 4q27 -9 59.5 -13.5t65.5 -2.5t64 10.5t55 25.5t38.5 44t15.5 65q0 35 -15.5 58.5t-41.5 37t-59 18.5t-66.5 4t-65.5 -7t-56 -15q-1 3 -12 15.5t-21.5 27
t-14.5 27.5t10 18q39 15 79 25.5t77.5 14.5t72.5 1t65 -15q61 -25 98.5 -71.5t50.5 -100.5t1.5 -109.5t-49 -97.5t-101 -64.5t-154.5 -11.5q1 -15 1.5 -44.5t0.5 -63t-0.5 -64.5t-1.5 -49zM141 405q66 -18 121.5 -8t96 39.5t64.5 72.5t26 91t-19 95.5t-70 85.5
q-60 47 -142 48.5t-194 -37.5q4 -2 9 -8.5t10 -14t10.5 -14.5t9.5 -11q44 10 94.5 16.5t96 -1t79.5 -34.5t45 -83q3 -14 -0.5 -36.5t-16 -46.5t-35 -46t-57 -36t-83 -16t-112.5 15v-2q4 -40 6 -75.5t2.5 -70t0.5 -70.5t-1 -77q7 1 16.5 0t18.5 -1.5t15 -1t6 0.5v17.5v38
t0.5 49t0.5 51t0.5 43.5t1.5 27zM167 7v88q-3 4 -20 7t-36 3t-34.5 -2t-16.5 -6q-2 -8 -1.5 -19.5t1.5 -23t2 -21t2 -13.5q2 -10 16.5 -14t32 -4.5t33.5 1.5t21 4zM150 85l-1 -64h-70v31.5t-1 32.5h72z" />
    <glyph glyph-name="at" unicode="@" horiz-adv-x="1011" 
d="M705 -44q-17 16 -26 41t-13.5 52.5t-4.5 55.5t2 51q-17 -17 -34.5 -28t-38 -19t-43 -14.5t-48.5 -13.5q-23 -6 -48 -10t-50 -4q-11 1 -33.5 0.5t-47.5 2t-47 8.5t-31 19t-22 32.5t-14 36.5q-4 46 13.5 91.5t49 83t72.5 64t84 34.5q51 9 99.5 8.5t98.5 -5.5q-7 36 -29 52
t-52.5 18.5t-67 -5t-72.5 -20t-68.5 -26t-55.5 -22.5q-3 5 -9.5 16.5t-12.5 24t-8.5 24t3.5 17.5q6 10 17 17t24 13t24.5 10t19.5 8q55 26 121 37t127 -1.5t108 -52.5t64 -116q10 -44 12.5 -89.5t1 -91t-5.5 -91.5t-8 -91l1 -1q62 41 94.5 88.5t42.5 97t0 99.5t-33 95
t-55.5 83.5t-68.5 66.5q-30 22 -70 38t-81.5 26t-79.5 15t-62 6q-84 -3 -151 -39t-113 -92.5t-68.5 -126t-17 -141t40.5 -138t105 -115.5q41 -29 94.5 -45.5t102.5 -18.5q27 -1 61.5 4.5t70.5 14.5q5 2 9 0.5t6 -8.5q0 -6 1 -20t2.5 -29t1.5 -28.5t-1 -17.5l-1 -1
q-14 -8 -32.5 -11.5t-38.5 -5t-40.5 -1.5h-36.5q-49 2 -104.5 14t-108 37t-98.5 64.5t-77 97t-43.5 134t2.5 175.5q17 114 61.5 190.5t104.5 123t129.5 66t137.5 17.5q49 -2 112 -10t127 -29t123.5 -58t103 -96.5t65.5 -144.5t10 -202q-3 -36 -19 -78t-39.5 -81.5t-52.5 -73
t-58.5 -53.5t-58.5 -23t-51 18zM438 -110q55 0 129 12q-3 33 -3 64q-35 -9 -67 -14t-59 -5q-11 0 -40 6t-62.5 16t-64 23.5t-44.5 28.5q-44 37 -76.5 76t-52 83.5t-24.5 97.5t7 118q14 75 50.5 132.5t86 96.5t107.5 59t117 20q53 2 110.5 -8.5t112.5 -33.5t104 -59.5
t84 -86.5t52 -114t10 -142q-7 -31 -24 -64.5t-40.5 -64t-52.5 -54.5t-59 -37q2 41 5.5 88t4.5 95.5t-1.5 97t-12 92t-28.5 80t-50 61.5q-32 25 -72 34t-82.5 6t-84 -15t-74.5 -27q-3 -2 -12.5 -6t-21 -9t-22.5 -11.5t-16 -13.5q0 -12 4 -23.5t9 -24.5q27 11 63 25t74.5 24
t77 14t70.5 -4t54.5 -31.5t28.5 -67.5q-106 12 -176 1.5t-114 -33t-68 -50.5t-37 -51q-14 -25 -25 -59t-6 -63q3 -16 12.5 -29.5t22.5 -24t27.5 -17t26.5 -8.5q34 -5 77.5 -3t88.5 10.5t86 23t69 35.5q8 6 13 14l10 16q6 5 12 2.5t6 -9.5q-3 -28 0 -69.5t13.5 -78.5
t30.5 -58.5t52 -9.5q19 7 50 34t61 68t53 94.5t28 114.5q9 126 -27.5 216.5t-107 149.5t-170 89t-217.5 36q-32 4 -73.5 -2t-85.5 -23.5t-87.5 -47.5t-79.5 -76.5t-61.5 -109.5t-33.5 -145t6 -148.5t43.5 -118.5t72 -89.5t91.5 -62.5t101 -37.5t101 -14.5zM659 348
q3 0 6.5 -2.5t3.5 -7.5q-1 -22 0.5 -44t-0.5 -44q-60 -42 -111 -65.5t-92 -34t-70.5 -10.5t-46.5 5q-40 12 -53.5 33.5t-8.5 46.5t23.5 49.5t43.5 42.5q14 11 30 18t30 16q17 9 35.5 15t37.5 10q27 5 49 6t41.5 -3t39 -11.5t41.5 -18.5zM649 263q2 18 0.5 35t-0.5 35
q-8 4 -16 6.5t-17 7.5q-22 13 -52.5 15.5t-64.5 -4t-68 -19.5t-61 -31.5t-44.5 -41t-18.5 -46.5q-1 -11 0.5 -18t5.5 -18q6 -13 20 -18.5t30.5 -7t32.5 0t27 3.5q54 6 113 29.5t113 71.5z" />
    <glyph glyph-name="A" unicode="A" horiz-adv-x="816" 
d="M19 -8q-1 3 12.5 42.5t36.5 102t52.5 142t61 163t62.5 165t56.5 148t43.5 112t23 56.5q-2 5 0.5 9.5t10.5 2.5q9 -1 20.5 -1h23.5t23.5 1t19.5 1q2 0 3 -1q9 2 12 -9q1 -5 10 -36t24.5 -81t36 -115.5t44.5 -138t50.5 -148.5t53 -147.5t53 -135t49.5 -110.5
q-4 -10 -20 -14t-34.5 -4.5t-35 0t-22.5 -0.5q-12 0 -10 10q-10 20 -24.5 59t-31 86t-34 97.5t-32.5 93t-26 72t-16 34.5q-26 -2 -52.5 -1.5t-52.5 0.5t-53 -2t-55 -9q-3 -8 -13 -35.5t-23.5 -64.5t-29 -79t-29.5 -79.5t-25.5 -67t-16.5 -40.5q-8 -15 -15 -33.5t-15 -35.5
q0 -8 -15.5 -10.5t-35.5 -1.5t-39 2.5t-26 1.5zM533 469q-1 -1 8.5 -28.5t24.5 -70.5t34 -96t37.5 -103t34.5 -92t26 -63q7 1 17 2t21 2t21.5 1h18.5q-34 69 -68.5 158t-68 182.5t-63.5 186t-54 169t-39.5 129.5t-20.5 70q-7 0 -17.5 -1t-21.5 -1.5t-21.5 -0.5t-17.5 1
q-6 -11 -23.5 -56t-42 -110t-54.5 -144.5t-60.5 -161t-58.5 -158.5l-50 -137.5t-35.5 -97.5t-13.5 -39q14 0 34.5 -1t35.5 1q12 22 29 63t35.5 90.5t37 101.5t34.5 94.5t28 70.5t17 29q6 1 22.5 2.5t39 2.5t49 2t52.5 2q10 0 23 1t24.5 1h19t6.5 -1zM318 529q-4 -4 1.5 18.5
t16.5 59t25.5 80.5t27 82t21.5 63.5t10 25.5q3 0 10.5 -24.5t17.5 -61t20.5 -79t20 -79t15.5 -60t7 -21.5q-24 -3 -46.5 -4.5t-45 -1.5t-47.5 0.5t-54 1.5zM419 811q-1 -3 -7 -23t-14.5 -49.5t-18.5 -63t-18 -62.5t-13.5 -48.5t-5.5 -20.5q25 0 41.5 -0.5t31 0t31 1.5
t40.5 3q1 2 -3.5 22t-12 49t-16.5 62t-17 61.5t-13 48t-5 20.5z" />
    <glyph glyph-name="B" unicode="B" horiz-adv-x="629" 
d="M17 33q-1 95 -1 208.5t1 228t1 222.5t-1 191v1q1 2 8.5 5.5t17.5 7.5t19 7.5t12 4.5q54 17 118.5 26t120.5 -3q39 -9 73 -19t61 -25t47 -36.5t31 -52.5q12 -32 6 -66t-26.5 -67.5t-53.5 -65.5t-74 -60q-16 -11 -27 -16t-23 -10q61 -7 112.5 -33.5t102.5 -68.5
q20 -17 34 -44t19.5 -60t1.5 -68.5t-20 -69.5t-44.5 -62.5t-72.5 -47.5q-18 -8 -41 -16t-47.5 -15.5t-48.5 -13t-43 -7.5q-61 -8 -121.5 -11.5t-121.5 12.5q-4 1 -11.5 10t-8.5 14zM37 871q1 -95 1 -202t-1 -217t-1 -217.5t1 -201.5l2 1q62 -15 137 -13.5t147 18t132.5 47.5
t94.5 76.5t33 103.5t-52 129q-16 22 -45.5 40t-64.5 32t-72.5 24t-69.5 15q19 11 42 24t46 27q29 17 59.5 44t47.5 56q27 45 34 80.5t-2 62.5t-30 46t-48.5 32.5t-58.5 21.5t-60 12q-27 4 -57 4.5t-60.5 -2.5t-60 -9t-54.5 -16q-11 -5 -20.5 -9.5t-19.5 -8.5zM110 68
q-2 -3 -2 89.5t2 289.5q45 0 76.5 2.5t60 2t60 -7.5t77.5 -26q45 -18 70 -55t29.5 -79.5t-14 -84t-60.5 -67.5q-24 -15 -63 -32t-82 -28.5t-84.5 -14.5t-69.5 11zM107 497q-1 31 -0.5 75.5t2 91.5t2.5 92t1 77q-1 3 24 9.5t60.5 11t74 5t65.5 -8.5q46 -15 65.5 -39.5
t19.5 -53t-16 -59.5t-40 -58.5t-53 -50.5t-55 -35l-23 -11.5t-47 -22.5t-49.5 -20t-30.5 -3zM374 401q-28 11 -58.5 16.5t-62.5 7.5t-64.5 2h-62.5v-182v-104t-0.5 -47t-1.5 -11q26 -9 62.5 -6t74.5 13.5t74 26t62 31.5q42 24 57 61.5t9.5 75t-29 69.5t-60.5 47zM248 571
q58 35 93.5 72.5t48 71.5t3 61.5t-42 43.5t-88 17t-133.5 -18q0 -31 -0.5 -70.5t-1 -81t-1 -81t-0.5 -70.5q13 6 30 13t34.5 14.5t33 14.5t24.5 13z" />
    <glyph glyph-name="C" unicode="C" horiz-adv-x="703" 
d="M632 796q-46 19 -95.5 28.5t-99.5 6t-98.5 -20.5t-93.5 -51q-49 -38 -82 -88t-48.5 -106t-14 -114.5t20 -113t54 -101.5t88.5 -80q54 -32 115 -49.5t124 -12.5q7 1 27 5t42.5 9t42 11t24.5 10q3 -3 10 -13t15 -22t14.5 -23t8.5 -15q5 -4 4 -14q-8 -15 -45 -26t-91.5 -14
t-121 4.5t-132 29t-125 60.5t-101 98.5t-59 142.5t1.5 193q17 98 53.5 169.5t87 119.5t111 75t125.5 35t131 -0.5t127 -30.5q16 -6 23.5 -11t10.5 -9t3 -8t2 -10q-6 -8 -12 -20t-12.5 -22.5t-15 -17.5t-19.5 -4zM31 501q-12 -108 15.5 -189.5t80 -139t123.5 -91.5
t145.5 -48.5t145.5 -10t125 25.5q-9 16 -21 29t-19 28q-17 -12 -46.5 -18t-61.5 -9t-60 -2.5t-41 2.5q-40 7 -85 21t-83 43q-98 74 -143.5 172t-19.5 226q14 65 45 118t74 92.5t95 65t108.5 34.5t114.5 1t113 -34q11 5 19 18.5t16 29.5q-13 13 -44.5 24.5t-75.5 17.5
t-97 4.5t-107 -15t-106 -41.5t-95 -75.5t-73.5 -116t-41.5 -162.5z" />
    <glyph glyph-name="D" unicode="D" horiz-adv-x="620" 
d="M19 932q28 1 81 -1.5t116 -15t130 -39.5t123 -76t94 -123t44 -180q6 -101 -20 -181t-73 -140t-108.5 -100t-127.5 -62t-131 -25.5t-117 9.5l-5 3q-5 -4 -9 -1.5t-4 10.5q0 103 0.5 218.5t1.5 235l2 239t3 229.5zM32 913q0 -102 -0.5 -216.5t-1 -231.5t-1 -231t-0.5 -216
h1q49 -16 112 -13t127.5 25t125 61.5t106 97.5t70 133.5t17.5 168.5q0 80 -23.5 142.5t-63.5 109.5t-94.5 80t-116 53t-128 29t-130.5 8zM86 84q1 2 1.5 35.5t0.5 87v121.5t-0.5 138.5t-0.5 137.5t0.5 120t1 85t2.5 32q43 -2 90.5 -12t93.5 -29.5t88 -49.5t74.5 -70.5
t52.5 -92t21 -115.5q1 -54 -17.5 -107t-50.5 -100t-74.5 -85t-90 -63t-97 -34.5t-95.5 1.5zM492 470q-1 84 -35.5 147t-89.5 106.5t-124 67.5t-138 30q-1 -39 -1 -91v-110.5t0.5 -119.5t0.5 -119v-109.5v-90t-0.5 -61t-1.5 -22.5q41 -5 85.5 5.5t88 33.5t83 57.5t69 77.5
t46.5 93t17 105z" />
    <glyph glyph-name="E" unicode="E" horiz-adv-x="550" 
d="M450 500q-1 -1 -26 -4t-62 -6.5t-80.5 -7t-80.5 -6.5t-62 -4.5t-26 -1.5v-22.5v-55.5v-76v-83.5v-78.5v-61q33 -1 74.5 -0.5t84.5 2t84.5 3t75 3t54.5 1.5t24 -2q6 -5 8.5 -19.5t3 -30.5t-1.5 -30.5t-6 -18.5q-1 0 -2 -0.5t-2 -0.5h-1q-48 0 -97 0.5t-98 -1.5
q-8 0 -33.5 -0.5t-60 -0.5h-72t-69 0.5t-51 1.5t-17.5 2q1 0 1 40t0.5 105.5t1 148.5t1 170t0.5 170.5t1 149t1.5 106t1.5 41.5q111 1 230.5 1t229.5 1q7 2 13 -12.5t8.5 -32.5t0.5 -34.5t-11 -17.5q-98 0 -188.5 -4t-187.5 -5q0 -28 -0.5 -61t-0.5 -66.5v-66.5v-61
q37 1 78.5 2.5t83 2.5t82 2.5t76.5 3.5q7 2 10.5 -11t5 -29t1.5 -30v-15zM98 490q37 1 80 4t87 6t87 6t80 5q-2 11 -3.5 27.5t-3.5 26.5q-9 -1 -37 -2.5t-65 -2.5t-77.5 -2t-74.5 -1.5t-56 -0.5t-22 1v71.5v88t0.5 81.5t2.5 51q0 -1 20 -1t52.5 0.5t73.5 1.5t84 2.5t85 2.5
t75 3l-7 57q-110 -1 -223 0t-222 0q0 -61 -0.5 -134t-0.5 -152.5t-1 -161.5t-1 -161.5t-0.5 -152.5t-0.5 -134q69 2 142.5 0t142.5 0q48 2 96 1.5t96 -0.5q-2 20 -4.5 32t-3.5 32q-98 -3 -197 -6t-197 -5h-1q-11 0 -11 12z" />
    <glyph glyph-name="F" unicode="F" horiz-adv-x="403" 
d="M19 7q-1 2 -1 41v101.5t1 142.5t2 164.5t2 166t2 147.5t2 109.5t2 51.5q60 0 116 -0.5t116 -0.5q59 -2 119.5 0.5t116.5 4.5q2 -2 3.5 -19t1 -36.5t-3 -34.5t-8.5 -11q-48 -1 -95 -0.5t-92.5 -0.5t-91 -4t-91.5 -10q3 -11 4 -40.5t1 -63.5v-65.5v-46.5h231q6 -1 9 -16
t4 -33t0 -35t-3 -21q-57 -1 -117.5 -4.5t-123.5 -4.5q0 -50 -0.5 -113t-1 -128.5t-1 -128.5t-0.5 -112q-2 -5 -5.5 -6.5t-14.5 -1.5t-30.5 1t-52.5 1v6zM102 16q0 50 0.5 114t1 131t1 131t2.5 114q2 -1 30 0t66.5 2.5t80 4t71.5 5.5q-4 15 -4 32v33q-92 2 -142 2.5
t-73.5 0.5t-27 0.5t-3.5 1.5q1 12 1.5 35.5t0.5 51.5t-0.5 57t-0.5 53v39t2 14q49 7 95.5 10.5t92 4.5t92 0.5t97.5 0.5q-2 14 -2.5 29.5t2.5 29.5q-1 0 -26 -0.5t-59.5 -1t-72.5 -1t-66 -0.5q-59 0 -109.5 -0.5t-108.5 -0.5q-1 -50 -1.5 -115.5t-1 -138t-1 -148t-1 -146.5
t-1 -134t-0.5 -110t-0.5 -74t-0.5 -26h37t19.5 -0.5t8 -0.5h1.5z" />
    <glyph glyph-name="G" unicode="G" horiz-adv-x="842" 
d="M812 439q1 -86 -15 -152t-45 -114t-68.5 -81t-84 -53t-92.5 -30t-94 -12q-48 3 -100 15.5t-101.5 38t-92.5 65.5t-72 96.5t-40.5 132t2.5 172.5q15 108 59.5 187.5t107 131.5t138.5 76.5t156 22.5t158 -30.5t145 -82.5q9 0 8 -13q-2 -5 -9 -17.5t-15.5 -25.5t-17 -24.5
t-13.5 -15.5q0 -6 -6 -10q-33 28 -61.5 51t-59.5 40t-68.5 27t-89.5 12q-47 2 -99 -18t-93 -55q-44 -38 -74 -89t-46 -108.5t-17.5 -117t12.5 -115t44 -103.5t77 -81q87 -61 174.5 -58t172.5 63q36 25 60 58.5t38.5 71t21 78.5t6.5 83q-76 1 -150.5 6t-143.5 3q-5 7 -6 18.5
t-0.5 24t1 24t-1.5 19.5q6 2 33 3.5t65 2t83 0t86.5 -1.5t75 -2.5t49.5 -3.5zM441 869q42 0 81.5 -11.5t75.5 -29.5t66.5 -39.5t53.5 -40.5q2 3 4.5 5.5t3.5 5.5q6 9 17.5 24.5t16.5 24.5q-37 24 -71.5 43t-71.5 33.5t-79.5 24t-96.5 13.5q-38 -3 -81.5 -14t-87 -33
t-85.5 -55.5t-75.5 -80.5t-57 -109t-31.5 -140q-8 -80 5 -145.5t40.5 -117t67 -89t85.5 -63t95.5 -39t97.5 -16.5q46 3 93.5 14t91 33t81 54.5t64 78t40.5 104.5t10 134l-3 92q-16 1 -59 2.5t-95.5 3t-106 1.5t-91.5 -3q1 -11 1 -24v-24q5 0 15.5 -0.5t22.5 -0.5t25 -0.5
t22 -0.5q52 -1 104.5 -4.5t103.5 -4.5q0 -55 -5 -100t-18.5 -83.5t-37 -72t-59.5 -65.5q-42 -36 -92 -55t-101 -20t-99.5 15.5t-87.5 50.5q-43 37 -74 77.5t-48.5 86.5t-21.5 99.5t8 118.5q13 71 45 133t78 108t102.5 73t118.5 28z" />
    <glyph glyph-name="H" unicode="H" horiz-adv-x="685" 
d="M22 4q-5 0 -7 1l-2 2q-1 0 -1 1q-1 1 -1 2t-1 3v2q1 34 1.5 91t1 127.5t1.5 149t1.5 155.5t1 147.5t1.5 124.5t2 86t2 33t3 1q27 0 46.5 2t47.5 2q4 -1 4 -10.5t-2 -47t-4.5 -112.5t-2.5 -208q106 0 209 1.5t207 1.5q2 55 2.5 119.5t0.5 120.5t0.5 93.5t1.5 37.5
q1 1 4 0.5t4 -0.5q27 0 46.5 2t47.5 2q1 -46 0 -121t-3 -165t-3 -186.5t0 -185t4.5 -161t12.5 -114.5h-101l-7 3q-5 0 -7 1l-2 2q-1 0 -1 1q-1 1 -1 2t-1 3v2v79v103t0.5 119t0.5 128q-104 9 -208 6t-208 -3q-1 -79 -0.5 -138t1.5 -108.5t2.5 -95.5t2.5 -99q3 -1 5.5 -1
t-4 0t-27 -0.5t-64.5 -3.5zM98 18q-4 46 -5.5 81.5t-2 66.5t0 61t1.5 65t1.5 78t0.5 101q59 -2 115.5 -1t112 1.5t112 -0.5t115.5 -6q0 -67 -0.5 -132.5t-0.5 -124v-106.5v-81h77q-9 48 -12 117.5t-3.5 151t1.5 169t4 171t3 157t0 127.5q-20 -1 -33 -2.5t-33 -1.5v-69.5
t-0.5 -97t-1 -106.5t-0.5 -98v-1q-119 -1 -230 -0.5t-225 -5.5l5 382q-20 -1 -33 -2.5t-33 -1.5q0 -43 -0.5 -113.5t-0.5 -155t-1 -176t-1 -176t-0.5 -155t-0.5 -113.5z" />
    <glyph glyph-name="I" unicode="I" horiz-adv-x="159" 
d="M130 -6q-47 2 -69 2t-31.5 0.5t-11.5 2t-8 7.5v2v913q2 8 17 11t33 4t34 0t21 -1q1 -45 0 -121t-2 -166.5t-1.5 -188.5t1 -187.5t5.5 -163t12 -114.5zM30 14h77q-9 48 -12.5 118.5t-4.5 153.5t0.5 172t3 173t2.5 158t0 126q-20 -1 -33 -2.5t-33 -1.5v-897z" />
    <glyph glyph-name="J" unicode="J" horiz-adv-x="534" 
d="M426 105q-38 -53 -94.5 -78t-118 -25.5t-121 23.5t-103.5 69q9 12 14 18.5t15 17.5q0 1 4.5 5t10 8.5t10.5 8.5t7 6q-1 0 21.5 -11.5t55.5 -24t69.5 -19.5t65.5 2q38 12 61.5 47.5t37 80.5t18 93.5t5.5 86.5q-4 118 -6.5 202t-4.5 141t-3 91t-1 52v24t1 8q13 6 30.5 6.5
t33.5 -1t28 -3t13 -0.5q1 -2 2 -32t1 -76.5v-102.5v-109t0.5 -96.5t1.5 -65.5q2 -30 1 -77.5t-7 -98t-17.5 -96.5t-30.5 -74zM460 450q-1 20 -1.5 55.5t-0.5 80t0.5 92.5t1 93.5t0.5 83v60.5q-17 -2 -36 -0.5t-36 6.5l16 -536q0 -2 -1 -3q-2 -31 -5.5 -66t-10.5 -69
t-20.5 -64.5t-35.5 -54t-54.5 -37t-78.5 -12.5q-21 1 -36 5t-31 10.5t-34 16t-45 20.5l-32 -40q28 -29 72.5 -45.5t93 -20.5t95.5 5.5t82 33.5q15 10 28.5 26.5t17.5 25.5q18 38 29 80t17 85t7 86t-2 83z" />
    <glyph glyph-name="K" unicode="K" horiz-adv-x="591" 
d="M454 -5l-11.5 21.5t-29.5 57t-41.5 81.5t-47.5 93.5t-47 93.5t-41 82.5t-29 59.5t-11 24l-10 -9.5t-21.5 -21.5t-21 -21.5l-9.5 -9.5q-2 -2 -2 -22.5t0.5 -52.5t2 -72t3 -82t3 -81.5t1.5 -70t-1.5 -48.5t-4.5 -17l-114 -1q-2 0 -2.5 29.5t-0.5 80.5v119t0.5 144t0 155.5
t-1 153t-2 138t-3.5 109.5q7 -3 26 -2.5t38.5 1t35 0t16.5 -4.5v-2q-1 -81 0 -169t1 -171q1 1 22 24t53 58.5t70.5 78t75.5 82.5t67 72t46 47q6 12 17 2.5t22.5 -27.5t21.5 -37t15 -26q-2 3 -19.5 -15.5t-44 -48t-57.5 -64.5t-58.5 -65.5t-47 -51t-23.5 -21.5q3 -5 18 -32.5
t36.5 -69t48 -93t53.5 -105t52.5 -104t45 -90.5t31.5 -65t11 -26q-2 -3 -18.5 -4.5t-38 -2t-43 -0.5t-32.5 -1zM509 861l3 2q-8 10 -19 27.5t-28 21.5q-20 -16 -52.5 -50t-69.5 -75t-75.5 -84t-70.5 -78t-54.5 -56t-28.5 -18q-2 40 -3 85.5t-1.5 92.5t0 93t1.5 87
q-14 0 -37.5 -1t-37.5 0q1 -98 2 -212.5t1.5 -232t1 -232t2.5 -212.5l75 1q0 1 -0.5 21t-1 51.5t-0.5 71.5t-0.5 81.5t0 81.5t0.5 70.5t1 48t2 16.5q1 -2 13.5 10t27 27t27 27.5l12.5 12.5q1 0 12.5 -22.5t30.5 -59.5t42.5 -84t48 -96.5t48 -96.5t41.5 -84t29 -59t10 -22
q-2 1 10 0.5t28.5 -0.5t33 1t24.5 5q1 0 -11.5 24t-33 64t-46.5 91t-53.5 104.5t-54 104.5t-47 91t-33.5 64.5l-13 24.5z" />
    <glyph glyph-name="L" unicode="L" horiz-adv-x="562" 
d="M33 18q121 -1 240.5 0.5t240.5 1.5q-2 20 -6 34t-5 34q-98 -3 -198.5 -6t-198.5 -5q-1 -1 -6.5 1.5t-5.5 8.5q-2 23 -2 44.5v34.5v89t0.5 132.5t1 154t1.5 154t1.5 132.5t0.5 89q-20 -1 -33 -2.5t-33 -1.5v-109t0.5 -151t0.5 -174t0.5 -177t0.5 -160.5v-123.5zM13 2
q-1 37 -2 96t-1 130.5t-0.5 150.5t-0.5 156.5t0.5 148.5t0.5 125t0.5 87t0.5 35q3 3 15.5 3.5t28.5 1t33 0.5t28 1q0 -34 -0.5 -97t-1.5 -142t-1.5 -166t-0.5 -169t1 -151t4 -111q97 2 196 3.5t196 3.5q7 -2 11.5 -13t7.5 -25.5t4.5 -29.5l2.5 -25q-1 -5 -7.5 -9.5
t-11.5 -5.5q-124 -1 -251 -1.5t-252 3.5z" />
    <glyph glyph-name="M" unicode="M" horiz-adv-x="780" 
d="M559 931q8 0 32.5 0.5t52.5 1t53.5 1t35.5 0.5q1 -47 0 -122t-2 -163t-1.5 -183.5t0.5 -183.5t5 -162.5t13 -121.5h-21.5h-39.5t-38 1t-18 3l-11 803q-16 -31 -37.5 -73.5t-44.5 -88.5t-45.5 -90.5t-40 -80.5t-29 -58l-11.5 -22q-3 -3 -16 -4.5t-28.5 -2.5t-29.5 -0.5
t-19 2.5q0 -1 -15 29t-37.5 75.5t-49 99.5t-49 101t-38.5 79t-18 34q0 -51 0.5 -120t1.5 -146t2.5 -157t2 -152.5t0 -132.5t-1.5 -97l-2 -2q-1 0 -3.5 -0.5t-13 -0.5t-32.5 -0.5t-62 -0.5q1 0 1.5 29.5t0.5 80.5v118.5t-0.5 143.5t-0.5 155.5t-0.5 154.5t-1 141t-1.5 115
h34.5t50.5 -0.5t49 -1t32 -0.5q5 -11 16 -35t26 -57t33.5 -71.5t38 -78t39.5 -78t38 -70.5q2 1 14.5 25t31.5 60.5t41.5 81.5l44 88t40 79t28.5 55zM571 909q-11 -21 -30 -58t-41 -80t-44.5 -87t-41 -79.5t-30.5 -58t-13 -21.5q-12 -4 -17.5 -4t-8.5 5q-27 46 -57 103.5
t-56 113t-46 101.5t-29 69h-26.5h-41t-41 0.5t-27.5 0.5q0 -30 1 -77.5t2 -103.5t2 -116.5t1.5 -116.5t1 -103.5t0.5 -77.5v-34v-59.5t-0.5 -70.5t-0.5 -67.5t-0.5 -50.5l-0.5 -20l73 -3q0 37 -0.5 98.5t-1 135.5t-1 156t-1 160t-1 147t-0.5 118q0 1 4.5 0.5l9 -1t8.5 -1
t4 1.5q57 -118 103 -210q19 -39 38 -77t33.5 -68t23.5 -48.5l9 -18.5h12t22 -0.5t22 -1t12 -1.5l-1 -1q3 0 2 1q-1 0 11 25t31 64t43 87.5t47.5 96t44.5 89.5t35 68l26 1l13 -817h77q-8 49 -11.5 119t-4.5 151.5t0.5 168.5t3 170.5t2 157.5t-0.5 129q-8 0 -28.5 -1
t-43.5 -1.5t-43.5 -1.5t-27.5 -1z" />
    <glyph glyph-name="N" unicode="N" horiz-adv-x="647" 
d="M466 -4q-4 8 -18 40t-36 80t-49.5 107.5t-57 123t-59.5 127t-56.5 119.5t-48.5 100t-36 68q-2 -1 -1.5 -34.5t2 -87t4 -122.5t5.5 -140t5.5 -139t4.5 -121.5t3.5 -85.5t0.5 -31l-4 -2q-1 -1 -15.5 -1t-34 0.5t-38.5 0.5h-28q-5 -2 -7 3.5t1 10.5v39.5t-0.5 104t-0.5 147
v168.5v168.5t0.5 147.5t0.5 104.5v39.5q2 2 22.5 3t46 1t48.5 -0.5t29 -1.5q0 1 15 -29.5t39 -81.5t54.5 -116t63 -133t63.5 -134t55.5 -117.5t40.5 -84t17 -34.5q0 50 -0.5 112.5t-0.5 130t-0.5 136.5t-0.5 132.5v117v90.5q3 3 5 6.5t14 5.5l99 -2q-1 0 -1.5 -29.5
t-1.5 -80.5t-1.5 -118.5t-1 -143.5t-0.5 -155.5v-154.5v-141t1 -115h-31t-42 0.5t-41 1t-28 0.5zM477 15q7 0 22.5 -0.5t32.5 -0.5h33h24q1 39 1 98.5t0.5 130.5t0.5 148v151t-0.5 141.5t-0.5 118v80v29.5l-75 3v-92.5t-0.5 -121t-0.5 -137v-140.5v-132v-112q-5 -9 -9 -12
t-8.5 1t-11.5 15.5t-18 30.5q-91 195 -163 349q-31 65 -60.5 128t-52.5 112t-37 79.5l-14 30.5h-20t-39.5 0.5t-39.5 1t-19 1.5l1 1q-3 0 -2 -1l0.5 -39t0.5 -102v-144v-165v-164.5v-143.5t-0.5 -101.5l-0.5 -38.5q20 1 38 2q15 0 29 -0.5t20 -2.5q1 0 0 33t-2.5 87
t-3.5 122.5t-4 140t-4.5 140t-4 121.5t-2.5 85.5t0 31.5q25 9 32 -1q14 -23 35.5 -65.5t48 -96.5t56 -116.5t58.5 -125.5t56 -122.5t48.5 -108t36.5 -82.5t19 -45z" />
    <glyph glyph-name="O" unicode="O" horiz-adv-x="869" 
d="M434 93q53 -2 104.5 15.5t98.5 58.5q44 38 73.5 88.5t43.5 106.5t13 115t-17.5 113.5t-49 101.5t-79.5 81q-81 56 -180 59q-84 -3 -151 -41t-113 -96.5t-68.5 -131.5t-17 -146.5t40.5 -142t105 -117.5q41 -29 94.5 -45.5t102.5 -18.5zM435 12q59 0 124 19.5t121.5 67
t98.5 128t54 204.5t-17 214t-85.5 148.5t-132.5 87t-157 29.5q-32 3 -73.5 -2.5t-85.5 -23t-87.5 -47.5t-79.5 -76.5t-61.5 -109.5t-33.5 -145q-12 -124 23.5 -215.5t98 -152.5t141 -92t152.5 -34zM436 -10q-49 2 -104.5 15.5t-108 41t-98.5 70.5t-77 103t-43.5 138t2.5 177
q17 114 61.5 190.5t104.5 123t129.5 66t137.5 17.5q49 -2 102.5 -14.5t103.5 -38.5t93 -66.5t72 -99t39.5 -135.5t-4.5 -176q-17 -114 -58 -193t-96.5 -128.5t-122 -71t-133.5 -19.5zM435 69q-11 0 -40 6t-62.5 16t-64 23.5t-44.5 28.5q-44 37 -76.5 79.5t-52 91.5
t-24.5 105.5t7 121.5q14 75 50.5 132.5t86 96.5t107.5 59t117 20q74 -2 141 -31.5t116 -85t73 -136t11 -183.5q-14 -75 -48 -138t-80.5 -109t-102.5 -71.5t-114 -25.5z" />
    <glyph glyph-name="P" unicode="P" horiz-adv-x="554" 
d="M2 922q89 12 156 12t113.5 -5.5t73 -12.5t33.5 -9q35 -12 70 -30.5t60 -47.5q26 -31 35 -70t3 -78.5t-26.5 -75t-53.5 -57.5q-45 -31 -88.5 -53t-86.5 -36.5t-87 -22.5t-90 -12q0 -54 0.5 -113t1.5 -117t2 -109.5t1 -90.5q-28 0 -47.5 2t-46.5 2q-2 0 -3 1q-6 0 -8 9
q0 44 -1 117t-2 159.5t-3 180t-3 180.5t-2 159.5t-1 117.5zM114 831v-37.5v-46t-0.5 -50.5t-0.5 -50q-1 -57 -2 -120q12 2 49 9t82 19.5t88.5 31t68.5 44.5q38 39 43 72t-12.5 58.5t-52.5 42t-77 23.5q-18 3 -41.5 4t-48 1t-48.5 -0.5t-42 -0.5h-2h-4zM96 439q44 2 93 12
t97 27t93 40t83 50q44 40 61 86.5t6 90.5t-50 83t-106 65q-34 13 -84 18t-101 5t-97 -3.5t-73 -6.5q0 -43 1 -113.5t3 -155t4 -175.5t4 -175.5t3 -155t1 -113.5q20 0 33 -1.5t33 -2.5q0 50 -0.5 104t-1 109t-1 109t-1.5 103zM93 850q51 0 102.5 1t105.5 -7q45 -6 85 -26.5
t61 -51.5t15.5 -70t-51.5 -82q-27 -26 -64 -43t-79 -28.5t-86 -20.5t-86 -19z" />
    <glyph glyph-name="Q" unicode="Q" horiz-adv-x="892" 
d="M589 132q-43 46 -65 70.5t-32 35.5t-10.5 12.5l-0.5 1.5q-2 3 8.5 15t24 25.5t24 24.5t8.5 13l49.5 -48t27.5 -26.5t21.5 -20.5t31.5 -28q52 60 74.5 138.5t15.5 158.5t-43 151.5t-102 118.5q-81 56 -180 59q-84 -4 -151 -41.5t-113 -96t-68.5 -131.5t-17 -147
t40.5 -142.5t105 -117.5q41 -29 94.5 -45.5t102.5 -18.5q25 -1 45.5 0t38.5 5.5t35.5 12.5t35.5 21zM666 81q14 -10 24.5 -22t25 -29t36.5 -41.5t58 -60.5q4 6 11.5 14t15.5 16.5t16 15.5t14 10q-23 17 -41.5 33.5t-36 33t-35 34l-37.5 37.5q19 22 38 55.5t34.5 74t27 86.5
t16.5 94q12 124 -17 214t-85.5 148.5t-132.5 87t-157 29.5q-32 4 -73.5 -2t-85.5 -23.5t-87.5 -47.5t-79.5 -76.5t-61.5 -109.5t-33.5 -145q-12 -124 23.5 -215.5t98 -153t141 -92.5t152.5 -34q60 1 115.5 16.5t115.5 52.5zM666 54q-28 -20 -54.5 -32.5t-54 -20t-57.5 -10
t-64 -1.5q-49 2 -104.5 15.5t-108 41.5t-98.5 70.5t-77 103t-43.5 138.5t2.5 177q17 114 61.5 190.5t104.5 123t129.5 66t137.5 17.5q49 -2 102.5 -14.5t103.5 -38.5t93 -66.5t72 -99t39.5 -135.5t-4.5 -176q-13 -86 -37 -159t-61 -118q19 -21 36 -38t33.5 -33t33.5 -31.5
t37 -34.5q5 -4 4 -10t-7 -8q-3 -1 -13.5 -10.5t-22 -21t-21.5 -22.5t-11 -15q-31 21 -52.5 43t-38 42.5t-30.5 38t-30 28.5zM622 131q-37 -28 -84.5 -45t-102.5 -17q-11 0 -40 6t-62.5 16t-64 23.5t-44.5 28.5q-44 37 -76.5 80t-52 92t-24.5 105.5t7 121.5q14 75 50.5 132.5
t86 96.5t107.5 59t117 20q74 -2 141 -31.5t116 -85t73 -136t11 -183.5q-6 -30 -16.5 -64t-24.5 -66.5t-30.5 -61.5t-33.5 -48q-18 19 -33 34.5t-29.5 29.5t-30 29t-34.5 35q-8 -13 -20.5 -24.5t-24.5 -22.5z" />
    <glyph glyph-name="R" unicode="R" horiz-adv-x="592" 
d="M117 522q25 0 64.5 8t81 21.5t79 31.5t57.5 39q38 39 43 72t-12.5 58.5t-52.5 42t-77 23.5q-18 3 -41.5 4t-49 1t-50.5 -0.5t-46 -0.5v-71.5t1 -78t2 -78.5t1 -72zM349 474q3 -5 15.5 -27.5t30 -56t38.5 -75t42.5 -84t41.5 -83t35.5 -72.5t25 -52t8.5 -21
q-2 -3 -18.5 -4.5t-38 -2t-43 -0.5t-32.5 -1q-2 -1 -16.5 31t-35 80.5t-43.5 105.5t-43 106.5t-34 83t-15 35.5q-16 -4 -35.5 -8.5t-40 -8t-40.5 -7t-37 -4.5q0 -54 2 -110.5t4 -110.5t4 -102.5t2 -87.5h-26t-37.5 1t-34 3t-14.5 6q0 45 -1 117.5t-2 158.5t-3 179t-3 179.5
t-1.5 158.5t0.5 117q33 7 76.5 11t91 3t97 -7.5t94 -19.5t82.5 -34t63 -51q39 -47 40.5 -96.5t-24 -96t-72 -86.5t-103.5 -67zM93 841q51 0 102.5 1t105.5 -7q45 -6 85 -26.5t61 -51.5t15.5 -70t-51.5 -82q-27 -26 -64 -43t-79 -28.5t-86 -20.5t-86 -19zM323 484
q48 16 89 45t68.5 65t39 76.5t1 79.5t-46 73.5t-101.5 60.5q-34 13 -82 19.5t-92.5 8.5t-75.5 2h-32l-69 -9q0 -43 1 -113.5t2 -154.5t3 -175.5t3 -175.5t2 -154.5t1 -113.5q20 0 36.5 0.5t36.5 -0.5q0 100 -4.5 206.5t-6.5 205.5q15 0 34.5 2t40.5 5t41.5 7t35.5 9l24 8
q1 0 9.5 -19t22 -50.5t30.5 -71.5t35 -82t35 -82.5t30 -71.5t20.5 -50t6.5 -19q-2 1 10 0.5t28.5 -0.5t33 1t24.5 5q1 0 -9 19.5t-26 52t-37 74t-43.5 85t-43.5 85.5t-37.5 74.5t-27 52.5z" />
    <glyph glyph-name="S" unicode="S" horiz-adv-x="590" 
d="M466 58q-51 -29 -108.5 -42.5t-115.5 -16t-114 4t-104 17.5q-4 5 -3.5 23.5t5 38t12.5 33.5t20 11q29 -14 74 -20t94 -2.5t96.5 18t83 40.5t53 64.5t6.5 90.5q-9 42 -34 68t-60 41.5t-76.5 24t-83 16.5t-80.5 18t-68.5 29t-47 49.5t-16.5 79.5q1 29 6.5 61t18.5 57
q43 82 108.5 123t141 48.5t154 -15.5t146.5 -68q3 -5 -4 -21.5t-18 -33t-23.5 -27.5t-19.5 -5q-68 40 -127 53t-107 6.5t-83 -28t-56 -48.5q-25 -34 -34.5 -60.5t0 -47t39 -35.5t83.5 -25q43 -8 77 -14.5t65.5 -16.5t63 -24.5t67.5 -39.5q34 -23 53.5 -57.5t26.5 -74.5
t2 -83t-20 -82.5t-39 -73t-54 -54.5zM54 111q-5 -17 -10 -38t-8 -35q35 -15 89 -20.5t112 -1.5t112.5 17t91.5 33q29 16 53 46t40 67t23.5 78.5t3.5 80.5t-20 72.5t-46 55.5q-36 24 -68 38t-64 23.5t-66.5 16.5t-75.5 18q-2 1 -20 3t-40.5 8.5t-45 19t-33 34t-4 53
t41.5 76.5q39 51 90.5 70.5t105.5 17t107 -21.5t95 -44h1q5 3 15.5 22t21.5 37q-63 44 -136.5 64.5t-144.5 13t-133 -46.5t-101 -115q-12 -24 -18.5 -55t-4 -62.5t16 -60t42.5 -48.5q30 -19 70.5 -29t84 -18t86.5 -16.5t78.5 -25t59.5 -44.5t29 -73q6 -53 -5 -91t-34 -63.5
t-55.5 -40.5t-69.5 -23.5t-76 -11.5t-75 -5q-7 0 -21.5 1.5t-31 4.5t-33.5 8t-30 11z" />
    <glyph glyph-name="T" unicode="T" horiz-adv-x="396" 
d="M328 -6q-43 1 -65.5 1.5t-33.5 1t-13.5 1t-4.5 2.5q-1 0 -1 1q-1 44 -1 109v141.5t0.5 158.5t1.5 159.5t1 144.5v114q-17 2 -51.5 1t-69.5 -2t-61.5 -1.5t-26.5 2.5v104h60h87h101.5h103.5t92 0.5t69 0.5q0 -13 -0.5 -29.5t-1 -32t-1 -27t-1.5 -14.5l-7 -2h-39h-18.5
h-11.5h-17h-35h-66q-2 -101 -4.5 -206t-3.5 -211t2.5 -211t15.5 -206zM305 14q-8 49 -11.5 115t-4 140.5t1 154t4 155.5t4 145t0.5 124h61h40h26h20h22h31v69q-116 0 -238.5 -1.5t-237.5 -2.5q1 -20 0.5 -33t-0.5 -33q36 0 90 0.5t117 0.5q1 -44 1 -110.5v-144.5t-0.5 -161
t-1.5 -161t-1 -145v-112h77z" />
    <glyph glyph-name="U" unicode="U" horiz-adv-x="663" 
d="M624 363q-2 -44 -8 -95t-24 -98.5t-52.5 -88t-93.5 -63.5q-74 -29 -150.5 -32.5t-139.5 20t-104 74t-45 128.5q-2 29 -3 87.5t-2 131t-1 151v149.5t0.5 126t1.5 79q30 0 52 1t42 1h1l4 -2l1 -1q1 -24 1 -82.5v-134t1 -160t4.5 -159.5t9 -133t15.5 -81q10 -24 24 -39.5
t33 -24.5t43 -14t55 -8q48 -5 83.5 6t59.5 29.5t38 39.5t19 37q10 32 17.5 84.5t12 116.5t7 135t4 141t1 134.5t-1.5 115.5q7 0 23.5 1.5t33.5 2t31 -1.5t17 -9q0 -16 -1 -59.5t-1.5 -101t-1.5 -121.5t-2 -121.5t-2 -101t-2 -59.5zM604 365q1 15 2 57.5t2 98.5t2 119
t1.5 119.5t1.5 99t1 57.5q-17 0 -34.5 -1t-34.5 -1q2 -48 3 -116.5t0 -145t-4.5 -154.5t-9.5 -145t-15.5 -116.5t-22.5 -68.5q-17 -24 -35 -41t-42.5 -28.5t-57.5 -17t-78 -5.5q-17 0 -43 6t-51 16t-45.5 23.5t-26.5 28.5q-12 28 -19 87t-11 134t-5 158.5t0 159t2 135.5
t2 90q-16 -1 -31.5 -1.5t-31.5 -0.5q-1 -27 -1.5 -82t-0.5 -124t0.5 -145t1 -145.5t1.5 -124.5t3 -82q5 -74 43 -120t94.5 -66.5t125.5 -16.5t136 30q43 16 75 39t53 60.5t33 93t17 136.5z" />
    <glyph glyph-name="V" unicode="V" horiz-adv-x="765" 
d="M810 929q8 8 20 1.5t23 -19t19.5 -27t10.5 -21.5l-17.5 -36.5t-47 -97t-66.5 -137t-76 -157t-76.5 -157.5t-67 -137t-47.5 -97l-18 -37q-3 -3 -16 -4.5t-28.5 -2.5t-29.5 -0.5t-19 2.5q-17 28 -42.5 79.5t-54.5 116.5t-60.5 139.5t-62 148t-58 141t-48.5 120l-34 85
t-14 34.5q-4 4 -4.5 9t6.5 9q21 6 43.5 23.5t36.5 31.5q2 1 14 -26.5t30.5 -74.5t42.5 -109t50.5 -129.5t54.5 -137t54 -131.5t49.5 -112t40.5 -79q1 1 18.5 35.5t45 90t62 126.5t70.5 145t70 144.5t61 125t43.5 88t17.5 32.5zM858 867q-8 12 -17 25t-20 18q-1 0 -18 -34
t-44.5 -90t-62.5 -126.5t-71 -144.5t-71 -145t-62.5 -126t-44 -88.5t-17.5 -32.5q-12 -4 -17.5 -4t-8.5 5q-16 26 -38 73.5t-47 107t-52 127t-52.5 134.5t-49 128t-41.5 108.5t-29 76t-13 30.5q-11 -10 -28 -22t-31 -17l12 -30t32 -79.5t46 -115t55.5 -136.5t60 -144.5
t59 -139t53 -118.5t42.5 -85q1 -2 11 -2.5t22 -0.5t22.5 0.5t12.5 -0.5l-1 -1q3 0 2 1l17 36.5t45.5 96t64.5 135.5t74.5 155t75 154.5t65 135t46.5 95.5l18 36v4z" />
    <glyph glyph-name="W" unicode="W" horiz-adv-x="1141" 
d="M1168 931q7 6 14 4q6 -2 16 -7.5t19.5 -14t17 -20t10.5 -26.5l-17.5 -37t-47 -97t-66.5 -137.5t-76 -158t-76.5 -157.5t-67 -137.5t-47.5 -97.5l-18 -37q-3 -3 -17 -4.5t-30.5 -2t-30 0t-15.5 1.5q-18 29 -36.5 63t-36.5 69.5t-35 70t-32 64.5l-44 -88t-42 -85
q-22 -46 -43 -89q-4 -3 -17 -5t-28 -2.5t-28.5 0t-19.5 2.5q-17 28 -42.5 79t-54.5 116t-60.5 139t-62 147t-58 140.5t-48.5 120t-34 84.5t-14 34q-4 4 -4.5 9t6.5 9q21 6 43 22t36 30q7 3 13 -1.5t5 -12.5q1 -1 12.5 -29.5t29.5 -76t41 -109t49 -128.5t53 -135t51.5 -128
t46 -107.5t36.5 -74.5q5 5 19.5 33t33 67t39.5 82.5t39 80.5t31.5 61t16.5 24q9 4 14 -3q20 -40 38.5 -81t38 -84t42 -88t50.5 -92q1 1 18.5 36t45 91.5t62 128.5t70.5 147t70 147t61 127.5t43.5 89.5t17.5 33zM1220 871q-8 12 -17 25t-20 18q-1 0 -18 -34.5t-44.5 -91.5
t-62.5 -129t-71 -147t-71 -147t-62.5 -128t-44 -90t-17.5 -33q-12 -4 -17.5 -4t-8.5 5q-29 46 -49.5 89t-38.5 84.5t-36.5 81t-42.5 80.5q-11 -21 -27.5 -53.5t-34.5 -69t-36 -73.5t-33 -67t-25.5 -50t-12.5 -23q-12 -4 -17.5 -4t-8.5 5q-16 26 -38 74t-47 108t-52 128
t-52.5 135t-49 129t-41.5 109.5t-29 76.5t-13 31q-11 -10 -28 -22t-31 -17l12 -29.5t32 -79t46 -114.5t55.5 -136t60 -143.5t59 -138t53 -118.5t42.5 -85q1 -2 11 -2.5t22 -0.5t22.5 0.5t12.5 -0.5l-1 -1q3 0 2 1q1 -1 12 20.5t26.5 55t34 73t34 73.5t26 56.5l10.5 22.5h1
q0 1 1 2h3q26 -68 64.5 -146.5t80.5 -153.5q1 -2 11 -2.5t22 -0.5t22.5 0.5t12.5 -0.5l-1 -1q3 0 2 1l17 36.5t45.5 96.5t64.5 136t74.5 155.5t75 155.5t65 135.5t46.5 95.5l18 36v4z" />
    <glyph glyph-name="X" unicode="X" horiz-adv-x="805" 
d="M80 932q28 -47 56 -90.5t61.5 -90.5t75.5 -101.5t98 -122.5l317 405q6 5 18.5 -1.5t26 -17t26 -22t18.5 -16.5q-19 -23 -53.5 -68t-79.5 -103t-98 -124t-108 -132q55 -66 108 -127.5t98 -113.5t79.5 -92.5t53.5 -63.5q-19 -16 -37 -32t-40 -27q-77 84 -131.5 145t-91 103
t-58 67.5t-32.5 39t-13.5 17.5l-2.5 4q-106 -128 -179.5 -225t-111.5 -149l-85 77q0 2 -0.5 2t-0.5 1l310 373q-2 1 -24.5 32.5t-62.5 86t-97 128t-128 159.5zM367 396q0 1 1 0t9.5 -11t28.5 -33t56.5 -65.5t93.5 -108.5t141 -163q15 13 26 20t27 19q-75 92 -128.5 155.5
t-90 106t-58.5 67t-34.5 37.5t-18 18.5t-8.5 9.5q1 1 3 3.5t11.5 14t30 37t57.5 72t94.5 119t141.5 178.5q-16 12 -27 19t-26 20q-20 -23 -52.5 -66.5t-75 -99t-93 -120t-104.5 -128.5q1 2 0 2t0 -2l-1 -1q-85 101 -140 174t-88 121.5t-48 75t-20 35.5l-59 -50l317 -404
l-317 -374l59 -50q-1 0 20.5 27.5t54 68.5t70.5 89t71 89t54.5 69t21.5 29z" />
    <glyph glyph-name="Y" unicode="Y" horiz-adv-x="570" 
d="M309 439q-79 96 -133 164.5t-88.5 115.5t-53.5 74.5t-27.5 42.5t-10 19.5t-1.5 5.5l85 77q13 -22 39.5 -60.5t58 -84t65 -92t61.5 -84.5t46.5 -63t20.5 -27l317 411q8 6 21 -0.5t26.5 -17.5t25 -22.5l16.5 -16.5q-13 -20 -44.5 -60.5t-70.5 -89t-81 -100.5t-76.5 -93.5
t-57.5 -68t-23 -25.5q-1 4 -2.5 -19.5t-2.5 -63.5t-2 -91t-1.5 -102t-1 -96.5t-0.5 -75.5q-5 0 -22.5 0.5t-37 1t-36 1.5t-17.5 2q0 5 0.5 27.5t1.5 57.5t2.5 79t2.5 91t1.5 94t-0.5 89zM405 450l345 428q-16 12 -27 19t-26 20q-20 -23 -52.5 -67.5t-75 -101.5t-93 -122
t-104.5 -129l-1 -1l-296 412l-59 -50q2 -5 25.5 -36t57.5 -75.5t73 -95t72.5 -94t56.5 -74t25 -33.5q0 -61 -0.5 -112t-1 -101t-1 -102t-0.5 -115q20 0 36 -1.5t36 -2.5z" />
    <glyph glyph-name="Z" unicode="Z" horiz-adv-x="684" 
d="M538 827q0 -1 -37 -4t-92.5 -6t-120 -7t-121 -8t-95.5 -7t-42 -5q-2 7 -5.5 26.5t-6 42t-3.5 43t1 28.5q67 0 121.5 0.5t103 1.5t93.5 2t93 2t102.5 1h122.5q8 -31 7 -63t0 -64q0 -3 -23.5 -35t-63 -82t-90.5 -113t-104 -129t-104.5 -129t-92 -112.5t-66.5 -81t-28 -33.5
q85 4 153.5 6.5t133 4.5t131 3t149.5 1q-4 -17 -3 -30.5t2.5 -26t1.5 -25t-6 -26.5q-71 -2 -127 -2h-104t-92 1t-91 1h-101t-123 -2q-3 17 -5 43.5t-3.5 52t-1.5 44t1 19.5q2 1 26 29.5t63 75t87.5 106t98.5 121.5t98 121.5t85 106.5t58.5 76.5t19.5 31.5zM635 920
q-69 -1 -121.5 -2t-97 -2t-84.5 -2t-84 -1.5t-95.5 -1.5t-117.5 -1q2 -9 1.5 -21t-1 -24.5t0 -25t3.5 -21.5q42 1 107 4t138 7.5t147 9.5t134 10h1q2 -1 6 -7t5 -4l-558 -695q-3 -11 -3 -26.5t1.5 -33t4.5 -34.5t5 -29q70 2 123 2t97 -0.5t84 -1.5t84 -1.5t96.5 0t122.5 2.5
q0 16 -1 23.5t-1.5 13t-0.5 13t1 23.5h-1q-62 -2 -110 -3.5t-89.5 -3t-79.5 -2.5t-79.5 -2.5t-90 -3t-109.5 -3.5q-5 1 -7 5.5t-2 10t2 10t7 6.5q1 0 26.5 30t65.5 79t90.5 111.5t103 127.5t103 128t90 112t63.5 79.5t24 31.5q-1 28 0 57t-4 56z" />
    <glyph glyph-name="bracketleft" unicode="[" horiz-adv-x="269" 
d="M228 940q5 -11 7 -27t3 -31.5t0.5 -28t-1.5 -16.5q-20 -6 -51.5 -5.5t-58.5 -4.5q-1 -56 -2 -127.5t-2 -149.5t-1.5 -157.5t-0.5 -149.5t1 -127t4 -90q6 1 23.5 5.5t36.5 6.5t35 0.5t19 -10.5q-3 -27 -1 -58t-4 -50q-83 2 -126 1.5t-62.5 -0.5t-22.5 1t-5 6v2v86
t0.5 118.5t1 140.5t1 151.5t1 151t1 140t0.5 119v86.5q2 9 8 9q1 1 3 1q13 0 41.5 0.5t58.5 1.5t56.5 2.5t36.5 2.5zM108 8q-4 37 -5.5 96t-1.5 131t1.5 153t3 161.5t3 157t2.5 140.5q10 0 26.5 1l33 2t29 1t15.5 -2q0 4 -0.5 15t-1 23t-1.5 21.5t-3 11.5q-10 0 -33 -1.5
t-49 -2.5t-49.5 -2t-33.5 -1q0 -43 -0.5 -120t-1 -171.5t-1 -197t-1 -197t-1 -171.5t-0.5 -120q64 2 99.5 3t52 2t20.5 1.5t6 0.5q3 40 3 78q-10 -1 -26 -4t-33 -6t-31.5 -4.5t-21.5 1.5z" />
    <glyph glyph-name="backslash" unicode="\" horiz-adv-x="559" 
d="M444 -16q-9 -2 -12 4t2 12q-5 7 1 13q-4 18 -12 34t-15 33q-14 34 -43 91t-66 126t-77.5 143.5t-78.5 142.5t-69.5 124t-48.5 88q-9 0 -12 6t4 13q13 9 23.5 14t20.5 9t19.5 7.5t21.5 9.5h3q6 2 12 -4q21 -40 54.5 -103.5t74.5 -139t84.5 -157t84.5 -157t74.5 -139
t54.5 -102.5l1 -2v-5v-1q1 -1 -1 -3q-1 -1 -6 -4l-4 -6zM524 48q-20 38 -53.5 100.5t-73.5 137t-83.5 154.5t-83.5 154.5t-73 137t-53 100.5q-18 -10 -30.5 -14.5t-30.5 -12.5q14 -26 42 -77t62.5 -113.5t72 -131t72 -131.5t61.5 -113.5t41 -77.5q6 -11 15.5 -29t19 -39
t17 -42t9.5 -38z" />
    <glyph glyph-name="bracketright" unicode="]" horiz-adv-x="273" 
d="M30 940q10 -1 36.5 -2.5t56.5 -2.5t58 -1.5t42 -0.5q2 0 3 -1q6 0 8 -9v-86.5t0.5 -119t1 -140t1 -151t1 -151.5t1 -140.5t0.5 -118.5v-86v-2q-2 -5 -5 -6t-22.5 -1t-63 0.5t-125.5 -1.5q-6 19 -4 50t-1 58q3 9 19 10.5t35 -0.5t36.5 -6.5t23.5 -5.5q2 33 3.5 90t1.5 127
t-0.5 149.5t-1.5 157.5t-2 149.5t-2 127.5q-27 5 -58.5 4.5t-51.5 5.5q-1 4 -1.5 16.5t0.5 28t3 31.5t7 27zM150 8q-7 -3 -21.5 -1.5t-31.5 4.5t-33 6t-26 4q0 -38 3 -78q2 0 6 -0.5t20.5 -1.5t51.5 -2t100 -3q0 43 -0.5 120t-1 171.5t-1 197t-1 197t-1 171.5t-0.5 120
q-10 0 -33.5 1t-49.5 2t-49 2.5t-33 1.5q-2 -2 -3 -11.5t-1.5 -21.5t-1 -23t-0.5 -15q3 2 15.5 2t29 -1l33 -2t26.5 -1q1 -64 2.5 -140.5t3 -157t3 -161.5t1.5 -153t-1.5 -131t-5.5 -96z" />
    <glyph glyph-name="asciicircum" unicode="^" horiz-adv-x="433" 
d="M217 747q1 -1 -8.5 -13.5t-24 -31t-32.5 -40t-34 -40t-27 -31t-12 -12.5q-14 14 -33.5 28t-40.5 20q-8 6 2 18t32.5 37.5t55.5 68t72 108.5q2 0 15 -0.5t28.5 -1.5t29 -4t18.5 -7l11 -14.5t27.5 -36.5t35.5 -47t35.5 -46.5t27 -36l10.5 -14.5q3 -6 -3.5 -15t-16.5 -18
t-21.5 -16.5t-18.5 -9.5q-5 -2 -15 8t-22.5 25.5t-26.5 35t-26.5 37l-22.5 31.5t-15 18zM388 647q-1 0 -12 13.5t-27 34.5t-35 45.5t-35 45.5t-26.5 35t-9.5 14q1 1 -2 1l1 -1q-2 -1 -12.5 -0.5t-22.5 0.5h-22t-11 -2q-51 -72 -80.5 -110.5t-45 -56t-20 -20t-5.5 -3.5
q14 -5 30.5 -17t27.5 -22q2 2 12.5 15.5t25 32.5t31 40t31 39t24.5 30t12 12q4 0 13.5 -11.5t22 -28.5t26.5 -37.5t27 -38.5t23.5 -30.5t15.5 -14.5q11 4 23 12t20 23z" />
    <glyph glyph-name="underscore" unicode="_" 
d="M568 -1q1 0 -31.5 0.5t-84.5 0.5t-116.5 0.5t-127.5 0t-117.5 -0.5t-87.5 -1q0 28 2.5 47.5t2.5 46.5q0 9 10 11q134 -2 269 1t270 1q7 -3 8.5 -7t3.5 -12zM549 86q-130 2 -260.5 -1t-260.5 -1q0 -20 -1.5 -33t-3.5 -33h80.5h109h118t108 -0.5t79 -0.5h30.5z" />
    <glyph glyph-name="grave" unicode="`" horiz-adv-x="308" 
d="M92 859q3 2 9 -1t25 -21t57 -57t105 -110q2 -6 -7 -17t-21.5 -21.5t-24.5 -18t-16 -5.5q-5 6 -21 20t-38.5 32l-47.5 38l-47.5 38t-39 32t-20.5 20q-5 9 6.5 20t28 21.5t32.5 19t20 10.5zM223 627q13 10 22.5 18.5t22.5 18.5l-174 177q-14 -8 -31.5 -23t-31.5 -23
q3 -4 17.5 -17t35 -30t43.5 -36.5t43 -36.5t34.5 -30.5t18.5 -17.5z" />
    <glyph glyph-name="a" unicode="a" 
d="M42 437q-4 6 -2.5 10.5t6.5 5.5q33 22 76.5 43t90.5 34.5t95 16t89 -11.5q48 -16 79.5 -48.5t50.5 -75.5t27 -94t8.5 -104.5t-3.5 -107t-9 -101.5q-1 -4 -14 -5.5t-29 -1t-30.5 2.5t-17.5 5q-1 21 -2.5 40.5t1.5 42.5q-17 -17 -34.5 -28t-38 -19t-43 -14.5t-48.5 -13.5
q-19 -5 -47.5 -9t-60.5 -4.5t-64.5 3t-58.5 15t-43.5 30.5t-18.5 50q-4 46 14 90t49.5 81t72.5 64t83 38q25 7 53.5 9.5t57 2.5t55.5 -3t51 -7q-18 33 -44.5 48.5t-59 19t-67.5 -3t-69.5 -17.5t-66.5 -24.5t-57 -24.5q-6 9 -9.5 15.5t-6 13.5t-6 15.5t-9.5 21.5zM80 396
q25 12 59 26.5t72 25t77 14t73 -5.5t61 -33.5t41 -70.5q-57 11 -116 13t-113.5 -11.5t-101.5 -44.5t-79 -86q-14 -25 -25 -59t-6 -63q3 -16 12.5 -29.5t22.5 -24t27.5 -17t26.5 -8.5q42 -6 93.5 -1t103 19t96.5 34.5t74 44.5q3 -1 2.5 -14.5t-2 -30.5t-2 -33t2.5 -22
q3 0 9.5 -0.5t14 -0.5t15.5 1t13 4q3 35 6.5 76.5t4.5 85.5t-2 87.5t-12.5 83.5t-28 73.5t-47.5 56.5q-41 33 -92.5 39t-105 -4.5t-103.5 -32t-89 -42.5q2 -4 4.5 -11t4.5 -14.5t4.5 -14t4.5 -10.5zM149 249q31 23 73 39t86.5 20.5t88 -3.5t79.5 -32q-1 -22 0.5 -44
t-0.5 -44q-19 -25 -61 -48t-91.5 -39t-98.5 -22.5t-81 1.5q-40 12 -53.5 33.5t-8.5 46.5t23.5 49.5t43.5 42.5zM457 190q1 24 0.5 38.5t0.5 32.5q-21 17 -55.5 23.5t-73.5 4t-79 -13t-72.5 -28.5t-53.5 -42t-22 -53q-2 -25 9 -38.5t28 -18.5t38 -4.5t41 3.5q17 2 46 8.5
t62.5 18t68 28.5t62.5 41z" />
    <glyph glyph-name="b" unicode="b" horiz-adv-x="727" 
d="M43 -10q-10 2 -12 12q6 193 1.5 385t1.5 383q1 7 14 9.5t30 2t33.5 -1.5t24.5 1h13t4.5 -7t-1.5 -24t-5 -52t-5.5 -91.5t-3.5 -141.5q17 17 44.5 30.5t55.5 23.5t52 16l36 9q47 11 96 5t93 -25.5t80 -50.5t57.5 -71.5t26 -88.5t-14.5 -100q-21 -58 -58.5 -100t-85 -69.5
t-102.5 -41t-112 -13.5h-28.5t-43.5 4t-48.5 13t-43.5 28q-1 -1 -0.5 -8t1 -15t0 -14.5t-3.5 -6.5q-2 -1 -15.5 -1h-30t-31.5 0.5t-19 0.5zM121 10q0 21 1 34t1.5 20t1.5 9.5l1 2.5q49 -42 113 -56.5t129 -5t125 39.5t100.5 77t55 108t-10.5 132q-21 53 -57.5 87.5
t-81.5 51.5t-96 19t-101 -9.5t-96.5 -35t-83.5 -55.5q-1 1 -1.5 4t-0.5 13.5t0.5 31t1.5 56.5t3.5 91t6.5 135q-19 -2 -39.5 -0.5t-38.5 0.5q-5 -189 -1.5 -375.5t-1.5 -374.5q16 0 35.5 0.5t34.5 -0.5zM123 153q1 3 1 20t-1 40t-2 49.5t-1.5 49t0 38t3.5 17.5
q27 27 68.5 49t88.5 34.5t95.5 14t91.5 -11.5t75 -43t46 -81q15 -54 -6 -99t-63 -77.5t-99 -51t-113.5 -20t-106 15.5t-77.5 56zM144 162q27 -31 71.5 -46.5t94 -16t99 14t88 42t60 68t15.5 92.5q-5 45 -33 73t-68 41t-88 12.5t-94.5 -12t-87 -33t-64.5 -50.5z" />
    <glyph glyph-name="c" unicode="c" horiz-adv-x="678" 
d="M574 508q7 -7 10 -9.5t1 -12.5q-6 -9 -13 -23.5t-13.5 -28.5t-12 -23.5t-9.5 -7.5q-30 21 -69 30.5t-81 8.5t-83.5 -10.5t-76.5 -27t-60 -41t-33 -51.5q-19 -64 -6 -106t47.5 -65.5t84 -29.5t103.5 0.5t106 25t91 44.5q3 7 14 4q9 -7 19 -16.5t18.5 -20t15 -20.5
t10.5 -17q-8 -9 -21.5 -17.5t-29.5 -16t-31.5 -14t-26.5 -11.5q-52 -23 -105.5 -37t-107 -14.5t-106 15t-101.5 51.5q-89 67 -103.5 150.5t45.5 171.5q56 81 129.5 123t178.5 42q59 -1 110.5 -13.5t105.5 -32.5zM498 60q8 3 22.5 9t30.5 13.5l32 15t27 15.5q-4 7 -15.5 23
t-24.5 27q-39 -29 -94.5 -48.5t-113 -25t-112 4t-93 37t-54 74.5t3.5 117q7 24 32.5 51t66 49t94 35.5t116.5 10.5q32 -2 61 -14.5t55 -23.5q8 16 18 29.5t15 30.5v1q-52 19 -101 30t-106 13q-94 3 -165.5 -37.5t-125.5 -119.5q-40 -58 -43 -113t21.5 -101t73.5 -81t114 -52
q69 -19 135 -7.5t130 37.5z" />
    <glyph glyph-name="d" unicode="d" horiz-adv-x="703" 
d="M637 -11q-4 0 -19 -0.5t-31.5 -0.5h-30t-15.5 1q-3 0 -3.5 6.5t0 14.5t1 15t-0.5 8q-31 -21 -61.5 -31t-56.5 -14t-45.5 -4.5t-28.5 -0.5q-57 0 -107.5 8.5t-93.5 30t-76 58.5t-54 95q-19 52 -14.5 101t27 91.5t59.5 76t82.5 56t97 32t102.5 3.5q12 -2 34 -6.5t47 -13.5
t50 -21.5t42 -29.5q-1 85 -3.5 141.5t-5.5 91.5t-5 52t-1.5 24t4.5 7h13q8 -2 24.5 -1t33.5 1.5t30 -2t14 -9.5q6 -191 1.5 -383t1.5 -385q-2 -10 -12 -12zM559 9q15 1 34.5 0.5t35.5 -0.5q-5 188 -1.5 374.5t-1.5 375.5q-18 1 -38.5 -0.5t-39.5 0.5q4 -80 6.5 -135t3.5 -91
t1.5 -56.5t0.5 -31t-0.5 -13.5t-1.5 -4q-37 32 -83.5 52.5t-97 28t-101.5 1t-96 -28t-81.5 -58t-57.5 -90.5q-25 -71 -10.5 -129t55.5 -101t100.5 -68.5t125 -30.5t129.5 12t113 59l1 -2.5t1.5 -9.5t1.5 -20t1 -34zM557 152q-28 -39 -77.5 -58.5t-106.5 -22t-113.5 11
t-99 42t-63.5 70.5t-6 96q14 51 46.5 83.5t75 50t91.5 20.5t96 -5.5t88 -27.5t69 -46q3 -2 3.5 -17.5t0 -38t-1.5 -49t-2 -49.5t-1 -40t1 -20zM543 346q-34 33 -78 51.5t-91 24t-92.5 -2t-82 -26.5t-60.5 -49.5t-27 -70.5q-4 -45 18 -78.5t59 -55.5t84.5 -31.5t96 -7
t92.5 17.5t74 43z" />
    <glyph glyph-name="e" unicode="e" horiz-adv-x="669" 
d="M113 240q8 -47 39 -78t74.5 -47.5t95 -19.5t99 6.5t87 29.5t60.5 50q4 4 19 -9t28.5 -31t19.5 -34.5t-6 -17.5h-2q-47 -40 -101 -65t-110 -34.5t-111.5 -4t-106.5 26.5t-94.5 57.5t-74.5 89.5q-14 24 -20.5 51.5t-6.5 55.5t5 55.5t15 51.5q27 64 80.5 106t117.5 62
t132 17.5t123 -28t89.5 -74t33.5 -120.5q-54 -10 -115 -22t-124 -24.5t-125 -25t-119 -22.5zM91 255q117 27 241 49t242 42q-1 56 -25.5 95t-63.5 62.5t-86.5 31t-94.5 0.5q-64 -9 -117 -32.5t-90 -60t-55 -85t-13 -107.5q4 -50 24 -88t49.5 -66.5t66.5 -47t76 -29.5
t78 -14.5t72 -0.5q30 3 65.5 15.5t67.5 28.5t55.5 32t29.5 24q0 1 0.5 1t0.5 1q-5 14 -17 27t-22 24q-30 -32 -75.5 -53.5t-97 -29.5t-103.5 -2t-96 27.5t-74.5 60t-37.5 95.5zM104 316q-13 1 -16.5 9.5t-1.5 19.5t7.5 22.5t9.5 17.5q15 23 50 44.5t79 36t91.5 20.5t88 -0.5
t68.5 -27.5t32 -61q1 0 -16.5 -3t-46 -9t-65 -13.5t-74.5 -15t-75 -15t-66 -13.5t-47 -9zM106 336q2 0 30.5 5.5t70.5 14t91 18t91 18t70.5 13.5t30.5 5q-15 28 -48 41.5t-74 15t-85.5 -8t-82.5 -27t-64 -42t-30 -53.5z" />
    <glyph glyph-name="f" unicode="f" horiz-adv-x="395" 
d="M123 1q-3 -1 -4.5 14.5t-2 58t0.5 117.5t3 193q-3 0 -20.5 -1t-38 -2.5t-37.5 -2t-17 0.5q-4 10 -5 24t-1 28.5t1 28t2 22.5q4 4 19.5 6.5t34.5 3t37.5 1t28.5 0.5q0 62 3 112.5t19 89.5t49.5 66t93.5 43q7 3 17 -2.5t20.5 -15.5t20 -22.5t15.5 -23.5t6 -19t-7 -8
q-60 -4 -88.5 -21.5t-38.5 -46t-8.5 -68t1.5 -87.5l60 4t60 3q7 2 10.5 -16t4.5 -40t-1 -40.5t-6 -16.5h-128q-2 -102 -2 -195t-2 -185q-5 0 -20 -1.5t-32 -2.5t-31 -1t-17 2zM138 21q17 1 34.5 1.5t34.5 0.5q0 94 -1.5 189t6.5 192h132q1 -2 1 9t-0.5 24.5t-0.5 25.5v14
q-33 -1 -66 -3.5t-66 -3.5q-3 51 -5.5 96.5t8 80.5t40 57.5t90.5 26.5q-11 15 -21.5 28.5t-23.5 23.5q-61 -5 -94 -37.5t-47.5 -77.5t-16 -96.5t0.5 -95.5q-3 0 -16.5 -0.5t-31.5 -1.5t-37.5 -2t-34.5 -2q-1 -17 0 -35.5t-1 -35.5q4 0 17.5 0.5t30.5 1.5l34 2t29 1
q1 -1 1.5 -28.5t1 -68.5t0.5 -89t0.5 -90t0.5 -72t1 -35z" />
    <glyph glyph-name="g" unicode="g" horiz-adv-x="673" 
d="M586 -173q-24 -44 -63.5 -73t-86.5 -44.5t-99 -18t-101.5 8t-94 32.5t-76.5 56q1 5 11 19.5t23 29.5t24.5 26.5t14.5 11.5q42 -38 89 -56t91.5 -18.5t84 16t67.5 47.5t41.5 75.5t5.5 100.5q-51 -31 -112.5 -42.5t-123 -5t-117.5 30.5t-95 64.5t-55.5 97t0.5 128.5
q5 20 13.5 37.5t18.5 33.5q32 50 91 85.5t127.5 49.5t136.5 3t117 -54q0 12 -2 27t-3 29t-0.5 25.5t3.5 17.5q26 -1 54.5 -4.5t54.5 -4.5q0 -16 0.5 -33t0.5 -36q1 -55 2 -118.5t0.5 -129t-2 -129.5t-6.5 -119.5t-13 -98.5t-21 -67zM534 73q4 -15 4.5 -44t-3.5 -61
t-13 -61.5t-23 -45.5q-38 -42 -82 -64t-91 -24t-95 17t-94 59l-9 -12t-13 -17t-13 -17t-10 -11q47 -42 106 -60.5t119 -17.5t114.5 18.5t93.5 48.5q22 18 37 48t24 65.5t13.5 71.5t4.5 65q1 48 1.5 109.5t0.5 129t-1 137t-2 132.5q-1 2 -11 2.5t-22 0t-22.5 0t-12.5 2.5
q0 -26 1.5 -57t1.5 -57q0 -2 -12.5 7t-31 21.5t-39.5 24.5t-38 16q-39 8 -84 5.5t-89.5 -15.5t-85.5 -36t-71 -55t-46 -73.5t-10 -90.5q7 -62 34 -105t67 -69.5t90.5 -37t104 -7.5t107 18t100.5 40zM90 268q5 51 33.5 87t71 57t93 26.5t98.5 -4t88 -34t62 -63.5l2 -187
q-28 -24 -63 -40.5t-73.5 -25.5t-78.5 -11.5t-79 0.5q-30 3 -60.5 22.5t-53.5 47.5t-35 61t-5 64zM110 265q2 -56 23.5 -92t55.5 -55.5t77 -24.5t87.5 2t87.5 23.5t77 39.5q-1 67 -1.5 103.5t-1.5 53.5t-1.5 20.5l-0.5 3.5q-27 30 -64.5 49t-79 26.5t-83.5 2.5t-77.5 -23
t-62 -50t-36.5 -79z" />
    <glyph glyph-name="h" unicode="h" horiz-adv-x="634" 
d="M474 3q0 20 1 54.5t2 75.5t1 85.5t-3 85t-10 74t-19 52.5q-11 18 -33 25t-47.5 6.5t-52 -6t-45.5 -13.5q-45 -18 -71.5 -51t-46.5 -82q-3 -8 -4 -20.5t-1 -26v-26v-20.5q0 -80 -0.5 -124.5t-1.5 -66.5t-2 -27t-2 -6q-5 -1 -21.5 0.5t-36.5 2.5t-38.5 1.5t-26.5 -2.5
q2 27 3 75.5t1 108.5t-0.5 128t-1 135t-1.5 128t-1 108.5v76t2 30.5q21 -1 41 1.5t36.5 3.5t27 -3.5t12.5 -18.5q0 -2 -0.5 -26t-1 -58.5t-1 -75t-1.5 -74.5t-2 -56.5t-2 -22.5q38 43 83.5 72t104.5 37q83 11 134.5 -12t80.5 -68t40 -106t13 -126t-0.5 -128.5t-0.5 -112.5
v-2q-2 -7 -16 -8.5t-32 -1t-35 2.5t-25 2zM493 22q6 -2 16.5 -2.5t21 -0.5h19h12.5q4 136 -1 239.5t-30 170.5t-75.5 96.5t-136.5 17.5q-25 -3 -49 -10t-49 -22t-52.5 -40.5t-60.5 -64.5q0 1 0.5 27t1.5 64.5t2 84t1.5 85t0.5 67.5t-1 32h-75q-3 -189 0 -376t-1 -376
q20 1 41.5 1.5t40.5 -2.5v75t0.5 78.5t3 77.5t8.5 72q7 37 29.5 66.5t53.5 50.5t67.5 33t71 14.5t63.5 -5.5t46 -27q11 -12 18 -40t11.5 -65.5t6 -80.5t1.5 -86.5t-2 -83.5t-4 -70z" />
    <glyph glyph-name="i" unicode="i" horiz-adv-x="193" 
d="M142 6q-4 -4 -20 -8t-35.5 -5t-38 3t-28.5 17q13 63 17 128t2.5 131t-4.5 131.5t-3 130.5q-2 11 13.5 16.5t35 6t37.5 -3.5t20 -13q0 -134 2 -266.5t2 -267.5zM122 14q0 130 -2 258t-2 258q-20 0 -33 1.5t-33 2.5q-1 -67 2.5 -131.5t5.5 -128.5t-0.5 -128.5t-14.5 -131.5
h77zM133 652q-5 -2 -21 -4t-33.5 -1.5t-32 4.5t-16.5 14q-1 4 -2 13.5t-2 21t-1.5 23t1.5 19.5q1 4 16.5 6t34.5 2t36 -3t20 -7v-88zM46 730q1 -20 2.5 -32.5t1.5 -31.5h63v64h-67z" />
    <glyph glyph-name="j" unicode="j" horiz-adv-x="181" 
d="M84 -213q-41 -53 -98 -78t-117.5 -25.5t-119.5 23.5t-102 69q3 4 12.5 17.5t21 26t22.5 20t16 0.5q23 -15 44.5 -28t45.5 -21.5t51 -10.5t60 7q48 12 73 47.5t35.5 81t11.5 93.5t2 86l-10 429q-1 12 15.5 16t36.5 2.5t37 -6.5t17 -9q1 -22 1 -54.5t-0.5 -69.5t-1 -76
t-1 -75.5t0 -67.5t1.5 -51q2 -30 1 -77.5t-7 -98t-17.5 -96.5t-30.5 -74zM118 132q-2 30 -2 81.5t1 109t1.5 111.5t-0.5 88q-13 5 -34.5 4t-31.5 -3q3 -114 4.5 -192.5t2.5 -129.5t1.5 -78.5t1 -40.5t0 -15.5l-0.5 -2.5q-1 -54 -7 -109t-27 -98.5t-61.5 -70.5t-109.5 -25
q-21 1 -45 9.5t-45 18.5t-36 18.5t-17 10.5l-36 -40q46 -41 103.5 -58.5t113 -13.5t102 27.5t71.5 64.5q22 36 33.5 77.5t16.5 85t4.5 87.5t-3.5 84zM133 652q-5 -2 -21 -4t-33.5 -1.5t-32 4.5t-16.5 14q-1 4 -2 13.5t-2 21t-1.5 23t1.5 19.5q1 4 16.5 6t34.5 2t36 -3t20 -7
v-88zM46 730q1 -20 2.5 -32.5t1.5 -31.5h63v64h-67z" />
    <glyph glyph-name="k" unicode="k" horiz-adv-x="500" 
d="M395 -3q-8 3 -9 7q-7 5 -24.5 23t-40 43t-49 55t-52.5 59t-49 55t-39 44q0 -35 2.5 -80.5t4 -87.5t1.5 -74.5t-4 -40.5h-62.5t-34 1t-14 5t-2.5 12v386t-5 377q13 -2 29.5 -2t32.5 0.5t30 -0.5t23 -4v-2q0 -81 -6 -164t-6 -166l16 16t40.5 39t53.5 49.5t54 50t41.5 39
t16.5 16.5q9 -8 21 -22.5t23 -29t19 -26l8 -11.5q-2 -1 -16 -15.5t-35 -35.5t-45 -45.5t-45.5 -45.5t-37 -35.5t-19.5 -15.5q3 -6 23.5 -28t50 -54t65 -70.5t70 -77t64 -74.5t46.5 -62q-2 -3 -19.5 -4.5t-40.5 -2t-46 -0.5t-34 -1zM192 374l13.5 14t34 34.5l45 45t46 46.5
t37 38t18.5 21q-8 10 -18.5 26t-18.5 26q-23 -18 -50 -42t-54 -48.5t-52 -48t-44 -42t-31 -29t-13 -9.5q-2 40 -1 85.5t3 92t4.5 92t3.5 86.5q-14 0 -37.5 -1t-37.5 0q1 -98 1.5 -189.5t0 -181.5t-0.5 -181.5t2 -189.5l75 1q0 1 -1 25t-1.5 58.5t-1 74.5t-0.5 74v56.5
t1 22.5q1 1 22.5 -22t53.5 -58t69 -76.5t68.5 -76.5t52.5 -58.5t21 -22.5h12h28.5t32 1t23.5 5l-22.5 26.5t-57 65.5t-74 84t-73.5 84t-56.5 65z" />
    <glyph glyph-name="l" unicode="l" horiz-adv-x="183" 
d="M130 -6q-47 2 -69 2t-31.5 0.5t-11.5 2t-8 7.5v2q0 44 0.5 105.5t0.5 131t1 144t1 144.5t0.5 131t0.5 106q2 8 17 11t33 4t34 0t21 -1q1 -45 -0.5 -109.5t-3 -138.5t-2.5 -152.5t0 -151t5 -135t12 -103.5zM30 14h77q-9 48 -12 107.5t-3.5 125.5t1 135.5t4 137t3.5 130
t0 114.5q-20 -1 -33 -2.5t-33 -1.5q0 -43 -0.5 -103t-0.5 -128.5t-1 -141.5t-1 -141.5t-0.5 -128.5t-0.5 -103z" />
    <glyph glyph-name="m" unicode="m" horiz-adv-x="848" 
d="M15 0q-1 2 -1.5 30t-1 73t-0.5 102.5t0.5 116.5t2 116t4.5 101q3 6 18 9t32.5 4t32 -1t17.5 -6q0 -19 -2 -38t-1 -38q28 30 68.5 54.5t84.5 32t87 -6.5t77 -61q34 28 75 47t84 23t85 -11t78 -55q21 -23 33 -63t18.5 -88t8 -99.5t0.5 -98.5t-3.5 -85t-4.5 -58
q-42 1 -64.5 1h-33.5t-13 0.5t-2 2.5q4 44 8.5 97t3 107t-11 105.5t-31.5 93.5q-11 20 -26.5 29.5t-33 10.5t-35 -5.5t-31.5 -18.5q-21 -19 -32.5 -57.5t-16.5 -85.5t-5 -96.5t1.5 -90t3 -67t-0.5 -26.5l-103 1q-2 21 -1 70.5t0 109.5t-7 120t-22 101q-12 30 -32 40t-44 6
t-49 -18.5t-47.5 -33.5t-39.5 -39t-24 -35q3 -117 4.5 -181t2 -95t-0.5 -38t-4 -9l-1 -1q-13 3 -23.5 4t-22 1t-25.5 -1t-33 -2zM39 527q-6 -125 -6.5 -248.5t6.5 -257.5q15 1 29.5 1t31.5 -2q-1 82 0.5 157.5t0.5 157.5q9 20 27.5 43t42 42.5t50.5 34.5t53 19t49.5 -5
t39.5 -35q19 -31 28 -79.5t12 -105t3 -116.5v-114h55l1 2q-2 54 -3 111t2.5 110t13 98.5t29.5 76.5t51.5 44t78.5 1q25 -6 42 -27.5t27 -52t15 -66.5t6.5 -71t1.5 -65.5v-50.5q0 -5 -0.5 -18.5t-2 -30t-3.5 -33t-5 -27.5h76q0 42 2 104t-1 128t-14.5 127t-38.5 101t-72 52
t-91 3t-85.5 -34t-57.5 -58q-28 46 -58.5 67t-62.5 24.5t-63 -7t-59 -27t-51.5 -35.5t-39.5 -33v14.5t-0.5 30t-0.5 32v21.5q-17 -1 -29.5 -2t-29.5 -1z" />
    <glyph glyph-name="n" unicode="n" horiz-adv-x="615" 
d="M476 -1q-3 46 -4 104t-6 117.5t-18 114.5t-41 94q-11 16 -32.5 22t-45.5 5.5t-46 -7t-33 -16.5q-39 -32 -63 -67.5t-37.5 -72t-18.5 -74t-6.5 -74.5t-1.5 -72t-3 -67q-8 0 -20.5 -2.5t-26.5 -3.5t-29 1t-28 11q-2 129 1.5 263t3.5 265q-1 13 14.5 18t35.5 4t38 -5.5
t22 -10.5q-1 -25 -1 -44t-3 -43q10 27 36.5 47t61.5 32t75 15.5t77.5 -2t69.5 -20.5t51 -40q23 -31 37 -79t21.5 -102.5t9.5 -109.5t1.5 -99.5t-2 -73.5t-1.5 -31l-7 3h-81zM426 433q28 -38 42 -89t19 -107t4.5 -112.5t-1.5 -105.5h53q0 28 1 66.5t0.5 82t-3 88.5t-9.5 87
t-18.5 77t-30.5 58q-27 32 -70 46.5t-90.5 12.5t-92 -19.5t-73.5 -47.5q-11 -11 -19.5 -25t-14.5 -25l-9 -16.5t-3 -0.5q0 21 -0.5 37t-1.5 31t-1 31t1 36q-4 2 -13 2h-19.5t-20 -0.5t-15.5 -0.5q-2 -131 -3.5 -258.5t0.5 -257.5q14 -5 29.5 -3.5t31.5 3.5q2 52 4 86.5
t3.5 59t4 41t6 31.5t8.5 32.5t13 42.5q7 23 23 48.5t38 48.5t49.5 39.5t57 22t60.5 -3.5t60 -38z" />
    <glyph glyph-name="o" unicode="o" horiz-adv-x="667" 
d="M366 549q53 1 107.5 -24.5t97 -67.5t66 -96.5t15.5 -111.5q-6 -41 -30 -79t-59 -69t-79 -54t-90 -35t-92.5 -12.5t-86.5 13.5q-53 16 -93.5 44.5t-66.5 66t-38 82t-8 94.5q4 64 34 113.5t78.5 81.5t111 46t133.5 8zM632 254q5 38 -9.5 80t-42.5 79.5t-65.5 66.5t-78.5 42
q-61 16 -129.5 11t-128 -32.5t-101.5 -78.5t-48 -126q-8 -93 39 -156t157 -109q32 -13 73.5 -12.5t84.5 12t85.5 33.5t77 51t57.5 64.5t29 74.5zM111 347q10 30 35 54.5t58.5 41.5t72.5 25.5t77 7.5t72 -12.5t57 -34.5q44 -36 66.5 -88t2.5 -117q-12 -38 -43 -67t-73 -48
t-89.5 -25.5t-92 -0.5t-80.5 27t-55 58q-22 45 -22 90.5t14 88.5zM471 413q-41 35 -90.5 44t-97 -3t-88.5 -42.5t-65 -73.5q-8 -14 -10.5 -35t-1 -44t6 -44.5t12.5 -36.5q18 -35 55 -55t82 -24.5t92 5.5t86 34t64 61t25 86q0 47 -18.5 74t-51.5 54z" />
    <glyph glyph-name="p" unicode="p" horiz-adv-x="666" 
d="M20 202q0 31 -1 69t-1.5 77t-1.5 76t-1 66t-0.5 47.5t0.5 19.5q5 0 21 0.5t33.5 0t32.5 -3.5t18 -10v-76q46 25 92.5 48t93.5 34t95.5 5.5t98.5 -37.5q28 -17 53.5 -44.5t45 -60.5t31 -70.5t11.5 -74.5q0 -36 -18.5 -75t-47.5 -74t-65 -63t-73 -42q-52 -18 -115 -17.5
t-120 26.5q-7 3 -17 10t-21.5 15.5t-22 17t-17.5 14.5q-2 -48 -0.5 -100t2.5 -104t1 -102.5t-4 -93.5h-17t-26.5 0.5t-28 0.5h-21.5q-3 0 -4.5 30t-2.5 78t-1 107.5t-0.5 117.5t-1 108t-0.5 80zM434 527q-46 17 -92.5 10t-90 -25t-82.5 -40.5t-69 -35.5v98q-18 0 -32.5 1
t-32.5 2q0 -53 1 -103.5t2 -100t2 -99.5t1 -103q0 -19 0.5 -55.5t1 -80.5t1 -91t1 -88t1.5 -70.5t2 -38.5q15 0 29.5 -0.5t29.5 -2.5q1 99 -1.5 203t-1.5 203q5 11 12 5.5t13 -11.5q8 -9 22 -20.5t30 -22.5t32 -20t27 -12q35 -9 71 -11.5t70.5 3t66.5 20.5t61 41
q42 38 69.5 75.5t37.5 77t0.5 83.5t-40.5 94q-24 40 -60.5 70.5t-81.5 44.5zM108 205q0 22 -0.5 40.5t-1 35.5t-1 35t-1.5 39q31 16 62 35t63 35t66.5 26.5t71.5 10.5q64 -10 104 -35t59 -58.5t19 -71.5t-15 -74t-43 -67.5t-66 -50.5q-42 -22 -86 -22t-85.5 15.5t-78.5 43.5
t-67 63zM323 436q-27 -3 -61 -17.5t-64 -31t-50 -30t-20 -14.5q-1 -1 -1 -13v-30.5v-40.5v-43q28 -24 49 -44t43 -34t49.5 -22t69.5 -9q58 -2 99.5 24t64 65t25 84t-18.5 82t-66.5 59t-118.5 15z" />
    <glyph glyph-name="q" unicode="q" horiz-adv-x="705" 
d="M556 536q0 6 4 9q0 7 9 10h83q6 -2 8 -4q6 -2 7 -9q-2 -79 -3.5 -148t-2.5 -134.5t-2.5 -131t-3.5 -136.5q-1 -33 2 -68t11.5 -66.5t23.5 -57.5t38.5 -40.5t56 -16t76.5 16.5q5 -9 13 -21.5t16.5 -24.5t16.5 -23t13 -17q-30 -16 -68.5 -25t-78.5 -7.5t-76.5 14
t-63.5 39.5q-33 32 -49 77.5t-22 97t-5 104t3 97.5q-34 -30 -79.5 -48.5t-95.5 -24.5t-102.5 -0.5t-99.5 23.5t-85.5 48t-62.5 72q-32 66 -37.5 123.5t11 104.5t52 83t85.5 58t111.5 29.5t129.5 -2.5q46 -7 87.5 -31.5t76.5 -56.5q2 26 2.5 43.5t0.5 43.5zM643 300
q1 50 1.5 81t0.5 50v29.5v20v21.5t1 33h-70q0 -33 -1.5 -63.5t-3.5 -64.5q-13 14 -34 30.5t-46 32.5t-52.5 28.5t-53.5 18.5t-52.5 5.5t-53.5 -4.5q-89 -13 -146 -45t-84.5 -79.5t-25.5 -109t31 -133.5q25 -51 73 -80.5t105 -42t116 -10t107 15.5q17 5 38.5 17.5t40.5 26
t32.5 23.5t15.5 9q-1 -42 -3 -97.5t2.5 -112t19 -107.5t47.5 -83q24 -22 52 -34q12 -4 34.5 -7.5t49.5 -3.5t56 4t53 14q-8 11 -15 23t-15 23q-2 0 -17.5 -4t-39 -5.5t-50.5 3.5t-52 24q-33 31 -48.5 71t-20.5 84.5t-3.5 92.5t2.5 96l3 104zM97 375q22 37 59.5 59t82 30
t93 3.5t93 -20t81 -40.5t57.5 -57q3 -22 3.5 -48.5t-2.5 -53.5t-11 -52t-22 -43q-39 -48 -101.5 -67.5t-127.5 -13t-121.5 39t-83.5 87.5q-21 61 -21 101t21 75zM515 166q24 39 26.5 80.5t-0.5 90.5q-19 23 -50 48t-58 38q-37 17 -81 22.5t-86.5 -0.5t-79 -23.5t-59.5 -46.5
t-28 -68.5t16 -89.5q18 -42 51 -68.5t73 -39t83.5 -13.5t82 7.5t68 24.5t42.5 38z" />
    <glyph glyph-name="r" unicode="r" horiz-adv-x="515" 
d="M28 5q-6 175 -8 285t-1.5 170t2.5 78t4 8q1 1 12 2t25 2t27.5 1h18.5q2 0 3 -1q6 0 8 -9q0 -9 -0.5 -22t-0.5 -27v-27.5v-23.5q48 49 106.5 77.5t115.5 30.5q34 1 63 -6.5t50.5 -18t34.5 -20t15 -12.5q-3 -7 -12 -22t-18.5 -29.5t-17 -25.5t-6.5 -10q-32 31 -73 39
t-81 -3t-74.5 -38t-52.5 -66q-18 -38 -27 -79.5t-12.5 -84t-5 -84.5t-4.5 -81q-2 -3 -5 -4.5t-12.5 -1.5t-27 0.5t-46.5 2.5zM103 394q-1 2 -2 20t-1.5 40.5t-1 44.5t0.5 32l-56 -4v-502h56q0 51 4 107t14.5 108.5t29.5 98.5t51.5 77.5t79 45.5t112.5 3q22 -4 36 -15t18 -16
l4.5 4.5t10.5 12t12 17t9 20.5q-11 3 -23.5 9.5t-29 13t-38 12t-49.5 6.5q-32 1 -68 -11.5t-69 -32.5t-60 -44t-40 -47z" />
    <glyph glyph-name="s" unicode="s" horiz-adv-x="527" 
d="M4 63q0 9 8 20.5t20 21.5t25.5 16.5t24.5 6.5q7 2 13 -4q5 -8 7.5 -15.5t9.5 -12.5q21 -16 57 -22.5t73.5 -4t69.5 14t44 32.5q14 25 9.5 43t-19.5 30.5t-35.5 19.5t-37.5 9q-53 7 -100 18.5t-93 43.5q-50 34 -59 76t8.5 81.5t55.5 71t83 43.5q43 12 91.5 13.5t93.5 -11
t81.5 -41.5t56.5 -77q0 -4 -1 -6q-5 -8 -17.5 -15.5t-25 -13t-22.5 -8t-8 1.5q-7 21 -31 37t-56 25t-67 10.5t-64 -7t-47.5 -27.5t-17.5 -50q0 -10 12 -18.5t27.5 -15.5t29.5 -11.5t19 -5.5q22 -5 38 -6.5t31 -4t31 -6t39 -10.5q65 -34 95 -72.5t32 -75.5t-20 -70t-61.5 -58
t-92 -39.5t-110.5 -12.5q-36 1 -64 3t-51 10t-43 25t-42 48zM78 110q-5 0 -13.5 -5.5t-17.5 -12.5t-15.5 -13t-6.5 -7q17 -28 40 -43t47 -22.5t46.5 -9.5t39.5 -3q37 -3 82 6.5t85 28t69.5 45.5t35.5 60.5t-18 71t-89 77.5q-12 8 -34 12t-48 8t-53.5 8.5t-51 13t-40.5 21.5
t-22 34q-1 37 17.5 60t48 34.5t66.5 12t72 -7.5t64 -24.5t44 -38.5q12 3 27 10.5t20 15.5q-11 14 -25 29.5t-30.5 29t-35 24t-38.5 13.5q-24 5 -55.5 5.5t-65.5 -4t-67 -15t-59 -28t-43 -43t-18 -58.5q0 -23 7 -41t21 -35q34 -38 77.5 -53.5t91.5 -22.5q24 -3 50.5 -7
t49.5 -13t39.5 -27t19.5 -49q1 -27 -19 -47.5t-52 -33t-71 -16.5t-74 0.5t-61.5 18.5t-33.5 39l-2 2h-1z" />
    <glyph glyph-name="t" unicode="t" horiz-adv-x="426" 
d="M353 116q11 22 54 -75q3 -12 -11 -21t-33 -14t-38 -8t-26 -3q-47 -2 -80 5t-55.5 25.5t-36 51.5t-20.5 84q-4 30 -5.5 54.5t-1.5 55.5t0.5 73t-0.5 107q-6 0 -20 -2t-29.5 -2.5t-28 0t-15.5 5.5q-1 5 -1 20t0.5 31t1.5 29t4 15q2 2 5 3.5t12 1.5t25.5 -0.5t45.5 -2.5
q0 1 -0.5 1.5t-0.5 1.5v4q3 42 4 85t1 85q0 7 4 10t9 1q7 -1 23 -2t32.5 -3t29.5 -5.5t15 -8.5q-2 -42 -3.5 -82.5t-2.5 -82.5v-1q8 0 29 0.5t43 1.5t40.5 1t22.5 -2q6 -2 8 -13t2 -25t-1.5 -27.5t-1.5 -20.5q0 -2 -1 -3q0 -9 -10 -10q-32 0 -65 -1t-65 -3l-1 -1
q0 -1 -0.5 -1.5t-0.5 -1.5v-2q1 -5 0 -32.5t-1 -65t2.5 -80.5t8.5 -79.5t18 -62t31 -27.5q5 -1 17.5 0t26.5 3.5t25.5 6.5t14.5 9zM196 533q-8 2 -6.5 8t1.5 14q1 38 2 76.5t3 76.5q-16 1 -36.5 3.5t-35.5 5.5q-2 -47 -3 -93.5t-5 -94.5h-87l-3 -64l4 2q18 2 35.5 2t35.5 2
q11 -1 15.5 -4t3.5 -13q0 -52 -1.5 -101.5t0 -97.5t8.5 -94.5t24 -91.5q8 -22 39 -34.5t68.5 -16.5t73 1t53.5 19l1 1q-5 11 -11.5 29.5t-15.5 26.5q-19 -10 -41 -15t-42.5 -2.5t-37.5 14t-26 35.5q-12 33 -17.5 75.5t-7 88t0 91.5t3.5 85q34 1 63 3q25 2 48 3t31 1
q1 11 1.5 29.5t-1.5 29.5q-35 -1 -69 -2t-68 2z" />
    <glyph glyph-name="u" unicode="u" horiz-adv-x="583" 
d="M420 1q-6 2 -8.5 11.5t-2.5 23.5t1.5 30t2.5 30q-41 -42 -86 -66t-89.5 -30.5t-85 4t-72 37t-51.5 68.5t-22 99q-5 85 -2 173t5 162q3 0 21 1t37.5 1t34 -3t11.5 -11l-1 -1q3 -36 -0.5 -90.5t-4.5 -112t4.5 -110t26 -84.5t60 -36t106.5 37q35 21 55.5 56.5t30.5 87
t12 119t0 153.5q23 0 50.5 2t50.5 2h1q9 2 12 -9q-2 -13 -2.5 -50t0.5 -88t2.5 -109.5t2.5 -114t1.5 -103.5t-1.5 -76q-2 -5 -15.5 -6t-30 0t-32.5 2t-22 1zM497 534q-17 0 -37.5 -1t-37.5 -1q4 -102 0 -180.5t-26.5 -134.5t-68 -90t-123.5 -46q-42 -7 -66.5 17t-36.5 66
t-14.5 95t-0.5 104.5t5 95t2 66.5q-16 -1 -31.5 -1.5t-31.5 -0.5q-2 -81 -5 -157t2 -157q4 -59 26 -99.5t55 -63t73.5 -27.5t81.5 6.5t80 38.5t68 68q5 8 12.5 6t9.5 -10q0 -27 -1 -54t-1 -53l34 -2t36 3z" />
    <glyph glyph-name="v" unicode="v" horiz-adv-x="589" 
d="M490 544q7 6 14 4q6 -2 17.5 -10.5t22.5 -19.5t18.5 -21.5t4.5 -16.5l-10 -20t-26.5 -52.5t-38 -74t-44 -84.5t-43.5 -85t-38 -74.5t-27.5 -52.5l-10.5 -20q-4 -4 -21 -6.5t-35.5 -2t-32.5 4t-11 10.5q-23 39 -48 87.5t-48.5 99t-44.5 99t-37 86t-26 61t-10 24.5
q-14 17 -2 24q21 6 43 22t36 30q7 3 13 -1.5t5 -12.5q2 -1 9.5 -21.5t20 -53.5t28.5 -75t34 -86t38 -87.5t40 -78.5q2 1 18 32t39 76t49.5 97.5t49.5 97t38 73.5t16 28zM542 484q-8 12 -17 25t-20 18q-1 0 -17 -30.5t-39.5 -75.5t-50.5 -97.5t-50.5 -97.5t-39 -74.5
t-16.5 -28.5q-12 -4 -17.5 -4t-8.5 5q-21 35 -41.5 78t-39 87.5t-34.5 86.5t-28 75.5t-20 54.5t-10 23q-11 -10 -28 -22t-31 -17q1 -1 10 -23t24.5 -59t36.5 -84t44 -98t47.5 -101.5t48.5 -92.5q1 -2 11 -2.5t22 -0.5t22.5 0.5t12.5 -0.5l-1 -1q3 0 2 1l9.5 19.5t25 51.5
t36 72.5t42 83t42 82.5t36.5 72t26.5 51l10.5 19v4z" />
    <glyph glyph-name="w" unicode="w" horiz-adv-x="845" 
d="M410 398q0 1 11 -15t27 -39.5t34.5 -52t34 -52t26.5 -39.5t12 -15l2 3t9 15t20.5 35.5t36 63.5t56 100t81.5 145q1 -2 14 -10.5t28.5 -18t29 -17t15.5 -6.5q1 0 -10 -20.5t-29 -55t-41.5 -78.5t-48.5 -90t-49 -90.5t-42.5 -79.5t-30 -56.5t-11.5 -22.5q0 -2 -5 -2.5
t-11 -0.5q-7 0 -15 1q-1 -2 -10 10t-22 31.5t-28.5 45t-30.5 50t-28 46.5t-20 35q-26 -52 -59.5 -104.5t-61.5 -102.5q0 -5 -6 -7.5t-14 -3t-15 1.5t-9 6q-19 35 -44.5 83t-52.5 99.5t-53.5 102.5t-48 91.5t-35.5 66.5t-15 28q-2 0 6.5 8t22 19.5t28.5 24t24 20.5
q2 0 16 -25.5t33.5 -64t42 -83t42 -82.5t33.5 -63.5t16 -25.5q0 -1 11 13t27 35.5t34.5 46.5t34.5 46.5t26.5 35.5l10.5 14h1zM561 146q-1 -1 -12 14.5t-27.5 39t-36 51.5t-36 52t-28 40t-12.5 15q-1 2 -12.5 -11.5t-27.5 -34.5t-34.5 -46t-34.5 -46t-26 -35.5t-9 -14.5
q-2 0 -16.5 24.5t-34.5 61t-43 79.5t-43.5 81t-35.5 65.5t-18 33.5l-48 -40q1 0 11.5 -19.5l28 -52t39 -73t44 -83.5t44 -83.5t37.5 -71.5t25 -50t7 -17q4 -2 5.5 -1.5t5.5 0.5q17 19 35 46.5t35.5 57.5t34 60.5t30.5 56.5q2 3 5.5 3t7.5 -2t6 -5t1 -4q3 -8 12.5 -25.5
t23 -39.5t28.5 -46t28.5 -45.5t24 -38t14.5 -23.5q2 1 5.5 1t5.5 2l11 20t28 52t39 73t44.5 83.5t44 83.5t38.5 73.5t27.5 52.5t10.5 21t-7 7.5t-15.5 13t-16 11.5t-8.5 5t-16 -28t-37.5 -69.5t-48.5 -89.5t-48.5 -89t-38 -68.5t-16.5 -27.5z" />
    <glyph glyph-name="x" unicode="x" horiz-adv-x="600" 
d="M207 279q-2 4 -17 18.5t-36 35t-45.5 43.5t-44.5 42.5t-33.5 33.5t-13.5 17t-0.5 4t6.5 8t25 22.5t53 48.5q8 -11 24 -29.5t36.5 -40t42.5 -44t40.5 -40t30.5 -28.5t14 -10q0 1 11 13t29.5 30t41.5 40.5t45.5 44.5t43 42t33.5 34q0 1 11 -10t23.5 -24.5t23.5 -24.5
t11 -10q0 -1 -16 -17.5t-39 -40t-49 -50.5t-47.5 -49.5t-34 -36.5t-8.5 -11l9 -9.5t23.5 -25t33.5 -34.5l39 -39q46 -47 105 -106l-9 -10t-21 -22l-23 -23t-15 -14q-59 45 -113 97.5t-106 112.5q-12 -15 -30 -34t-36.5 -39t-37 -39t-31.5 -33q-7 -8 -16 -18t-19 -20
t-19.5 -18.5t-16.5 -13.5q-7 4 -20 16.5t-26 26.5t-22.5 25l-9.5 11q1 1 24 24.5t54.5 55.5t65 65t56.5 53zM287 332q0 -1 -7.5 6.5l-20.5 20.5t-30 29.5t-35 34.5l-96 94l-4.5 -4.5l-11.5 -11.5t-16.5 -15t-19.5 -13q0 -1 14.5 -15t36 -35t46 -45.5t45.5 -45t34.5 -34.5
t12.5 -14q1 -2 -13.5 -17t-37 -37t-49 -48t-49 -48t-37.5 -37.5t-14 -16.5q11 -11 25 -26.5t26 -26.5q12 17 27 31t29 28q14 15 34 35t40.5 41t40 41t32.5 35q2 2 24.5 -20.5t55.5 -55t70 -68.5t68 -61q7 6 20 21t27 23l-20 20t-41 39.5t-51.5 48.5t-50.5 48t-37.5 37
t-13.5 16q-1 1 12.5 16.5t34.5 38t45.5 49t46.5 50t37 39.5t18 19q-14 9 -21.5 17t-17.5 24l-33.5 -33.5t-43.5 -43t-46 -45.5l-41.5 -41.5l-30.5 -30.5z" />
    <glyph glyph-name="y" unicode="y" horiz-adv-x="584" 
d="M209 3q-15 28 -38.5 75.5t-49.5 103t-52.5 112t-46.5 103t-31.5 77t-8.5 32.5q16 12 38.5 22t41.5 17h1q5 3 10 1t7 -9q2 0 10.5 -20.5t21.5 -54.5t30.5 -78t37.5 -92t41.5 -96.5t42.5 -91.5q33 62 61.5 112.5t56 97.5t55.5 95t58 104q11 35 14.5 40.5t11.5 1.5l13 -6.5
t25 -13t27 -16t19 -15.5q-2 -4 -15 -28t-31 -56.5t-38.5 -69t-37.5 -65.5l-227 -406q-24 -40 -47 -80t-41 -71t-29 -47.5t-11 -8.5q-3 -1 -17 6.5t-28 17.5t-24.5 20t-7.5 14l12 20.5t29.5 50.5t38 65t38 65t29 50.5t11.5 21.5zM275 82q-7 -11 -13.5 -10t-6.5 8
q-44 94 -78.5 175t-59 141t-38.5 94t-16 34q-11 -7 -27 -14.5t-29 -12.5q0 -10 16.5 -50t41.5 -95t54 -116t53.5 -113t41 -86t16.5 -35q0 -2 -10.5 -22.5t-27 -49.5t-35.5 -63t-35.5 -63.5t-29 -49.5t-14.5 -22q14 -19 28.5 -24.5t24.5 -9.5q25 49 53.5 97t54.5 96
q19 34 48.5 85.5t61.5 108.5t63.5 113t55.5 99q13 22 30 53t33.5 60.5t29.5 53.5t19 34q-14 5 -28 13.5t-25 16.5q-3 -7 -5 -10.5t-4.5 -7t-5.5 -8t-8 -13.5q-55 -107 -114.5 -204.5t-114.5 -202.5z" />
    <glyph glyph-name="z" unicode="z" horiz-adv-x="668" 
d="M446 418q2 0 -28 -0.5t-77 -1.5t-102.5 -2.5t-103 -3t-80 -2.5l-32.5 -1q-6 -1 -9 13t-4.5 32.5t-1 37.5t2.5 28q2 6 5 13.5t10 5.5q68 0 118.5 0.5t92 1.5t78.5 2t78.5 2t92.5 1h121q8 -35 7 -73.5t1 -70.5q0 -2 -20.5 -15.5t-54 -35t-75.5 -48.5t-86 -54.5t-86.5 -53.5
t-75.5 -46.5t-53.5 -32.5l-20.5 -12q58 3 98 5l70 3.5t56 3t56.5 2.5t70 2.5t98.5 2.5q12 2 16.5 -10.5t4.5 -31.5t-2.5 -38.5t-3.5 -30.5q-71 -2 -123 -3t-94.5 -1.5t-80 -0.5t-79 -0.5t-92 -1.5t-119.5 -3q-3 17 -5.5 44t-4 53.5t-2 45.5t0.5 19q1 1 21 11.5t51.5 28
t71.5 40t81.5 45.5t80.5 46t69 41t47.5 30t15.5 14zM590 527q-68 -1 -117.5 -2t-89.5 -2t-75 -2t-74 -1.5t-87.5 -1.5t-114.5 -1q2 -9 1.5 -21t-1 -24.5t0 -25t3.5 -21.5q46 0 100.5 2t110 4.5t107.5 5t91.5 5t63.5 3.5t23 1q0 -1 -21.5 -14t-56.5 -34.5t-80 -48.5t-92 -55
t-92.5 -55t-81 -48.5t-58 -34.5t-23.5 -13q-3 -11 -3 -26.5t1.5 -33t4.5 -34.5t5 -29q70 2 119 3t87.5 1h72t72 0.5t87.5 1.5t119 3q0 16 -1 23.5t-1.5 13t-0.5 13t1 23.5h-1q-61 -2 -103 -4t-74.5 -3.5t-59.5 -4t-59.5 -4t-74.5 -3.5t-103 -4q-5 1 -7 5.5t-2 10t2 10t7 6.5
l21 12t55 32.5t77 47t88 54.5t88 54.5t76.5 47.5t54.5 34.5t21 14.5q-1 28 -1 60t-5 59z" />
    <glyph glyph-name="braceleft" unicode="{" horiz-adv-x="396" 
d="M343 825q-7 11 -33.5 15.5t-57 2t-57.5 -10.5t-35 -22q-5 -9 -2 -27.5t9 -38t12 -34.5l6 -15q14 -51 11.5 -94.5t-34.5 -83.5q-4 -5 -9 -8t-9 -8q9 -7 19 -16t12 -17q7 -27 7 -63.5t-1 -77.5t-1 -83t6 -79.5t21 -67.5t43 -47q25 -14 55.5 -15t57.5 0q6 0 8.5 -2t4.5 -4
q-4 -44 -5 -59.5t-2 -23.5q-3 -15 -13 -20t-23.5 -5.5t-27 1.5t-23.5 2q-72 9 -111.5 37t-58.5 69t-23 91.5t-4 104t-2 107t-17 100.5q-3 8 -10 12.5t-15 7.5t-16 7t-13 10q-3 6 0 13q12 19 24.5 32.5t23.5 27t18.5 31t9.5 45.5q1 28 -4 55t-11 52.5t-10.5 49.5t-2 47
t15 44.5t40.5 41.5q21 16 52 19.5t65.5 3.5t68 -0.5t58.5 6.5q5 2 9 -1t4 -10q-1 -24 -4.5 -48t-4.5 -49q-4 -7 -10 -8t-11 3zM171 567q13 33 6.5 64.5t-17.5 63t-19.5 63t2.5 62.5q5 16 30 26.5t57 14t64 0.5t51 -12q2 17 4.5 34t3.5 35q-67 -2 -111.5 -4.5t-73.5 -7.5
t-46 -15t-28 -27q-16 -23 -14 -54.5t9.5 -65.5t15 -67t3.5 -59q-4 -20 -6 -33t-6 -24t-11.5 -22t-21.5 -28q-7 -8 -15.5 -16t-14.5 -17q6 -5 14 -8t15.5 -6.5t13.5 -9t9 -14.5q13 -45 14.5 -95.5t2 -101.5t4 -100t21 -89t54 -69t101.5 -41q14 -2 28 -3l28 -2q8 3 10 11
t1 18.5t-1.5 22.5t2.5 23q-29 0 -56.5 2.5t-54.5 17.5q-31 17 -48.5 48.5t-25 67.5t-8 72t1.5 63q1 16 3 39.5t2.5 48.5t-1 48t-7.5 39q-3 8 -15.5 17.5t-18.5 15.5q-2 7 4 16t15 19.5t17.5 20.5t12.5 18z" />
    <glyph glyph-name="bar" unicode="|" horiz-adv-x="155" 
d="M145 -87q-47 2 -69 2t-31.5 0.5t-11.5 2t-8 7.5v2q0 44 0.5 122.5t1.5 174t1.5 200t1.5 200t1.5 174.5t0.5 123q2 8 17 11t33 4t34 0t21 -1q1 -34 0 -89t-2 -123.5t-2.5 -146.5t-2.5 -157.5t-1 -157t1.5 -144.5t5 -120t9.5 -84zM45 -67h77q-9 48 -12 124.5t-3 168.5
t2 191.5t4.5 192.5t4 173t0.5 132q-20 -1 -33 -2.5t-33 -1.5q0 -43 -0.5 -120t-1.5 -171.5t-1.5 -197.5t-1.5 -197.5t-1.5 -171.5t-0.5 -120z" />
    <glyph glyph-name="braceright" unicode="}" horiz-adv-x="395" 
d="M28 825q-5 -4 -11 -3t-10 8q-1 25 -4.5 49t-4.5 48q0 7 4 10t9 1q25 -7 58.5 -6.5t68 0.5t65.5 -3.5t52 -19.5q28 -20 40.5 -41.5t15 -44.5t-2 -47t-10.5 -49.5t-11.5 -52.5t-3.5 -55t9.5 -45.5t18.5 -31t23.5 -27t24.5 -32.5q3 -7 0 -13q-5 -6 -13 -10t-16.5 -7
t-15 -7.5t-9.5 -12.5q-15 -47 -17 -100.5t-2 -107t-4 -104t-23 -91.5t-58.5 -69t-111.5 -37q-10 0 -23.5 -2t-27 -1.5t-23.5 5.5t-13 20q-2 8 -2.5 23.5t-4.5 59.5q2 2 4.5 4t8.5 2q27 -1 57.5 0t55.5 15q28 17 43 47t21 67.5t6 79.5t-1 83t-1 77.5t7 63.5q2 8 12 17t19 16
q-4 5 -9 8t-9 8q-32 40 -34.5 83.5t11.5 94.5l6 15t12 34.5t9 38t-2 27.5q-8 14 -35 22t-57.5 10.5t-57 -2t-33.5 -15.5zM200 567q4 -8 12.5 -18t17.5 -20.5t15 -19.5t4 -16q-6 -6 -18.5 -15.5t-15.5 -17.5q-6 -16 -7.5 -39t-1 -48t2.5 -48.5t3 -39.5q2 -27 1.5 -63t-8 -72
t-25 -67.5t-48.5 -48.5q-27 -15 -54.5 -17.5t-56.5 -2.5q3 -11 2.5 -23t-1.5 -22.5t1 -18.5t10 -11l28 2t28 3q65 12 101.5 41t54 69t21 89t4 100t2 101.5t14.5 95.5q3 9 9 14.5t13.5 9t15.5 6.5t14 8q-6 9 -14.5 17t-15.5 16q-14 17 -21.5 28t-11.5 22t-6 24t-6 33
q-5 26 3 59t15.5 67t9.5 65.5t-14 54.5q-11 17 -28 27t-46 15t-73.5 7.5t-111.5 4.5q1 -18 3.5 -35t4.5 -34q19 9 51 12t64 -0.5t57 -14t30 -26.5q10 -31 2 -62.5t-19 -63t-18 -63t7 -64.5z" />
    <glyph glyph-name="asciitilde" unicode="~" horiz-adv-x="577" 
d="M-2 366q0 6 3 9q4 15 22.5 28.5t41 24t45 17t35.5 6.5t29 -6.5t25 -11.5q32 -15 59.5 -32.5t54.5 -26.5t55 -5t62 31q9 8 21.5 20.5t16.5 24.5q2 5 5 6q2 4 7 5t10 -3q3 -7 13 -16t20.5 -19t18.5 -19.5t6 -17.5t-13.5 -24t-47.5 -47q-43 -38 -83.5 -44t-81 4t-81.5 30
t-85 35q-8 3 -21 2t-26 -5t-24 -11t-15 -16q2 -8 -6 -11q-7 -5 -13 4q-8 5 -16.5 13.5t-16 18t-13 19.5t-7.5 17zM20 368q-1 -1 -1 -2q5 -12 16 -23t21 -22q14 20 40.5 27.5t48.5 7.5q13 0 29 -6.5t25 -11.5q32 -15 66.5 -29.5t69.5 -19.5t70.5 2.5t69.5 34.5q4 4 12 11
t15.5 15.5t14 16.5t8.5 13l-42 47q-7 -13 -18.5 -25t-22.5 -20q-30 -23 -55 -31t-47 -6.5t-42.5 11t-42 22.5t-46 26.5t-53.5 23.5q-9 3 -30.5 -2.5t-44.5 -15t-41 -22t-20 -22.5z" />
    <glyph glyph-name="exclamdown" unicode="&#xa1;" horiz-adv-x="168" 
d="M30 861q22 -1 45.5 1t45.5 0q4 0 6.5 -3t3.5 -13t0.5 -29t-2.5 -52q-2 -6 -18 -9.5t-35 -4.5t-35 0t-17 3q-1 23 -3 46t-3 46q0 5 4 9.5t8 5.5zM43 772q16 1 33 2.5t33 2.5l3 67q-17 2 -39 0t-39 0q1 -17 4.5 -36t4.5 -36zM36 4q22 1 45.5 -1t45.5 0q8 1 10 6t-2 10
l-14 675q-2 5 -14 7t-26.5 1.5t-27.5 -2.5t-17 -3q0 -6 -0.5 -36.5t-1.5 -77.5t-2 -105.5t-2 -119.5t-2 -119.5t-2 -105.5t-1.5 -77.5t-0.5 -36.5q0 -5 4 -9.5t8 -5.5zM55 679q16 -1 23 1.5t23 1.5l17 -661q-17 -2 -39 0t-39 0q0 4 1 33.5t2 75.5t2 103t2.5 116.5t2.5 117
t2 103t2 75.5t1 34z" />
    <glyph glyph-name="cent" unicode="&#xa2;" horiz-adv-x="663" 
d="M387 658q-5 -21 -8 -47.5t-5 -57.5q54 -2 102 -14t98 -31q7 -7 10 -9.5t1 -12.5q-6 -9 -13 -23.5t-13.5 -28.5t-12 -23.5t-9.5 -7.5q-33 23 -76.5 32t-90.5 6q-2 -79 -1 -163.5t3 -164.5q52 8 101 25.5t87 42.5q3 7 14 4q9 -7 19 -16.5t18.5 -20t15 -20.5t10.5 -17
q-8 -9 -21.5 -17.5t-29.5 -16t-31.5 -14t-26.5 -11.5q-38 -17 -76.5 -29t-77.5 -18q1 -35 1 -65.5v-55.5q-5 0 -21 -1t-34 0t-33 4t-17 11v104q-42 5 -83 20.5t-79 44.5q-89 67 -103.5 150.5t45.5 171.5q42 62 95 101t122 54v102q6 6 8 7.5t11.5 2t31.5 0.5t69 2zM498 60
q8 3 22.5 9t30.5 13.5l32 15t27 15.5q-4 7 -15.5 23t-24.5 27q-38 -29 -92.5 -47.5t-123.5 -26.5q-1 37 -2.5 88t-3 103.5t-1.5 101.5t2 84q52 8 96.5 -3.5t86.5 -32.5q8 16 18 29.5t15 30.5v1q-26 15 -59 22t-64 10.5t-56 5t-34 5.5q-1 0 1 15.5t4 34t4.5 35t2.5 19.5h-77
v-109q-76 -17 -128 -55t-92 -97q-40 -58 -43 -113t21.5 -101t73.5 -81t114 -52q9 -3 20.5 -5t36.5 -5q1 -1 1.5 -18.5t0.5 -38.5t-0.5 -38t-1.5 -17q20 0 33 -1.5t33 -2.5q0 23 0.5 48t-0.5 51v18q13 1 30.5 5t36.5 9t38.5 11.5t36.5 13.5zM289 88q-51 6 -91.5 22.5
t-65.5 45t-32.5 69.5t7.5 97q9 32 54 69t126 63q1 -14 1.5 -40t0.5 -59t-0.5 -70.5t-0.5 -73.5v-68.5t1 -54.5zM129 315q-15 -50 -9.5 -86.5t26 -61.5t53 -39t70.5 -18q0 75 -0.5 155t-1.5 156q-49 -17 -88 -43.5t-50 -62.5z" />
    <glyph glyph-name="sterling" unicode="&#xa3;" horiz-adv-x="726" 
d="M24 404q-6 2 -9.5 19.5t-4.5 39t2 41t10 25.5q8 1 25 0.5t34.5 -0.5t30.5 -0.5t13 0.5q7 126 40 207t82 126t109 58.5t122 4.5t119.5 -35.5t102.5 -62.5q-6 -8 -11.5 -22.5t-12 -27.5t-14.5 -22t-19 -6q-88 52 -153.5 65t-112 -1t-76.5 -48.5t-47.5 -77t-24.5 -87.5
t-8 -79q25 -3 49.5 -1t48.5 4.5t48 4t48 -1.5q6 -2 9.5 -16.5t4.5 -32.5t-1 -33.5t-8 -19.5q-10 -6 -39.5 -8t-63 -2t-62 1t-36.5 2q3 -9 1 -37.5t1.5 -65.5t16 -77.5t44.5 -74t87.5 -53.5t144.5 -16q7 1 27 5t42.5 9t42 11t24.5 10q4 -5 13 -16t18 -24.5t15.5 -26.5
t5.5 -20q-26 -19 -66 -30.5t-87 -15t-96.5 0.5t-95.5 17t-85.5 34t-64.5 51q-11 -45 -39.5 -86t-65 -74.5t-75.5 -56.5t-70 -32q-3 12 -10 25.5t-16.5 27.5t-20.5 26t-20 21q60 2 102 23t69 54.5t41.5 78t20 94.5t4.5 103t-4 104q-18 0 -44.5 1t-44.5 -4h-10zM142 513
q2 -2 -12 -3.5t-33 -2.5t-37.5 -2t-24.5 -2v-1q0 -11 0.5 -23.5t0.5 -23.5t0.5 -19.5t1.5 -10.5q10 1 24.5 1.5t30 0.5t30 -0.5t23.5 -1.5q0 -59 0.5 -115.5t-4 -107.5t-16.5 -95t-37 -78.5t-66 -58.5t-103 -35q5 -3 13 -9t15.5 -14.5t13.5 -18t7 -18.5q31 11 66.5 35t67 56
t56 70t33.5 77q1 3 4.5 6t7.5 0q43 -32 92.5 -58t107.5 -38.5t126 -8t148 33.5q-9 16 -21 29t-19 28q-17 -12 -46.5 -18t-61.5 -9t-60 -2.5t-41 2.5q-25 4 -53 12q-4 0 -7 1q-59 22 -94.5 55.5t-53.5 77t-21.5 96t2.5 111.5l205 11q0 21 0.5 35t-4.5 34q10 2 -1.5 0.5
t-34 -3t-51.5 -3.5t-54.5 -2t-43 3t-17.5 10q0 16 3 45.5t12 64t24 70.5t38.5 66.5t57 52t78.5 26t102.5 -11.5t130.5 -59q11 5 19 18.5t16 29.5q-123 78 -223 90t-170.5 -31.5t-108.5 -137.5t-38 -226z" />
    <glyph glyph-name="currency" unicode="&#xa4;" horiz-adv-x="699" 
d="M161 545q37 19 80.5 30.5t88.5 13t90 -7t85 -27.5l33.5 33.5l26.5 26.5q0 1 11 -10t23.5 -24.5t23.5 -24.5t11 -10l-49 -51q43 -42 67 -96.5t16 -112.5q-8 -46 -35 -87t-69 -73q23 -24 38 -38l15 -15l-9 -10t-21 -22l-23 -23t-15 -14q-16 12 -35.5 33t-35.5 36
q-75 -33 -155.5 -35t-161.5 36q-7 -8 -16 -18t-19 -20t-19.5 -18.5t-16.5 -13.5q-7 4 -20 16.5t-26 26.5t-22.5 25l-9.5 11l66 68q-30 38 -44 85.5t-9 100.5q2 40 15 73.5t34 61.5q-28 26 -46.5 45.5t-18.5 22.5t-0.5 4t6.5 8t25 22.5t53 48.5q8 -12 26.5 -32.5t41.5 -44.5z
M593 73q-21 16 -33 25.5t-19 15t-10 7.5t-5 3q48 32 81.5 74.5t40.5 91.5q4 29 -2 58.5t-18.5 56t-30.5 49.5t-37 38l46 56q-14 9 -21.5 17t-17.5 24q-18 -19 -28 -30.5t-16 -17.5t-8 -8.5t-3 -3.5q-32 22 -77.5 31t-94.5 7t-96.5 -14.5t-81.5 -32.5q-2 2 -13 12.5t-24 22.5
t-23.5 22t-11.5 10l-4.5 -4.5l-11.5 -11.5t-16.5 -15t-19.5 -13q0 1 9.5 -9t21.5 -23t23 -24.5t13 -13.5q-35 -32 -50 -76t-12.5 -89.5t19.5 -88t46 -71.5q-70 -64 -68 -67q11 -11 25 -26.5t26 -26.5q6 7 14.5 17t18 20.5t19 20l15.5 15.5q36 -26 79.5 -37.5t88 -10.5
t85.5 14t72 36q6 -7 15 -18l18 -22t17 -20.5t13 -13.5q7 6 20 21t27 23zM127 383q10 30 35 54.5t58.5 41.5t72.5 25.5t77 7.5t72 -12.5t57 -34.5q44 -36 66.5 -88t2.5 -117q-11 -38 -42.5 -67t-73.5 -48t-89.5 -25.5t-92 -0.5t-80.5 27t-55 58q-22 45 -22 90.5t14 88.5z
M487 449q-41 35 -90.5 44t-97 -3t-88.5 -42.5t-65 -73.5q-8 -14 -10.5 -35t-1 -44t6 -44.5t12.5 -36.5q18 -35 55 -55t82 -24.5t92 5.5t86 34t64 61t25 86q0 47 -18.5 74t-51.5 54z" />
    <glyph glyph-name="yen" unicode="&#xa5;" horiz-adv-x="766" 
d="M581 178l-13 0.5t-35.5 1t-53 1t-64.5 0.5q-1 -54 -1 -103.5v-81.5q-5 0 -22.5 0.5t-37 1t-36 1.5t-17.5 2q-1 8 1 59t4 123h-86t-71 -1q0 28 2.5 47.5t2.5 46.5q0 9 10 11q45 -1 79 -1h65q1 12 1 24.5v24.5h-67t-83 1q-5 2 -8 3.5t-3 8.5l-2 95q-1 0 11.5 -0.5t35 -1.5
t52 -1.5t63.5 -0.5q-83 108 -142.5 187.5t-97.5 131t-55.5 77t-17.5 26.5l85 77q13 -22 39.5 -60.5t58 -84t65 -92t61.5 -84.5t46.5 -63t20.5 -27l317 411q8 6 21 -0.5t26.5 -17.5t25 -22.5l16.5 -16.5q-3 -2 -19.5 -22t-42 -52t-57 -71.5t-64.5 -80.5t-64 -80t-55 -69.5
t-38.5 -49l-14.5 -18.5h85.5t70.5 1q0 -28 -2.5 -47.5t-2.5 -46.5q0 -9 -10 -11q-46 0 -80 0.5t-65 0.5q-1 -12 -1 -24v-25q32 0 68 -0.5t85 -0.5q7 -3 8.5 -7t3.5 -12zM165 356q1 -1 13 -1.5t30 -0.5t38.5 0.5t38 0.5h29h11.5q0 -8 0.5 -23t0.5 -30t-0.5 -25.5t-1.5 -10.5
h-74.5t-75.5 1q0 -20 -1.5 -33t-3.5 -33q0 -1 12 -1h29t36.5 0.5t36.5 0.5t28.5 -0.5l11.5 -0.5l0.5 -13t0.5 -33v-43.5v-43.5t-0.5 -33.5l-0.5 -13.5q20 0 36 -1.5t36 -2.5q-1 2 -1 16t0.5 34.5t1 43.5t1.5 43t1.5 33l0.5 13q6 1 22 1t35 -1t39.5 -1.5t36 -1.5t24.5 -1t5 1
l1 69q-53 1 -92 0.5t-69 0.5l2 89q8 3 23 2.5t35 -2t43.5 -2.5t48.5 1q0 20 1.5 33t3.5 33q-27 -1 -65 -0.5t-89 0.5q-3 0 -2.5 7.5t-0.5 23.5l349 427q-16 12 -27 19t-26 20q-20 -23 -52.5 -67.5t-75 -101.5t-93 -122t-104.5 -129l-1 -1l-296 412l-59 -50q2 -4 16.5 -23.5
t36.5 -49.5l49.5 -67.5t56.5 -76t56 -75t48.5 -65t35 -46t13.5 -18.5q1 -10 2 -13.5t1.5 -4t-0.5 1t-5 1.5q-6 -2 -21.5 -2t-35 1t-39.5 2t-35.5 2t-24 1t-4.5 -1z" />
    <glyph glyph-name="brokenbar" unicode="&#xa6;" horiz-adv-x="176" 
d="M137 323q-47 2 -67.5 1t-28 -2t-7.5 -0.5t-6 6.5v2q0 66 0.5 142t1.5 153.5t1.5 153t0.5 142.5q2 8 17 11t33 4t34 0t21 -1q1 -45 1 -108v-131t-0.5 -134.5t-0.5 -119.5v-85.5v-33.5zM48 336l69 4q-1 1 -1 29.5t0.5 75t1 106t1 123t0.5 126.5t-1 115q-20 -1 -33 -2.5
t-33 -1.5q0 -65 -0.5 -138.5t-1.5 -149t-1.5 -149.5t-0.5 -138zM141 -299q-47 2 -69 2t-31.5 0.5t-11.5 2t-8 7.5v2q0 66 1 119t2.5 103t3 103t1.5 120q2 8 17 11t33 4t34 0t21 -1q1 -45 1.5 -97.5l1 -105t1 -101t1 -86t1 -60.5t1.5 -23zM41 -279h77q-1 1 -0.5 39.5t0.5 100
t-0.5 138.5t-2.5 155q-20 -1 -33 -2.5t-33 -1.5q0 -65 -1.5 -115.5t-3 -99t-2.5 -99.5t-1 -115z" />
    <glyph glyph-name="section" unicode="&#xa7;" horiz-adv-x="590" 
d="M497 483q36 -24 55.5 -62t25 -81.5t-2.5 -89t-26 -86.5q26 -42 30.5 -95t-8 -105.5t-40 -98t-65.5 -72.5q-51 -29 -108.5 -42.5t-115.5 -16t-114 4t-104 17.5q-4 5 -3.5 23.5t5 38t12.5 33.5t20 11q29 -15 74 -20.5t94 -2t96.5 18t83 40.5t53 64.5t6.5 90.5q-9 42 -34 68
t-60 41.5t-76.5 24t-83 16.5t-80.5 18t-68.5 29t-47 49.5t-16.5 79.5q1 29 6.5 61t18.5 57q4 8 8.5 16.5t9.5 16.5q-20 19 -32 46.5t-11 67.5q1 29 6.5 61t18.5 57q43 82 108.5 123t141 48.5t154 -15.5t146.5 -68q3 -5 -4 -21.5t-18 -33t-23.5 -27.5t-19.5 -5
q-68 40 -127 53t-107 6.5t-83 -28t-56 -48.5q-25 -34 -34.5 -60.5t0 -47t39 -35.5t83.5 -25q43 -8 77 -14.5t65.5 -16.5t63 -24.5t67.5 -39.5zM526 166q20 40 29 84t5.5 85t-19.5 75.5t-46 55.5q-36 24 -68 38t-64 23.5t-66.5 16.5t-75.5 18q-2 1 -20 3t-40.5 8.5t-45 19
t-33 34t-4 53t41.5 76.5q39 51 90.5 70.5t105.5 17t107 -21.5t95 -44h1q5 3 15.5 22t21.5 37q-63 44 -136.5 64.5t-144.5 13t-133 -46.5t-101 -115q-11 -22 -18.5 -54t-6 -63.5t15 -58t43.5 -36.5q-20 -24 -34 -53q-12 -24 -18.5 -55t-4 -62.5t16 -60t42.5 -48.5
q30 -19 70.5 -29t84 -18t86.5 -16.5t78.5 -25t59.5 -44.5t29 -73q6 -53 -5 -91t-34 -63.5t-55.5 -40.5t-69.5 -23.5t-76 -11.5t-75 -5q-7 0 -21.5 1.5t-31 4.5t-33.5 8t-30 11q-5 -17 -10 -38t-8 -35q35 -15 89 -20.5t112 -1.5t112.5 17t91.5 33q40 22 69.5 67t43.5 98.5
t8.5 107t-36.5 92.5zM475 214q-32 19 -61.5 31t-59.5 20t-62.5 15t-70.5 17q-4 1 -23 3.5t-42 9.5t-44 20.5t-29.5 36.5t2 57.5t50.5 84.5q55 -18 114 -29t109.5 -27.5t85.5 -46t41 -85.5q1 -9 2 -24t0.5 -30.5t-3.5 -30t-9 -22.5zM465 318q-11 52 -46 79.5t-81.5 42.5
t-99.5 23t-100 20l-2 -2q-25 -34 -34.5 -60.5t0 -47t39 -35.5t83.5 -25q37 -7 68 -13t59 -13.5t55 -18.5t57 -29q11 35 2 79z" />
    <glyph glyph-name="dieresis" unicode="&#xa8;" horiz-adv-x="374" 
d="M19 743q-4 1 -8 5.5t-4 9.5q1 23 3 46t3 46q1 2 17 3t35 0t35 -4.5t18 -9.5q2 -33 2.5 -52t-0.5 -29t-3.5 -13t-6.5 -3q-22 -2 -45.5 0t-45.5 1zM32 832q-1 -17 -4.5 -36t-4.5 -36q17 2 39 0t39 0l-3 67q-16 1 -33 2.5t-33 2.5zM249 743q-4 1 -8 5.5t-4 9.5q1 23 3 46
t3 46q1 2 17 3t35 0t35 -4.5t18 -9.5q2 -33 2.5 -52t-0.5 -29t-3.5 -13t-6.5 -3q-22 -2 -45.5 0t-45.5 1zM262 832q-1 -17 -4.5 -36t-4.5 -36q17 2 39 0t39 0l-3 67q-16 1 -33 2.5t-33 2.5z" />
    <glyph glyph-name="degree" unicode="&#xb0;" horiz-adv-x="416" 
d="M69 820q31 25 69.5 35t77.5 7.5t74 -17t59 -39t32 -58t-6 -74.5q-12 -35 -40.5 -67.5t-66 -53.5t-81.5 -26.5t-88 12.5q-45 19 -68 54.5t-26 76t13.5 81t50.5 69.5zM355 679q11 39 2.5 69.5t-30.5 52t-53 33t-65 13t-67.5 -8.5t-58.5 -32q-31 -27 -45.5 -62t-12 -70.5
t22.5 -67t59 -49.5q34 -16 73.5 -12t75 22t62.5 47.5t37 64.5zM186 788q26 2 50.5 -8t39.5 -27t16.5 -40t-17.5 -47q-11 -14 -21.5 -23t-22 -15t-25.5 -10.5t-31 -9.5q-20 -6 -40.5 3t-35 26t-21 38t1.5 40q9 22 17 34.5t19 20t25 11.5t35 8h3q1 0 1.5 0.5t1.5 0.5zM180 768
q-5 -2 -6 0q-20 -3 -33 -6.5t-28 -22.5q-14 -17 -15 -37.5t8 -37.5t26.5 -28t39.5 -9q29 3 50 16.5t32 30.5t12.5 36t-7.5 33.5t-28.5 22t-50.5 2.5z" />
    <glyph glyph-name="plusminus" unicode="&#xb1;" horiz-adv-x="500" 
d="M431 145q-1 0 -20.5 0.5t-52 1.5t-75 1.5t-88 1t-91 0t-85.5 -1.5q-4 -8 -11 -8t-9 9q0 28 2.5 47.5t2.5 46.5q0 2 1 3q0 6 9 8q67 -1 113.5 -1h89h89t112.5 -1h2q2 -1 3 -1t2 -1l1 -1l2 -2q1 -2 1 -7l3 -7zM412 232q-43 1 -76.5 1h-62.5h-55h-55h-62.5t-76.5 1
q0 -20 -1.5 -33t-3.5 -33h71t84.5 -0.5t85.5 -1.5t75.5 -1.5t54.5 -1l21 -0.5zM154 437q-6 2 -29.5 1t-49.5 -2.5t-47.5 -2.5t-24.5 2q-2 2 -3 2.5t-1 10.5t0.5 33.5t1.5 71.5q19 -3 45 -4.5t49 -1.5t39.5 1t16.5 4q-2 1 -2 13.5v33t0.5 46.5t-0.5 55q-1 1 14 1h34h34.5
t14.5 1q0 -1 1 -13.5t2 -30.5t2 -38t2 -36t2 -25t2 -4q0 -1 23.5 -0.5t51.5 0.5q33 0 74 1l1 -15t1.5 -34t0.5 -37v-22q-3 -5 -25 -6.5t-48 -1.5t-50 1t-31 1q1 -15 3 -34.5t3.5 -40.5t1.5 -41.5t-1 -36.5q-8 -2 -26 -3t-37 -1t-33.5 0.5t-14.5 1.5v13.5v32.5t0.5 47t2.5 57
zM170 532q1 -1 -21 -1.5t-50 -1.5q-33 -1 -75 -2l-0.5 -1.5t-1 -8t-1 -20.5t-1.5 -38h12.5t28.5 0.5t36 1t35 0.5h26.5h10.5q2 0 2.5 -11.5t0 -28.5t-1 -37t-1 -37t-0.5 -28.5t2 -12.5q12 3 35 1t39 0q-3 18 -3.5 38t-0.5 40v39t-1 35q0 3 8.5 2.5t26.5 -0.5t46.5 1t67.5 6
q0 4 -0.5 13t-1 19.5t-0.5 20.5t2 18q-7 1 -31 -1t-50.5 -4t-47 -3t-20.5 1q-2 1 -3.5 22t-2.5 47t-2 49.5t-1 28.5q-3 1 -11.5 1h-19t-20 -0.5t-12.5 -0.5q1 -28 1.5 -54t0.5 -46v-32.5v-14.5z" />
    <glyph glyph-name="cedilla" unicode="&#xb8;" horiz-adv-x="288" 
d="M23 -219q1 1 15 -0.5t33.5 -1.5t41.5 4.5t41 19.5l1 1q7 22 -2.5 36.5t-27.5 22t-40 9.5t-38 -1q-5 1 -10.5 0.5t-10.5 0t-8.5 3.5t-3.5 13q0 31 -1 65t-1 64q-3 4 13.5 5.5t36.5 2t38 -0.5l18 -1q-2 -23 0.5 -39.5t-0.5 -31.5q31 -1 64 -21t55.5 -50t27.5 -64.5
t-20 -64.5q-21 -26 -47.5 -38t-56.5 -16.5t-61 -4.5t-60 -2zM174 -204q-4 -12 -21.5 -20t-39.5 -12.5t-43.5 -5.5t-32.5 1v-47q26 1 52.5 1t51.5 4t48 14.5t41 33.5q22 27 15.5 56.5t-28 54t-53.5 40t-61 12.5q-1 2 -1.5 13.5t-1 25t-0.5 25v14.5q-4 -1 -17 -0.5t-26.5 1
t-22.5 0t-5 -3.5q0 -29 2.5 -56t2.5 -56q16 4 43 1t51.5 -14.5t39.5 -32t6 -49.5z" />
    <glyph glyph-name="questiondown" unicode="&#xbf;" horiz-adv-x="470" 
d="M310 703q31 1 50 1.5t28.5 -1t12.5 -4t3 -6.5v-67t1 -86.5t3 -85t4 -63.5q0 -7 2 -15t-8 -10q-27 9 -59.5 13.5t-65.5 2.5t-64 -10.5t-55 -25.5t-38.5 -44t-15.5 -65q-1 -35 15 -58.5t42 -37t59 -18.5t66.5 -4t65.5 7t56 15q1 -3 12 -15.5t21.5 -27t14 -27.5t-9.5 -18
q-39 -15 -79 -25.5t-77.5 -14.5t-72.5 -1t-65 15q-61 25 -98.5 71.5t-50.5 100.5t-1.5 109.5t49 97.5t101 64.5t154.5 11.5q-1 15 -1.5 44.5t-0.5 63t0.5 64.5t1.5 49zM325 458q-66 18 -121.5 8t-96 -39.5t-64.5 -72.5t-26 -91t19 -95.5t70 -85.5q60 -47 142 -48.5t194 37.5
q-4 2 -9 8.5t-10 14t-10.5 14.5t-9.5 11q-44 -10 -94.5 -16.5t-96 1t-79.5 34.5t-45 83q-3 14 0.5 36.5t16 46.5t35 46t57 36t83 16t112.5 -15v2q-4 40 -6 75.5t-2.5 70t-0.5 70.5t1 77q-7 -1 -16.5 0t-18.5 1.5t-15 1t-6 -0.5v-17.5v-38t-0.5 -49t-0.5 -51t-0.5 -43.5
t-1.5 -27zM299 856q5 2 21 4t33.5 1.5t32 -4.5t16.5 -14q1 -4 2 -13.5t2 -21t1 -23.5t-1 -19q-1 -5 -16.5 -6.5t-34.5 -1.5t-36 2.5t-20 7.5v88zM388 778q-1 20 -1 32.5v31.5h-70l-1 -64h72z" />
    <glyph glyph-name="Agrave" unicode="&#xc0;" horiz-adv-x="816" 
d="M19 -8q7 0 26 -1.5t39 -2.5t35.5 1.5t15.5 10.5q8 17 15 35.5t15 33.5q5 11 16.5 40.5t25.5 67t29.5 79.5t29 79t23.5 64.5t13 35.5q28 7 55 9t53 2t52.5 -0.5t52.5 1.5q5 -5 16 -34.5t26 -72t32.5 -93t34 -97.5t31 -86t24.5 -59q-2 -10 10 -10q6 1 22.5 0.5t35 0
t34.5 4.5t20 14q-23 47 -49.5 110.5t-53 135t-53 147.5t-50.5 148.5t-44.5 138t-36 115.5t-24.5 81t-10 36q-3 11 -12 9q-1 1 -3 1q-8 0 -19.5 -1t-23.5 -1h-23.5t-20.5 1q-8 2 -10.5 -2.5t-0.5 -9.5q-5 -11 -23 -56.5t-43.5 -112t-56.5 -148t-62.5 -165t-61 -163
t-52.5 -142t-36.5 -102t-12.5 -42.5zM533 469q1 1 -6.5 1h-19t-24.5 -1t-23 -1q-26 -1 -52.5 -2t-49 -2t-39 -2.5t-22.5 -2.5q-5 -1 -17 -29t-28 -70.5t-34.5 -94.5t-37 -101.5t-35.5 -90.5t-29 -63q-15 -2 -35.5 -1t-34.5 1q0 2 13.5 39t35.5 97.5l50 137.5t58.5 158.5
t60.5 161t54.5 144.5t42 110t23.5 56q7 -1 17.5 -1t21.5 0.5t21.5 1.5t17.5 1q5 -17 20.5 -70t39.5 -129.5t54 -169t63.5 -186t68 -182.5t68.5 -158h-18.5t-21.5 -1t-21 -2t-17 -2q-10 21 -26 63t-34.5 92t-37.5 103t-34 96t-24.5 70.5t-8.5 28.5zM318 529q29 -1 54 -1.5
t47.5 -0.5t45 1.5t46.5 4.5q-1 -2 -7 21.5t-15.5 60t-20 79t-20.5 79t-17.5 61t-10.5 24.5q-1 0 -10 -25.5t-21.5 -63.5t-27 -82t-25.5 -80.5t-16.5 -59t-1.5 -18.5zM419 811q0 -1 5 -20.5t13 -48t17 -61.5t16.5 -62t12 -49t3.5 -22q-24 -2 -40.5 -3t-31 -1.5t-31 0
t-41.5 0.5q0 1 5.5 20.5t13.5 48.5t18 62.5t18.5 63t14.5 49.5t7 23zM383 1219q3 2 9 -1t25 -21t57 -57t105 -110q2 -6 -7 -17t-21.5 -21.5t-24.5 -18t-16 -5.5q-5 6 -21 20t-38.5 32l-47.5 38l-47.5 38t-39 32t-20.5 20q-5 9 6.5 20t28 21.5t32.5 19t20 10.5zM514 987
q13 10 22.5 18.5t22.5 18.5l-174 177q-14 -8 -31.5 -23t-31.5 -23q3 -4 17.5 -17t35 -30t43.5 -36.5t43 -36.5t34.5 -30.5t18.5 -17.5z" />
    <glyph glyph-name="Aacute" unicode="&#xc1;" horiz-adv-x="816" 
d="M19 -8q-1 3 12.5 42.5t36.5 102t52.5 142t61 163t62.5 165t56.5 148t43.5 112t23 56.5q-2 5 0.5 9.5t10.5 2.5q9 -1 20.5 -1h23.5t23.5 1t19.5 1q2 0 3 -1q9 2 12 -9q1 -5 10 -36t24.5 -81t36 -115.5t44.5 -138t50.5 -148.5t53 -147.5t53 -135t49.5 -110.5
q-4 -10 -20 -14t-34.5 -4.5t-35 0t-22.5 -0.5q-12 0 -10 10q-10 20 -24.5 59t-31 86t-34 97.5t-32.5 93t-26 72t-16 34.5q-26 -2 -52.5 -1.5t-52.5 0.5t-53 -2t-55 -9q-3 -8 -13 -35.5t-23.5 -64.5t-29 -79t-29.5 -79.5t-25.5 -67t-16.5 -40.5q-8 -15 -15 -33.5t-15 -35.5
q0 -8 -15.5 -10.5t-35.5 -1.5t-39 2.5t-26 1.5zM533 469q-1 -1 8.5 -28.5t24.5 -70.5t34 -96t37.5 -103t34.5 -92t26 -63q7 1 17 2t21 2t21.5 1h18.5q-34 69 -68.5 158t-68 182.5t-63.5 186t-54 169t-39.5 129.5t-20.5 70q-7 0 -17.5 -1t-21.5 -1.5t-21.5 -0.5t-17.5 1
q-6 -11 -23.5 -56t-42 -110t-54.5 -144.5t-60.5 -161t-58.5 -158.5l-50 -137.5t-35.5 -97.5t-13.5 -39q14 0 34.5 -1t35.5 1q12 22 29 63t35.5 90.5t37 101.5t34.5 94.5t28 70.5t17 29q6 1 22.5 2.5t39 2.5t49 2t52.5 2q10 0 23 1t24.5 1h19t6.5 -1zM318 529q-4 -4 1.5 18.5
t16.5 59t25.5 80.5t27 82t21.5 63.5t10 25.5q3 0 10.5 -24.5t17.5 -61t20.5 -79t20 -79t15.5 -60t7 -21.5q-24 -3 -46.5 -4.5t-45 -1.5t-47.5 0.5t-54 1.5zM419 811q-1 -3 -7 -23t-14.5 -49.5t-18.5 -63t-18 -62.5t-13.5 -48.5t-5.5 -20.5q25 0 41.5 -0.5t31 0t31 1.5
t40.5 3q1 2 -3.5 22t-12 49t-16.5 62t-17 61.5t-13 48t-5 20.5zM468 1219q4 -2 20 -10.5t32.5 -19t28 -21.5t6.5 -20q-5 -6 -21 -20t-38.5 -32l-47.5 -38l-47.5 -38t-39 -32t-20.5 -20q-4 -2 -16 5.5t-24.5 18t-21.5 21.5t-7 17q67 71 105 110t57 57t25 21t9 1zM337 987
q3 4 18 17.5t35 30.5t43 36.5t43.5 36.5t35 30t17.5 17q-14 8 -31.5 23t-31.5 23l-174 -177q13 -10 22.5 -18.5t22.5 -18.5z" />
    <glyph glyph-name="Acircumflex" unicode="&#xc2;" horiz-adv-x="816" 
d="M19 -8q7 0 26 -1.5t39 -2.5t35.5 1.5t15.5 10.5q8 17 15 35.5t15 33.5q5 11 16.5 40.5t25.5 67t29.5 79.5t29 79t23.5 64.5t13 35.5q28 7 55 9t53 2t52.5 -0.5t52.5 1.5q5 -5 16 -34.5t26 -72t32.5 -93t34 -97.5t31 -86t24.5 -59q-2 -10 10 -10q6 1 22.5 0.5t35 0
t34.5 4.5t20 14q-23 47 -49.5 110.5t-53 135t-53 147.5t-50.5 148.5t-44.5 138t-36 115.5t-24.5 81t-10 36q-3 11 -12 9q-1 1 -3 1q-8 0 -19.5 -1t-23.5 -1h-23.5t-20.5 1q-8 2 -10.5 -2.5t-0.5 -9.5q-5 -11 -23 -56.5t-43.5 -112t-56.5 -148t-62.5 -165t-61 -163
t-52.5 -142t-36.5 -102t-12.5 -42.5zM533 469q1 1 -6.5 1h-19t-24.5 -1t-23 -1q-26 -1 -52.5 -2t-49 -2t-39 -2.5t-22.5 -2.5q-5 -1 -17 -29t-28 -70.5t-34.5 -94.5t-37 -101.5t-35.5 -90.5t-29 -63q-15 -2 -35.5 -1t-34.5 1q0 2 13.5 39t35.5 97.5l50 137.5t58.5 158.5
t60.5 161t54.5 144.5t42 110t23.5 56q7 -1 17.5 -1t21.5 0.5t21.5 1.5t17.5 1q5 -17 20.5 -70t39.5 -129.5t54 -169t63.5 -186t68 -182.5t68.5 -158h-18.5t-21.5 -1t-21 -2t-17 -2q-10 21 -26 63t-34.5 92t-37.5 103t-34 96t-24.5 70.5t-8.5 28.5zM318 529q29 -1 54 -1.5
t47.5 -0.5t45 1.5t46.5 4.5q-1 -2 -7 21.5t-15.5 60t-20 79t-20.5 79t-17.5 61t-10.5 24.5q-1 0 -10 -25.5t-21.5 -63.5t-27 -82t-25.5 -80.5t-16.5 -59t-1.5 -18.5zM419 811q0 -1 5 -20.5t13 -48t17 -61.5t16.5 -62t12 -49t3.5 -22q-24 -2 -40.5 -3t-31 -1.5t-31 0
t-41.5 0.5q0 1 5.5 20.5t13.5 48.5t18 62.5t18.5 63t14.5 49.5t7 23zM418 1121q1 -1 -8.5 -13.5t-24 -31t-32.5 -40t-34 -40t-27 -31t-12 -12.5q-14 14 -33.5 28t-40.5 20q-8 6 2 18t32.5 37.5t55.5 68t72 108.5q2 0 15 -0.5t28.5 -1.5t29 -4t18.5 -7l11 -14.5t27.5 -36.5
t35.5 -47t35.5 -46.5t27 -36l10.5 -14.5q3 -6 -3.5 -15t-16.5 -18t-21.5 -16.5t-18.5 -9.5q-5 -2 -15 8t-22.5 25.5t-26.5 35t-26.5 37l-22.5 31.5t-15 18zM589 1021q-1 0 -12 13.5t-27 34.5t-35 45.5t-35 45.5t-26 35l-10 14q1 1 -2 1l1 -1q-2 -1 -12.5 -0.5t-22.5 0.5h-22
t-11 -2q-51 -72 -80.5 -110.5t-45 -56t-20 -20t-5.5 -3.5q14 -5 30.5 -17t27.5 -22q2 2 12.5 15.5t25 32.5t31 40t31 39t24.5 30t12 12q4 0 13.5 -11.5t22 -28.5t26.5 -37.5t27 -38.5t23.5 -30.5t15.5 -14.5q11 4 23 12t20 23z" />
    <glyph glyph-name="Atilde" unicode="&#xc3;" horiz-adv-x="816" 
d="M19 -8q-1 3 12.5 42.5t36.5 102t52.5 142t61 163t62.5 165t56.5 148t43.5 112t23 56.5q-2 5 0.5 9.5t10.5 2.5q9 -1 20.5 -1h23.5t23.5 1t19.5 1q2 0 3 -1q9 2 12 -9q1 -5 10 -36t24.5 -81t36 -115.5t44.5 -138t50.5 -148.5t53 -147.5t53 -135t49.5 -110.5
q-4 -10 -20 -14t-34.5 -4.5t-35 0t-22.5 -0.5q-12 0 -10 10q-10 20 -24.5 59t-31 86t-34 97.5t-32.5 93t-26 72t-16 34.5q-26 -2 -52.5 -1.5t-52.5 0.5t-53 -2t-55 -9q-3 -8 -13 -35.5t-23.5 -64.5t-29 -79t-29.5 -79.5t-25.5 -67t-16.5 -40.5q-8 -15 -15 -33.5t-15 -35.5
q0 -8 -15.5 -10.5t-35.5 -1.5t-39 2.5t-26 1.5zM533 469q-1 -1 8.5 -28.5t24.5 -70.5t34 -96t37.5 -103t34.5 -92t26 -63q7 1 17 2t21 2t21.5 1h18.5q-34 69 -68.5 158t-68 182.5t-63.5 186t-54 169t-39.5 129.5t-20.5 70q-7 0 -17.5 -1t-21.5 -1.5t-21.5 -0.5t-17.5 1
q-6 -11 -23.5 -56t-42 -110t-54.5 -144.5t-60.5 -161t-58.5 -158.5l-50 -137.5t-35.5 -97.5t-13.5 -39q14 0 34.5 -1t35.5 1q12 22 29 63t35.5 90.5t37 101.5t34.5 94.5t28 70.5t17 29q6 1 22.5 2.5t39 2.5t49 2t52.5 2q10 0 23 1t24.5 1h19t6.5 -1zM318 529q-4 -4 1.5 18.5
t16.5 59t25.5 80.5t27 82t21.5 63.5t10 25.5q3 0 10.5 -24.5t17.5 -61t20.5 -79t20 -79t15.5 -60t7 -21.5q-24 -3 -46.5 -4.5t-45 -1.5t-47.5 0.5t-54 1.5zM419 811q-1 -3 -7 -23t-14.5 -49.5t-18.5 -63t-18 -62.5t-13.5 -48.5t-5.5 -20.5q25 0 41.5 -0.5t31 0t31 1.5
t40.5 3q1 2 -3.5 22t-12 49t-16.5 62t-17 61.5t-13 48t-5 20.5zM190 1088q0 6 3 9q4 15 22.5 28.5t41 24t45 17t35.5 6.5t29 -6.5t25 -11.5q32 -15 51.5 -30t35 -22.5t32 -4t42.5 23.5q9 8 21.5 20.5t16.5 24.5q2 5 5 6q2 4 7 5t10 -3q3 -7 13 -16t20.5 -19t18.5 -19.5
t6 -17.5t-13.5 -24t-47.5 -47q-43 -38 -76 -45.5t-62.5 2t-58.5 29.5t-64 39q-8 4 -22 1.5t-28 -9.5t-26 -16t-16 -17q-7 -5 -13 4q-8 5 -16.5 13.5t-16 18t-13 19.5t-7.5 17zM212 1090q-1 -1 -1 -2q5 -12 16 -23t21 -22q4 4 14.5 11.5t23.5 13.5t26.5 9.5t24.5 0.5
q27 -7 48 -19.5t39 -24t35.5 -20.5t37.5 -10t44 8.5t56 35.5q4 4 12 11t15.5 15.5t14 16.5t8.5 13l-42 47q-7 -13 -18.5 -25t-22.5 -20q-36 -27 -58 -28.5t-42 10t-46 30.5t-70 34q-9 3 -30.5 -2.5t-44.5 -15t-41 -22t-20 -22.5z" />
    <glyph glyph-name="Adieresis" unicode="&#xc4;" horiz-adv-x="816" 
d="M19 -8q-1 3 12.5 42.5t36.5 102t52.5 142t61 163t62.5 165t56.5 148t43.5 112t23 56.5q-2 5 0.5 9.5t10.5 2.5q9 -1 20.5 -1h23.5t23.5 1t19.5 1q2 0 3 -1q9 2 12 -9q1 -5 10 -36t24.5 -81t36 -115.5t44.5 -138t50.5 -148.5t53 -147.5t53 -135t49.5 -110.5
q-4 -10 -20 -14t-34.5 -4.5t-35 0t-22.5 -0.5q-12 0 -10 10q-10 20 -24.5 59t-31 86t-34 97.5t-32.5 93t-26 72t-16 34.5q-26 -2 -52.5 -1.5t-52.5 0.5t-53 -2t-55 -9q-3 -8 -13 -35.5t-23.5 -64.5t-29 -79t-29.5 -79.5t-25.5 -67t-16.5 -40.5q-8 -15 -15 -33.5t-15 -35.5
q0 -8 -15.5 -10.5t-35.5 -1.5t-39 2.5t-26 1.5zM533 469q-1 -1 8.5 -28.5t24.5 -70.5t34 -96t37.5 -103t34.5 -92t26 -63q7 1 17 2t21 2t21.5 1h18.5q-34 69 -68.5 158t-68 182.5t-63.5 186t-54 169t-39.5 129.5t-20.5 70q-7 0 -17.5 -1t-21.5 -1.5t-21.5 -0.5t-17.5 1
q-6 -11 -23.5 -56t-42 -110t-54.5 -144.5t-60.5 -161t-58.5 -158.5l-50 -137.5t-35.5 -97.5t-13.5 -39q14 0 34.5 -1t35.5 1q12 22 29 63t35.5 90.5t37 101.5t34.5 94.5t28 70.5t17 29q6 1 22.5 2.5t39 2.5t49 2t52.5 2q10 0 23 1t24.5 1h19t6.5 -1zM318 529q-4 -4 1.5 18.5
t16.5 59t25.5 80.5t27 82t21.5 63.5t10 25.5q3 0 10.5 -24.5t17.5 -61t20.5 -79t20 -79t15.5 -60t7 -21.5q-24 -3 -46.5 -4.5t-45 -1.5t-47.5 0.5t-54 1.5zM419 811q-1 -3 -7 -23t-14.5 -49.5t-18.5 -63t-18 -62.5t-13.5 -48.5t-5.5 -20.5q25 0 41.5 -0.5t31 0t31 1.5
t40.5 3q1 2 -3.5 22t-12 49t-16.5 62t-17 61.5t-13 48t-5 20.5zM271 1013q-4 1 -8 5.5t-4 9.5q1 23 3 46t3 46q1 2 17 3t35 0t35 -4.5t18 -9.5q2 -33 2.5 -52t-0.5 -29t-3.5 -13t-6.5 -3q-22 -2 -45.5 0t-45.5 1zM284 1102q-1 -17 -4.5 -36t-4.5 -36q17 2 39 0t39 0l-3 67
q-16 1 -33 2.5t-33 2.5zM501 1013q-4 1 -8 5.5t-4 9.5q1 23 3 46t3 46q1 2 17 3t35 0t35 -4.5t18 -9.5q2 -33 2.5 -52t-0.5 -29t-3.5 -13t-6.5 -3q-22 -2 -45.5 0t-45.5 1zM514 1102q-1 -17 -4.5 -36t-4.5 -36q17 2 39 0t39 0l-3 67q-16 1 -33 2.5t-33 2.5z" />
    <glyph glyph-name="Aring" unicode="&#xc5;" horiz-adv-x="816" 
d="M19 -8q-1 3 12.5 42.5t36.5 102t52.5 142t61 163t62.5 165t56.5 148t43.5 112t23 56.5q-2 5 0.5 9.5t10.5 2.5q9 -1 20.5 -1h23.5t23.5 1t19.5 1q2 0 3 -1q9 2 12 -9q1 -5 10 -36t24.5 -81t36 -115.5t44.5 -138t50.5 -148.5t53 -147.5t53 -135t49.5 -110.5
q-4 -10 -20 -14t-34.5 -4.5t-35 0t-22.5 -0.5q-12 0 -10 10q-10 20 -24.5 59t-31 86t-34 97.5t-32.5 93t-26 72t-16 34.5q-26 -2 -52.5 -1.5t-52.5 0.5t-53 -2t-55 -9q-3 -8 -13 -35.5t-23.5 -64.5t-29 -79t-29.5 -79.5t-25.5 -67t-16.5 -40.5q-8 -15 -15 -33.5t-15 -35.5
q0 -8 -15.5 -10.5t-35.5 -1.5t-39 2.5t-26 1.5zM533 469q-1 -1 8.5 -28.5t24.5 -70.5t34 -96t37.5 -103t34.5 -92t26 -63q7 1 17 2t21 2t21.5 1h18.5q-34 69 -68.5 158t-68 182.5t-63.5 186t-54 169t-39.5 129.5t-20.5 70q-7 0 -17.5 -1t-21.5 -1.5t-21.5 -0.5t-17.5 1
q-6 -11 -23.5 -56t-42 -110t-54.5 -144.5t-60.5 -161t-58.5 -158.5l-50 -137.5t-35.5 -97.5t-13.5 -39q14 0 34.5 -1t35.5 1q12 22 29 63t35.5 90.5t37 101.5t34.5 94.5t28 70.5t17 29q6 1 22.5 2.5t39 2.5t49 2t52.5 2q10 0 23 1t24.5 1h19t6.5 -1zM318 529q-4 -4 1.5 18.5
t16.5 59t25.5 80.5t27 82t21.5 63.5t10 25.5q3 0 10.5 -24.5t17.5 -61t20.5 -79t20 -79t15.5 -60t7 -21.5q-24 -3 -46.5 -4.5t-45 -1.5t-47.5 0.5t-54 1.5zM419 811q-1 -3 -7 -23t-14.5 -49.5t-18.5 -63t-18 -62.5t-13.5 -48.5t-5.5 -20.5q25 0 41.5 -0.5t31 0t31 1.5
t40.5 3q1 2 -3.5 22t-12 49t-16.5 62t-17 61.5t-13 48t-5 20.5zM318 1257q31 25 69.5 35t77.5 7.5t74 -17t59 -39t32 -58t-6 -74.5q-12 -35 -40.5 -67.5t-66 -53.5t-81.5 -26.5t-88 12.5q-45 19 -68 54.5t-26 76t13.5 81t50.5 69.5zM604 1116q11 39 2.5 69.5t-30.5 52
t-53 33t-65 13t-67.5 -8.5t-58.5 -32q-31 -27 -45.5 -62t-12 -70.5t22.5 -67t59 -49.5q34 -16 73.5 -12t75 22t62.5 47.5t37 64.5zM435 1225q26 2 50.5 -8t39.5 -27t16.5 -40t-17.5 -47q-11 -14 -21.5 -23t-22 -15t-25.5 -10.5t-31 -9.5q-20 -6 -40.5 3t-35 26t-21 38
t1.5 40q9 22 17 34.5t19 20t25 11.5t35 8h3q1 0 1.5 0.5t1.5 0.5zM429 1205q-5 -2 -6 0q-20 -3 -33 -6.5t-28 -22.5q-14 -17 -15 -37.5t8 -37.5t26.5 -28t39.5 -9q29 3 50 16.5t32 30.5t12.5 36t-7.5 33.5t-28.5 22t-50.5 2.5z" />
    <glyph glyph-name="AE" unicode="&#xc6;" horiz-adv-x="887" 
d="M794 469q-1 -1 -21.5 -4t-51 -6.5t-65.5 -7t-65.5 -6.5t-51 -4.5t-21.5 -1.5v-20.5v-50.5v-69.5v-77v-73.5v-59q33 -1 70 -0.5t73.5 2t70 3t60 3t43 1.5t19.5 -2q6 -5 8.5 -19.5t3 -30.5t-1.5 -30.5t-6 -18.5q-1 0 -2 -0.5t-2 -0.5h-1q-48 0 -97 0.5t-98 -1.5
q-7 0 -28.5 -0.5t-49 -0.5h-57.5t-54.5 0.5t-39.5 1.5t-13 2l0.5 38.5t1 101t1 143t0.5 165.5q-29 0 -58 -1.5t-59 -9.5q-3 -8 -13 -35.5t-23.5 -64.5t-29 -79t-29.5 -79.5t-25.5 -67t-16.5 -40.5q-8 -15 -15 -33.5t-15 -35.5q0 -8 -15.5 -10.5t-35.5 -1.5t-39 2.5t-26 1.5
q-1 3 12.5 42.5t36.5 102t52.5 142t61 163t62.5 165t56.5 148t43.5 112t23 56.5q-2 5 0.5 9.5t10.5 2.5q2 0 7 -1t20 -1.5t43 -1.5t76.5 -1h121.5t177 1q7 2 13 -12.5t8.5 -32.5t0.5 -34.5t-11 -17.5q-49 0 -86 -1.5t-72 -3t-72 -3t-85 -1.5q0 -28 -0.5 -65t-0.5 -76v-76
v-65q37 1 69 2.5t62 2.5t61 2.5t67 3.5q7 2 10.5 -11t5 -29t1.5 -30v-15zM384 914q-6 -11 -23.5 -56t-42 -110t-54.5 -144.5t-60.5 -161t-58.5 -158.5l-50 -137.5t-35.5 -97.5t-13.5 -39q14 0 34.5 -1t35.5 1q12 22 29 63t35.5 90.5t37 101.5t34.5 94.5t28 70.5t17 29
q2 -2 23 -0.5t46 3.5t46.5 3t23.5 0q-1 -132 -1 -241.5v-208.5q34 1 61 0.5t51.5 -1t51 -0.5t60.5 1q48 2 96 1.5t96 -0.5q-2 20 -4.5 32t-3.5 32q-49 -2 -88.5 -3t-78 -2.5t-78 -3t-88.5 -2.5h-1q-11 0 -11 12l5 378q37 1 70.5 4t66 6t66 6t70.5 5q-2 11 -3.5 27.5
t-3.5 26.5q-9 -1 -32.5 -2.5t-53.5 -2.5t-62.5 -2t-60 -1.5t-45 -0.5t-17.5 1v46.5v60.5v66t0.5 63t1 51t1.5 32q1 -1 33.5 -0.5t81.5 2t106.5 3.5t107.5 4l-7 57zM419 855q3 0 2.5 0.5t0 0.5t3 -0.5t11.5 -1.5q0 -38 0.5 -75.5t1 -76.5t0.5 -81v-90q-1 0 -13.5 -1t-30.5 -2
t-38.5 -1t-37.5 2q-3 -2 3.5 21.5t17.5 59.5t25 78.5t26 79.5t20.5 61.5t8.5 25.5zM419 544q0 80 0.5 152.5t1.5 126.5q-17 -70 -41.5 -139t-37.5 -140q27 -1 44 -1t33 1z" />
    <glyph glyph-name="Ccedilla" unicode="&#xc7;" horiz-adv-x="703" 
d="M430 -190q1 1 15 -0.5t33.5 -1.5t41.5 4.5t41 19.5l1 1q7 22 -2.5 36.5t-27.5 22t-40 9.5t-38 -1q-5 1 -10.5 0.5t-10.5 0t-8.5 3.5t-3.5 13q0 22 -0.5 45t-1.5 46q-53 7 -108 24t-104.5 44.5t-91 68t-68.5 96t-36 127.5t6 162q17 98 53.5 169.5t87 119.5t111 75
t125.5 35t131 -0.5t127 -30.5q16 -6 23.5 -11t10.5 -9t3 -8t2 -10q-6 -8 -12 -20t-12.5 -22.5t-15 -17.5t-19.5 -4q-46 19 -95.5 28.5t-99.5 6t-98.5 -20.5t-93.5 -51q-49 -38 -82 -88t-48.5 -106t-14 -114.5t20 -113t54 -101.5t88.5 -80q54 -32 115 -49.5t124 -12.5
q7 1 27 5t42.5 9t42 11t24.5 10q3 -3 10 -13t15 -22t14.5 -23t8.5 -15q5 -4 4 -14q-9 -17 -53.5 -28.5t-110.5 -12.5v-10t-1 -10q31 -1 64 -21t55.5 -50t27.5 -64.5t-20 -64.5q-21 -26 -47.5 -38t-56.5 -16.5t-61 -4.5t-60 -2zM581 -175q-4 -12 -21.5 -20t-39.5 -12.5
t-43.5 -5.5t-32.5 1v-47q26 1 52.5 1t51.5 4t48 14.5t41 33.5q22 27 15.5 57.5t-28.5 56t-54 40t-60 9.5q0 1 -0.5 11t-1 21t-1 21t-0.5 12q41 -1 83.5 6t75.5 20q-9 16 -21 29t-19 28q-17 -12 -46.5 -18t-61.5 -9t-60 -2.5t-41 2.5q-40 7 -85 21t-83 43q-98 74 -143.5 172
t-19.5 226q14 65 45 118t74 92.5t95 65t108.5 34.5t114.5 1t113 -34q11 5 19 18.5t16 29.5q-13 13 -44.5 24.5t-75.5 17.5t-97 4.5t-107 -15t-106 -41.5t-95 -75.5t-73.5 -116t-41.5 -162.5q-8 -77 3.5 -140.5t39 -114.5t67.5 -90.5t88 -66.5t101 -43t106 -20
q2 -36 3.5 -59.5t1.5 -46.5q16 4 43 1t51.5 -14.5t39.5 -32t6 -49.5z" />
    <glyph glyph-name="Egrave" unicode="&#xc8;" horiz-adv-x="550" 
d="M450 500v15t-1.5 30t-5 29t-10.5 11q-36 -2 -76.5 -3.5t-82 -2.5t-83 -2.5t-78.5 -2.5v61v66.5t0.5 66.5t0.5 61q97 1 187.5 5t188.5 4q9 1 11 17.5t-0.5 34.5t-8.5 32.5t-13 12.5q-110 -1 -229.5 -1t-230.5 -1q-1 -1 -1.5 -41.5t-1.5 -106t-1 -149t-0.5 -170.5t-1 -170
t-1 -148.5t-0.5 -105.5t-1 -40q-2 -1 17.5 -2t51 -1.5t69 -0.5h72t60 0.5t33.5 0.5q49 2 98 1.5t97 -0.5h1q1 0 2 0.5t2 0.5q4 4 6 18.5t1.5 30.5t-3 30.5t-8.5 19.5q-3 2 -24 2t-54.5 -1.5t-75 -3t-84.5 -3t-84.5 -2t-74.5 0.5v61v78.5v83.5v76v55.5v22.5q1 0 26 1.5
t62 4.5t80.5 6.5t80.5 7t62 6.5t26 4zM93 85q0 -12 11 -12h1q98 2 197 5t197 6q1 -20 3.5 -32t4.5 -32q-48 0 -96 0.5t-96 -1.5q-69 -2 -142.5 0t-142.5 0q0 61 0.5 134t0.5 152.5t1 161.5t1 161.5t0.5 152.5t0.5 134q109 1 222 0t223 0l7 -57q-33 -2 -75 -3t-85 -2.5
t-84 -2.5t-73.5 -1.5t-52.5 -0.5t-20 1q-2 -14 -2.5 -51t-0.5 -81.5v-88v-71.5q0 -1 22 -1t56 0.5t74.5 1.5t77.5 2t65 2.5t37 2.5q2 -10 3.5 -26.5t3.5 -27.5q-37 -2 -80 -5t-87 -6t-87 -6t-80 -4zM204 1219q3 2 9 -1t25 -21t57 -57t105 -110q2 -6 -7 -17t-21.5 -21.5
t-24.5 -18t-16 -5.5q-5 6 -21 20t-38.5 32l-47.5 38l-47.5 38t-39 32t-20.5 20q-5 9 6.5 20t28 21.5t32.5 19t20 10.5zM335 987q13 10 22.5 18.5t22.5 18.5l-174 177q-14 -8 -31.5 -23t-31.5 -23q3 -4 17.5 -17t35 -30t43.5 -36.5t43 -36.5t34.5 -30.5t18.5 -17.5z" />
    <glyph glyph-name="Eacute" unicode="&#xc9;" horiz-adv-x="550" 
d="M450 500q-1 -1 -26 -4t-62 -6.5t-80.5 -7t-80.5 -6.5t-62 -4.5t-26 -1.5v-22.5v-55.5v-76v-83.5v-78.5v-61q33 -1 74.5 -0.5t84.5 2t84.5 3t75 3t54.5 1.5t24 -2q6 -5 8.5 -19.5t3 -30.5t-1.5 -30.5t-6 -18.5q-1 0 -2 -0.5t-2 -0.5h-1q-48 0 -97 0.5t-98 -1.5
q-8 0 -33.5 -0.5t-60 -0.5h-72t-69 0.5t-51 1.5t-17.5 2q1 0 1 40t0.5 105.5t1 148.5t1 170t0.5 170.5t1 149t1.5 106t1.5 41.5q111 1 230.5 1t229.5 1q7 2 13 -12.5t8.5 -32.5t0.5 -34.5t-11 -17.5q-98 0 -188.5 -4t-187.5 -5q0 -28 -0.5 -61t-0.5 -66.5v-66.5v-61
q37 1 78.5 2.5t83 2.5t82 2.5t76.5 3.5q7 2 10.5 -11t5 -29t1.5 -30v-15zM98 490q37 1 80 4t87 6t87 6t80 5q-2 11 -3.5 27.5t-3.5 26.5q-9 -1 -37 -2.5t-65 -2.5t-77.5 -2t-74.5 -1.5t-56 -0.5t-22 1v71.5v88t0.5 81.5t2.5 51q0 -1 20 -1t52.5 0.5t73.5 1.5t84 2.5t85 2.5
t75 3l-7 57q-110 -1 -223 0t-222 0q0 -61 -0.5 -134t-0.5 -152.5t-1 -161.5t-1 -161.5t-0.5 -152.5t-0.5 -134q69 2 142.5 0t142.5 0q48 2 96 1.5t96 -0.5q-2 20 -4.5 32t-3.5 32q-98 -3 -197 -6t-197 -5h-1q-11 0 -11 12zM326 1219q4 -2 20 -10.5t32.5 -19t28 -21.5
t6.5 -20q-5 -6 -21 -20t-38.5 -32l-47.5 -38l-47.5 -38t-39 -32t-20.5 -20q-4 -2 -16 5.5t-24.5 18t-21.5 21.5t-7 17q67 71 105 110t57 57t25 21t9 1zM195 987q3 4 18 17.5t35 30.5t43 36.5t43.5 36.5t35 30t17.5 17q-14 8 -31.5 23t-31.5 23l-174 -177q13 -10 22.5 -18.5
t22.5 -18.5z" />
    <glyph glyph-name="Ecircumflex" unicode="&#xca;" horiz-adv-x="550" 
d="M450 500v15t-1.5 30t-5 29t-10.5 11q-36 -2 -76.5 -3.5t-82 -2.5t-83 -2.5t-78.5 -2.5v61v66.5t0.5 66.5t0.5 61q97 1 187.5 5t188.5 4q9 1 11 17.5t-0.5 34.5t-8.5 32.5t-13 12.5q-110 -1 -229.5 -1t-230.5 -1q-1 -1 -1.5 -41.5t-1.5 -106t-1 -149t-0.5 -170.5t-1 -170
t-1 -148.5t-0.5 -105.5t-1 -40q-2 -1 17.5 -2t51 -1.5t69 -0.5h72t60 0.5t33.5 0.5q49 2 98 1.5t97 -0.5h1q1 0 2 0.5t2 0.5q4 4 6 18.5t1.5 30.5t-3 30.5t-8.5 19.5q-3 2 -24 2t-54.5 -1.5t-75 -3t-84.5 -3t-84.5 -2t-74.5 0.5v61v78.5v83.5v76v55.5v22.5q1 0 26 1.5
t62 4.5t80.5 6.5t80.5 7t62 6.5t26 4zM93 85q0 -12 11 -12h1q98 2 197 5t197 6q1 -20 3.5 -32t4.5 -32q-48 0 -96 0.5t-96 -1.5q-69 -2 -142.5 0t-142.5 0q0 61 0.5 134t0.5 152.5t1 161.5t1 161.5t0.5 152.5t0.5 134q109 1 222 0t223 0l7 -57q-33 -2 -75 -3t-85 -2.5
t-84 -2.5t-73.5 -1.5t-52.5 -0.5t-20 1q-2 -14 -2.5 -51t-0.5 -81.5v-88v-71.5q0 -1 22 -1t56 0.5t74.5 1.5t77.5 2t65 2.5t37 2.5q2 -10 3.5 -26.5t3.5 -27.5q-37 -2 -80 -5t-87 -6t-87 -6t-80 -4zM272 1121q1 -1 -8.5 -13.5t-24 -31t-32.5 -40t-34 -40t-27 -31t-12 -12.5
q-14 14 -33.5 28t-40.5 20q-8 6 2 18t32.5 37.5t55.5 68t72 108.5q2 0 15 -0.5t28.5 -1.5t29 -4t18.5 -7l11 -14.5t27.5 -36.5t35.5 -47t35.5 -46.5t27 -36l10.5 -14.5q3 -6 -3.5 -15t-16.5 -18t-21.5 -16.5t-18.5 -9.5q-5 -2 -15 8t-22.5 25.5t-26.5 35t-26.5 37
l-22.5 31.5t-15 18zM443 1021q-1 0 -12 13.5t-27 34.5t-35 45.5t-35 45.5t-26 35l-10 14q1 1 -2 1l1 -1q-2 -1 -12.5 -0.5t-22.5 0.5h-22t-11 -2q-51 -72 -80.5 -110.5t-45 -56t-20 -20t-5.5 -3.5q14 -5 30.5 -17t27.5 -22q2 2 12.5 15.5t25 32.5t31 40t31 39t24.5 30t12 12
q4 0 13.5 -11.5t22 -28.5t26.5 -37.5t27 -38.5t23.5 -30.5t15.5 -14.5q11 4 23 12t20 23z" />
    <glyph glyph-name="Edieresis" unicode="&#xcb;" horiz-adv-x="550" 
d="M450 500q-1 -1 -26 -4t-62 -6.5t-80.5 -7t-80.5 -6.5t-62 -4.5t-26 -1.5v-22.5v-55.5v-76v-83.5v-78.5v-61q33 -1 74.5 -0.5t84.5 2t84.5 3t75 3t54.5 1.5t24 -2q6 -5 8.5 -19.5t3 -30.5t-1.5 -30.5t-6 -18.5q-1 0 -2 -0.5t-2 -0.5h-1q-48 0 -97 0.5t-98 -1.5
q-8 0 -33.5 -0.5t-60 -0.5h-72t-69 0.5t-51 1.5t-17.5 2q1 0 1 40t0.5 105.5t1 148.5t1 170t0.5 170.5t1 149t1.5 106t1.5 41.5q111 1 230.5 1t229.5 1q7 2 13 -12.5t8.5 -32.5t0.5 -34.5t-11 -17.5q-98 0 -188.5 -4t-187.5 -5q0 -28 -0.5 -61t-0.5 -66.5v-66.5v-61
q37 1 78.5 2.5t83 2.5t82 2.5t76.5 3.5q7 2 10.5 -11t5 -29t1.5 -30v-15zM98 490q37 1 80 4t87 6t87 6t80 5q-2 11 -3.5 27.5t-3.5 26.5q-9 -1 -37 -2.5t-65 -2.5t-77.5 -2t-74.5 -1.5t-56 -0.5t-22 1v71.5v88t0.5 81.5t2.5 51q0 -1 20 -1t52.5 0.5t73.5 1.5t84 2.5t85 2.5
t75 3l-7 57q-110 -1 -223 0t-222 0q0 -61 -0.5 -134t-0.5 -152.5t-1 -161.5t-1 -161.5t-0.5 -152.5t-0.5 -134q69 2 142.5 0t142.5 0q48 2 96 1.5t96 -0.5q-2 20 -4.5 32t-3.5 32q-98 -3 -197 -6t-197 -5h-1q-11 0 -11 12zM111 1013q-4 1 -8 5.5t-4 9.5q1 23 3 46t3 46
q1 2 17 3t35 0t35 -4.5t18 -9.5q2 -33 2.5 -52t-0.5 -29t-3.5 -13t-6.5 -3q-22 -2 -45.5 0t-45.5 1zM124 1102q-1 -17 -4.5 -36t-4.5 -36q17 2 39 0t39 0l-3 67q-16 1 -33 2.5t-33 2.5zM341 1013q-4 1 -8 5.5t-4 9.5q1 23 3 46t3 46q1 2 17 3t35 0t35 -4.5t18 -9.5
q2 -33 2.5 -52t-0.5 -29t-3.5 -13t-6.5 -3q-22 -2 -45.5 0t-45.5 1zM354 1102q-1 -17 -4.5 -36t-4.5 -36q17 2 39 0t39 0l-3 67q-16 1 -33 2.5t-33 2.5z" />
    <glyph glyph-name="Igrave" unicode="&#xcc;" horiz-adv-x="159" 
d="M130 -6q-47 2 -69 2t-31.5 0.5t-11.5 2t-8 7.5v2v913q2 8 17 11t33 4t34 0t21 -1q1 -45 0 -121t-2 -166.5t-1.5 -188.5t1 -187.5t5.5 -163t12 -114.5zM30 14h77q-9 48 -12.5 118.5t-4.5 153.5t0.5 172t3 173t2.5 158t0 126q-20 -1 -33 -2.5t-33 -1.5v-897zM16 1219
q3 2 9 -1t25 -21t57 -57t105 -110q2 -6 -7 -17t-21.5 -21.5t-24.5 -18t-16 -5.5q-5 6 -21 20t-38.5 32l-47.5 38l-47.5 38t-39 32t-20.5 20q-5 9 6.5 20t28 21.5t32.5 19t20 10.5zM147 987q13 10 22.5 18.5t22.5 18.5l-174 177q-14 -8 -31.5 -23t-31.5 -23q3 -4 17.5 -17
t35 -30t43.5 -36.5t43 -36.5t35 -30.5t18 -17.5z" />
    <glyph glyph-name="Iacute" unicode="&#xcd;" horiz-adv-x="159" 
d="M130 -6q-47 2 -69 2t-31.5 0.5t-11.5 2t-8 7.5v2v913q2 8 17 11t33 4t34 0t21 -1q1 -45 0 -121t-2 -166.5t-1.5 -188.5t1 -187.5t5.5 -163t12 -114.5zM30 14h77q-9 48 -12.5 118.5t-4.5 153.5t0.5 172t3 173t2.5 158t0 126q-20 -1 -33 -2.5t-33 -1.5v-897zM138 1219
q4 -2 20 -10.5t32.5 -19t28 -21.5t6.5 -20q-4 -6 -20.5 -20t-39 -32l-47.5 -38l-47.5 -38t-39 -32t-20.5 -20q-4 -2 -16 5.5t-24.5 18t-21.5 21.5t-7 17q67 71 105 110t57 57t25 21t9 1zM7 987q3 4 18 17.5t35 30.5t43 36.5t43.5 36.5t35 30t17.5 17q-14 8 -31.5 23
t-31.5 23l-174 -177q13 -10 22.5 -18.5t22.5 -18.5z" />
    <glyph glyph-name="Icircumflex" unicode="&#xce;" horiz-adv-x="159" 
d="M130 -6q-47 2 -69 2t-31.5 0.5t-11.5 2t-8 7.5v2v913q2 8 17 11t33 4t34 0t21 -1q1 -45 0 -121t-2 -166.5t-1.5 -188.5t1 -187.5t5.5 -163t12 -114.5zM30 14h77q-9 48 -12.5 118.5t-4.5 153.5t0.5 172t3 173t2.5 158t0 126q-20 -1 -33 -2.5t-33 -1.5v-897zM64 1121
q1 -1 -8.5 -13.5t-24 -31t-32.5 -40t-34 -40t-27 -31t-12 -12.5q-14 14 -33.5 28t-40.5 20q-8 6 2 18t32.5 37.5t55.5 68t72 108.5q2 0 15 -0.5t28.5 -1.5t29 -4t18.5 -7l11 -14.5t27.5 -36.5t35.5 -47t35.5 -46.5t27 -36l10.5 -14.5q3 -6 -3.5 -15t-16.5 -18t-21.5 -16.5
t-18.5 -9.5q-5 -2 -15 8t-22.5 25.5t-26.5 35t-26.5 37l-22.5 31.5t-15 18zM235 1021q-1 0 -12 13.5t-27 34.5t-35 45.5t-35 45.5t-26 35l-10 14q1 1 -2 1l1 -1q-2 -1 -12.5 -0.5t-22.5 0.5h-22t-11 -2q-51 -72 -80.5 -110.5t-45 -56t-20 -20t-5.5 -3.5q14 -5 30.5 -17
t27.5 -22q2 2 12.5 15.5t25 32.5t31 40t31 39t24.5 30t12 12q4 0 13.5 -11.5t22 -28.5t26.5 -37.5t27 -38.5t23.5 -30.5t15.5 -14.5q11 4 23 12t20 23z" />
    <glyph glyph-name="Idieresis" unicode="&#xcf;" horiz-adv-x="159" 
d="M130 -6q-47 2 -69 2t-31.5 0.5t-11.5 2t-8 7.5v2v913q2 8 17 11t33 4t34 0t21 -1q1 -45 0 -121t-2 -166.5t-1.5 -188.5t1 -187.5t5.5 -163t12 -114.5zM30 14h77q-9 48 -12.5 118.5t-4.5 153.5t0.5 172t3 173t2.5 158t0 126q-20 -1 -33 -2.5t-33 -1.5v-897zM-55 1013
q-4 1 -8 5.5t-4 9.5q1 23 3 46t3 46q1 2 17 3t35 0t35 -4.5t18 -9.5q2 -33 2.5 -52t-0.5 -29t-3.5 -13t-6.5 -3q-22 -2 -45.5 0t-45.5 1zM-42 1102q-1 -17 -4.5 -36t-4.5 -36q17 2 39 0t39 0l-3 67q-16 1 -33 2.5t-33 2.5zM105 1013q-4 1 -8 5.5t-4 9.5q1 23 3 46t3 46
q1 2 17 3t35 0t35 -4.5t18 -9.5q2 -33 2.5 -52t-0.5 -29t-3.5 -13t-6.5 -3q-22 -2 -45.5 0t-45.5 1zM118 1102q-1 -17 -4.5 -36t-4.5 -36q17 2 39 0t39 0l-3 67q-16 1 -33 2.5t-33 2.5z" />
    <glyph glyph-name="Eth" unicode="&#xd0;" horiz-adv-x="620" 
d="M12 10v178t1 192h-54.5t-64.5 1q-5 2 -8 3.5t-3 8.5l-2 95q14 -1 36.5 -1.5t44 0t37 1l15.5 0.5q1 114 2 226t3 218q28 1 81 -1.5t116 -15t130 -39.5t123 -76t94 -123t44 -180q6 -101 -20 -181t-73 -140t-108.5 -100t-127.5 -62t-131 -25.5t-117 9.5l-5 3q-5 -4 -9 -1.5
t-4 10.5zM31 401q-1 -105 -1.5 -198.5t-0.5 -184.5h1q49 -16 112 -13t127.5 25t125 61.5t106 97.5t70 133.5t17.5 168.5q0 80 -23.5 142.5t-63.5 109.5t-94.5 80t-116 53t-128 29t-130.5 8v-216t-1 -231q-31 1 -55 1.5t-41 1.5q-19 1 -34 1l-1 -69q35 -1 64.5 -1t66.5 1z
M89 403q25 -1 48 -1.5t46.5 -1t49 -1t55.5 -0.5q0 20 1.5 33t3.5 33q-35 -1 -88 0t-116 3q0 72 -0.5 139t-0.5 119t0.5 83.5t2.5 31.5q43 -2 90.5 -12t93.5 -29.5t88 -49.5t74.5 -70.5t52.5 -92t21 -115.5q1 -54 -17.5 -107t-50.5 -100t-74.5 -85t-90 -63t-97 -34.5
t-95.5 1.5q1 2 1.5 28.5t1 70t0.5 100.5v120zM105 821q-1 -62 -0.5 -152t0.5 -185q58 -1 113.5 -1.5t94.5 1.5q0 -28 -2.5 -47.5t-2.5 -46.5q0 -9 -10 -11q-64 1 -108 1h-85q0 -58 0.5 -109t0 -89.5t-1 -61t-1.5 -22.5q41 -5 85.5 5.5t88 33.5t83 57.5t69 77.5t46.5 93
t17 105q-1 84 -35.5 147t-89.5 106.5t-124 67.5t-138 30z" />
    <glyph glyph-name="Ntilde" unicode="&#xd1;" horiz-adv-x="647" 
d="M466 -4q-4 8 -18 40t-36 80t-49.5 107.5t-57 123t-59.5 127t-56.5 119.5t-48.5 100t-36 68q-2 -1 -1.5 -34.5t2 -87t4 -122.5t5.5 -140t5.5 -139t4.5 -121.5t3.5 -85.5t0.5 -31l-4 -2q-1 -1 -15.5 -1t-34 0.5t-38.5 0.5h-28q-5 -2 -7 3.5t1 10.5v39.5t-0.5 104t-0.5 147
v168.5v168.5t0.5 147.5t0.5 104.5v39.5q2 2 22.5 3t46 1t48.5 -0.5t29 -1.5q0 1 15 -29.5t39 -81.5t54.5 -116t63 -133t63.5 -134t55.5 -117.5t40.5 -84t17 -34.5q0 50 -0.5 112.5t-0.5 130t-0.5 136.5t-0.5 132.5v117v90.5q3 3 5 6.5t14 5.5l99 -2q-1 0 -1.5 -29.5
t-1.5 -80.5t-1.5 -118.5t-1 -143.5t-0.5 -155.5v-154.5v-141t1 -115h-31t-42 0.5t-41 1t-28 0.5zM477 15q7 0 22.5 -0.5t32.5 -0.5h33h24q1 39 1 98.5t0.5 130.5t0.5 148v151t-0.5 141.5t-0.5 118v80v29.5l-75 3v-92.5t-0.5 -121t-0.5 -137v-140.5v-132v-112q-5 -9 -9 -12
t-8.5 1t-11.5 15.5t-18 30.5q-91 195 -163 349q-31 65 -60.5 128t-52.5 112t-37 79.5l-14 30.5h-20t-39.5 0.5t-39.5 1t-19 1.5l1 1q-3 0 -2 -1l0.5 -39t0.5 -102v-144v-165v-164.5v-143.5t-0.5 -101.5l-0.5 -38.5q20 1 38 2q15 0 29 -0.5t20 -2.5q1 0 0 33t-2.5 87
t-3.5 122.5t-4 140t-4.5 140t-4 121.5t-2.5 85.5t0 31.5q25 9 32 -1q14 -23 35.5 -65.5t48 -96.5t56 -116.5t58.5 -125.5t56 -122.5t48.5 -108t36.5 -82.5t19 -45zM69 1088q0 6 3 9q4 15 22.5 28.5t41 24t45 17t35.5 6.5t29 -6.5t25 -11.5q32 -15 51.5 -30t35 -22.5t32 -4
t42.5 23.5q9 8 21.5 20.5t16.5 24.5q2 5 5 6q2 4 7 5t10 -3q3 -7 13 -16t20.5 -19t18.5 -19.5t6 -17.5t-13.5 -24t-47.5 -47q-43 -38 -76 -45.5t-62.5 2t-58.5 29.5t-64 39q-8 4 -22 1.5t-28 -9.5t-26 -16t-16 -17q-7 -5 -13 4q-8 5 -16.5 13.5t-16 18t-13 19.5t-7.5 17z
M91 1090q-1 -1 -1 -2q5 -12 16 -23t21 -22q4 4 14.5 11.5t23.5 13.5t26.5 9.5t24.5 0.5q27 -7 48 -19.5t39 -24t35.5 -20.5t37.5 -10t44 8.5t56 35.5q4 4 12 11t15.5 15.5t14 16.5t8.5 13l-42 47q-7 -13 -18.5 -25t-22.5 -20q-36 -27 -58 -28.5t-42 10t-46 30.5t-70 34
q-9 3 -30.5 -2.5t-44.5 -15t-41 -22t-20 -22.5z" />
    <glyph glyph-name="Ograve" unicode="&#xd2;" horiz-adv-x="869" 
d="M434 93q-49 2 -102.5 18.5t-94.5 45.5q-70 49 -105 117.5t-40.5 142t17 146.5t68.5 131.5t113 96.5t151 41q99 -3 180 -59q47 -34 79.5 -81t49 -101.5t17.5 -113.5t-13 -115t-43.5 -106.5t-73.5 -88.5q-47 -41 -98.5 -58.5t-104.5 -15.5zM435 12q-74 3 -152.5 34t-141 92
t-98 152.5t-23.5 215.5q8 82 33.5 145t61.5 109.5t79.5 76.5t87.5 47.5t85.5 23t73.5 2.5q81 -1 157 -29.5t132.5 -87t85.5 -148.5t17 -214t-54 -204.5t-98.5 -128t-121.5 -67t-124 -19.5zM436 -10q67 -2 133.5 19.5t122 71t96.5 128.5t58 193q15 99 4.5 176t-39.5 135.5
t-72 99t-93 66.5t-103.5 38.5t-102.5 14.5q-68 2 -137.5 -17.5t-129.5 -66t-104.5 -123t-61.5 -190.5q-15 -99 -2.5 -177t43.5 -138t77 -103t98.5 -70.5t108 -41t104.5 -15.5zM435 69q58 0 114 25.5t102.5 71.5t80.5 109t48 138q13 103 -11 183.5t-73 136t-116 85t-141 31.5
q-59 0 -117 -20t-107.5 -59t-86 -96.5t-50.5 -132.5q-12 -65 -7 -121.5t24.5 -105.5t52 -91.5t76.5 -79.5q14 -15 44.5 -28.5t64 -23.5t62.5 -16t40 -6zM383 1219q3 2 9 -1t25 -21t57 -57t105 -110q2 -6 -7 -17t-21.5 -21.5t-24.5 -18t-16 -5.5q-5 6 -21 20t-38.5 32
l-47.5 38l-47.5 38t-39 32t-20.5 20q-5 9 6.5 20t28 21.5t32.5 19t20 10.5zM514 987q13 10 22.5 18.5t22.5 18.5l-174 177q-14 -8 -31.5 -23t-31.5 -23q3 -4 17.5 -17t35 -30t43.5 -36.5t43 -36.5t34.5 -30.5t18.5 -17.5z" />
    <glyph glyph-name="Oacute" unicode="&#xd3;" horiz-adv-x="869" 
d="M434 93q53 -2 104.5 15.5t98.5 58.5q44 38 73.5 88.5t43.5 106.5t13 115t-17.5 113.5t-49 101.5t-79.5 81q-81 56 -180 59q-84 -3 -151 -41t-113 -96.5t-68.5 -131.5t-17 -146.5t40.5 -142t105 -117.5q41 -29 94.5 -45.5t102.5 -18.5zM435 12q59 0 124 19.5t121.5 67
t98.5 128t54 204.5t-17 214t-85.5 148.5t-132.5 87t-157 29.5q-32 3 -73.5 -2.5t-85.5 -23t-87.5 -47.5t-79.5 -76.5t-61.5 -109.5t-33.5 -145q-12 -124 23.5 -215.5t98 -152.5t141 -92t152.5 -34zM436 -10q-49 2 -104.5 15.5t-108 41t-98.5 70.5t-77 103t-43.5 138t2.5 177
q17 114 61.5 190.5t104.5 123t129.5 66t137.5 17.5q49 -2 102.5 -14.5t103.5 -38.5t93 -66.5t72 -99t39.5 -135.5t-4.5 -176q-17 -114 -58 -193t-96.5 -128.5t-122 -71t-133.5 -19.5zM435 69q-11 0 -40 6t-62.5 16t-64 23.5t-44.5 28.5q-44 37 -76.5 79.5t-52 91.5
t-24.5 105.5t7 121.5q14 75 50.5 132.5t86 96.5t107.5 59t117 20q74 -2 141 -31.5t116 -85t73 -136t11 -183.5q-14 -75 -48 -138t-80.5 -109t-102.5 -71.5t-114 -25.5zM519 1219q4 -2 20 -10.5t32.5 -19t28 -21.5t6.5 -20q-5 -6 -21 -20t-38.5 -32l-47.5 -38l-47.5 -38
t-39 -32t-20.5 -20q-4 -2 -16 5.5t-24.5 18t-21.5 21.5t-7 17q67 71 105 110t57 57t25 21t9 1zM388 987q3 4 18 17.5t35 30.5t43 36.5t43.5 36.5t35 30t17.5 17q-14 8 -31.5 23t-31.5 23l-174 -177q13 -10 22.5 -18.5t22.5 -18.5z" />
    <glyph glyph-name="Ocircumflex" unicode="&#xd4;" horiz-adv-x="869" 
d="M434 93q-49 2 -102.5 18.5t-94.5 45.5q-70 49 -105 117.5t-40.5 142t17 146.5t68.5 131.5t113 96.5t151 41q99 -3 180 -59q47 -34 79.5 -81t49 -101.5t17.5 -113.5t-13 -115t-43.5 -106.5t-73.5 -88.5q-47 -41 -98.5 -58.5t-104.5 -15.5zM435 12q-74 3 -152.5 34t-141 92
t-98 152.5t-23.5 215.5q8 82 33.5 145t61.5 109.5t79.5 76.5t87.5 47.5t85.5 23t73.5 2.5q81 -1 157 -29.5t132.5 -87t85.5 -148.5t17 -214t-54 -204.5t-98.5 -128t-121.5 -67t-124 -19.5zM436 -10q67 -2 133.5 19.5t122 71t96.5 128.5t58 193q15 99 4.5 176t-39.5 135.5
t-72 99t-93 66.5t-103.5 38.5t-102.5 14.5q-68 2 -137.5 -17.5t-129.5 -66t-104.5 -123t-61.5 -190.5q-15 -99 -2.5 -177t43.5 -138t77 -103t98.5 -70.5t108 -41t104.5 -15.5zM435 69q58 0 114 25.5t102.5 71.5t80.5 109t48 138q13 103 -11 183.5t-73 136t-116 85t-141 31.5
q-59 0 -117 -20t-107.5 -59t-86 -96.5t-50.5 -132.5q-12 -65 -7 -121.5t24.5 -105.5t52 -91.5t76.5 -79.5q14 -15 44.5 -28.5t64 -23.5t62.5 -16t40 -6zM438 1121q1 -1 -8.5 -13.5t-24 -31t-32.5 -40t-34 -40t-27 -31t-12 -12.5q-14 14 -33.5 28t-40.5 20q-8 6 2 18
t32.5 37.5t55.5 68t72 108.5q2 0 15 -0.5t28.5 -1.5t29 -4t18.5 -7l11 -14.5t27.5 -36.5t35.5 -47t35.5 -46.5t27 -36l10.5 -14.5q3 -6 -3.5 -15t-16.5 -18t-21.5 -16.5t-18.5 -9.5q-5 -2 -15 8t-22.5 25.5t-26.5 35t-26.5 37l-22.5 31.5t-15 18zM609 1021q-1 0 -12 13.5
t-27 34.5t-35 45.5t-35 45.5t-26.5 35t-9.5 14q1 1 -2 1l1 -1q-2 -1 -12.5 -0.5t-22.5 0.5h-22t-11 -2q-51 -72 -80.5 -110.5t-45 -56t-20 -20t-5.5 -3.5q14 -5 30.5 -17t27.5 -22q2 2 12.5 15.5t25 32.5t31 40t31 39t24.5 30t12 12q4 0 13.5 -11.5t22 -28.5t26.5 -37.5
t27 -38.5t23.5 -30.5t15.5 -14.5q11 4 23 12t20 23z" />
    <glyph glyph-name="Otilde" unicode="&#xd5;" horiz-adv-x="869" 
d="M434 93q53 -2 104.5 15.5t98.5 58.5q44 38 73.5 88.5t43.5 106.5t13 115t-17.5 113.5t-49 101.5t-79.5 81q-81 56 -180 59q-84 -3 -151 -41t-113 -96.5t-68.5 -131.5t-17 -146.5t40.5 -142t105 -117.5q41 -29 94.5 -45.5t102.5 -18.5zM435 12q59 0 124 19.5t121.5 67
t98.5 128t54 204.5t-17 214t-85.5 148.5t-132.5 87t-157 29.5q-32 3 -73.5 -2.5t-85.5 -23t-87.5 -47.5t-79.5 -76.5t-61.5 -109.5t-33.5 -145q-12 -124 23.5 -215.5t98 -152.5t141 -92t152.5 -34zM436 -10q-49 2 -104.5 15.5t-108 41t-98.5 70.5t-77 103t-43.5 138t2.5 177
q17 114 61.5 190.5t104.5 123t129.5 66t137.5 17.5q49 -2 102.5 -14.5t103.5 -38.5t93 -66.5t72 -99t39.5 -135.5t-4.5 -176q-17 -114 -58 -193t-96.5 -128.5t-122 -71t-133.5 -19.5zM435 69q-11 0 -40 6t-62.5 16t-64 23.5t-44.5 28.5q-44 37 -76.5 79.5t-52 91.5
t-24.5 105.5t7 121.5q14 75 50.5 132.5t86 96.5t107.5 59t117 20q74 -2 141 -31.5t116 -85t73 -136t11 -183.5q-14 -75 -48 -138t-80.5 -109t-102.5 -71.5t-114 -25.5zM190 1088q0 6 3 9q4 15 22.5 28.5t41 24t45 17t35.5 6.5t29 -6.5t25 -11.5q32 -15 51.5 -30t35 -22.5
t32 -4t42.5 23.5q9 8 21.5 20.5t16.5 24.5q2 5 5 6q2 4 7 5t10 -3q3 -7 13 -16t20.5 -19t18.5 -19.5t6 -17.5t-13.5 -24t-47.5 -47q-43 -38 -76 -45.5t-62.5 2t-58.5 29.5t-64 39q-8 4 -22 1.5t-28 -9.5t-26 -16t-16 -17q-7 -5 -13 4q-8 5 -16.5 13.5t-16 18t-13 19.5
t-7.5 17zM212 1090q-1 -1 -1 -2q5 -12 16 -23t21 -22q4 4 14.5 11.5t23.5 13.5t26.5 9.5t24.5 0.5q27 -7 48 -19.5t39 -24t35.5 -20.5t37.5 -10t44 8.5t56 35.5q4 4 12 11t15.5 15.5t14 16.5t8.5 13l-42 47q-7 -13 -18.5 -25t-22.5 -20q-36 -27 -58 -28.5t-42 10t-46 30.5
t-70 34q-9 3 -30.5 -2.5t-44.5 -15t-41 -22t-20 -22.5z" />
    <glyph glyph-name="Odieresis" unicode="&#xd6;" horiz-adv-x="869" 
d="M434 93q53 -2 104.5 15.5t98.5 58.5q44 38 73.5 88.5t43.5 106.5t13 115t-17.5 113.5t-49 101.5t-79.5 81q-81 56 -180 59q-84 -3 -151 -41t-113 -96.5t-68.5 -131.5t-17 -146.5t40.5 -142t105 -117.5q41 -29 94.5 -45.5t102.5 -18.5zM435 12q59 0 124 19.5t121.5 67
t98.5 128t54 204.5t-17 214t-85.5 148.5t-132.5 87t-157 29.5q-32 3 -73.5 -2.5t-85.5 -23t-87.5 -47.5t-79.5 -76.5t-61.5 -109.5t-33.5 -145q-12 -124 23.5 -215.5t98 -152.5t141 -92t152.5 -34zM436 -10q-49 2 -104.5 15.5t-108 41t-98.5 70.5t-77 103t-43.5 138t2.5 177
q17 114 61.5 190.5t104.5 123t129.5 66t137.5 17.5q49 -2 102.5 -14.5t103.5 -38.5t93 -66.5t72 -99t39.5 -135.5t-4.5 -176q-17 -114 -58 -193t-96.5 -128.5t-122 -71t-133.5 -19.5zM435 69q-11 0 -40 6t-62.5 16t-64 23.5t-44.5 28.5q-44 37 -76.5 79.5t-52 91.5
t-24.5 105.5t7 121.5q14 75 50.5 132.5t86 96.5t107.5 59t117 20q74 -2 141 -31.5t116 -85t73 -136t11 -183.5q-14 -75 -48 -138t-80.5 -109t-102.5 -71.5t-114 -25.5zM283 1013q-4 1 -8 5.5t-4 9.5q1 23 3 46t3 46q1 2 17 3t35 0t35 -4.5t18 -9.5q2 -33 2.5 -52t-0.5 -29
t-3.5 -13t-6.5 -3q-22 -2 -45.5 0t-45.5 1zM296 1102q-1 -17 -4.5 -36t-4.5 -36q17 2 39 0t39 0l-3 67q-16 1 -33 2.5t-33 2.5zM513 1013q-4 1 -8 5.5t-4 9.5q1 23 3 46t3 46q1 2 17 3t35 0t35 -4.5t18 -9.5q2 -33 2.5 -52t-0.5 -29t-3.5 -13t-6.5 -3q-22 -2 -45.5 0
t-45.5 1zM526 1102q-1 -17 -4.5 -36t-4.5 -36q17 2 39 0t39 0l-3 67q-16 1 -33 2.5t-33 2.5z" />
    <glyph glyph-name="multiply" unicode="&#xd7;" horiz-adv-x="468" 
d="M145 356q-2 4 -13 15l-25.5 25.5t-31.5 30.5t-31.5 30t-23.5 24t-9 13t-0.5 4t6.5 8t25 22.5t53 48.5q11 -16 32.5 -40.5t42.5 -47t38 -38.5t19 -14q0 2 15 16.5t37 35.5t47 45t45 44q0 1 11 -10t23.5 -24.5t23.5 -24.5t11 -10q0 -1 -11.5 -12.5t-27.5 -28t-34.5 -35.5
t-33.5 -34.5t-23 -25t-4 -6.5l5.5 -6.5t15 -16.5t21.5 -22.5t25 -25.5q29 -31 67 -69l-9 -10t-21 -22l-23 -23t-15 -14q-7 -2 -11.5 2t-4.5 9q-28 24 -42 35.5t-25 22t-23.5 24.5t-36.5 43q-12 -15 -20 -23l-14.5 -14.5t-15 -14t-21.5 -21.5q-7 -8 -16 -18t-19 -20
t-19.5 -18.5t-16.5 -13.5q-7 4 -20 16.5t-26 26.5t-22.5 25l-9.5 11q1 1 14 13.5t32.5 31t43 40t46.5 41.5zM225 409q0 -1 -5 4.5t-14 14.5l-21 21l-25 25l-68 68l-4.5 -4.5l-11.5 -11.5t-16.5 -15t-19.5 -13q0 -1 10.5 -11.5l25.5 -25.5l32.5 -32.5t32 -32.5t24 -25
t8.5 -10q1 -2 -9 -11.5t-25 -24t-33 -30.5t-33.5 -30.5t-26 -24.5t-9.5 -11q10 -7 24.5 -24.5t26.5 -28.5q12 17 27 31t29 28q14 15 24 23.5t18.5 16t18 16.5t22.5 24q2 2 13 -9l29.5 -29.5t43.5 -43t56 -49.5q7 6 20 21t27 23l-14.5 14.5t-27 26t-33 31t-32 30t-23.5 23
t-8 10.5q-1 1 8.5 11.5t23.5 26.5t30.5 34.5t31.5 34.5t26 27.5t14 14.5q-14 9 -21.5 17t-17.5 24q-20 -20 -45 -44.5t-47.5 -46t-38.5 -37t-17 -16.5z" />
    <glyph glyph-name="Oslash" unicode="&#xd8;" horiz-adv-x="869" 
d="M104 -5q-3 0 -3 2t5 12t16 30t29 55q-39 31 -71 73.5t-52 97.5t-26.5 122t5.5 148q17 114 61.5 190.5t104.5 123t129.5 66t137.5 17.5q36 -2 74 -8.5t76 -20.5q11 20 20 37.5t16 30.5q5 5 18.5 2t29 -9.5t30 -15t22.5 -13.5q-7 -13 -17.5 -33t-24.5 -46q43 -29 78.5 -70
t58.5 -96.5t30.5 -127t-5.5 -160.5q-17 -114 -58 -193t-96.5 -128.5t-122 -71t-133.5 -19.5q-46 2 -95.5 13t-98.5 34q-4 -4 -9 -16.5t-10.5 -27.5t-10.5 -30.5t-8 -25.5zM639 953q0 -3 -6 -14.5t-13 -24.5t-13 -23.5t-7 -11.5q-48 17 -85.5 23.5t-73.5 7.5
q-32 3 -73.5 -2.5t-85.5 -23t-87.5 -47.5t-79.5 -76.5t-61.5 -109.5t-33.5 -145q-7 -68 1.5 -126t29.5 -107.5t53.5 -91t74.5 -76.5q-2 -5 -5.5 -10.5t-9.5 -16t-16 -28.5t-24 -49l69 -35q0 6 6 22.5t12.5 33.5t12.5 31.5t6 16.5h1q19 -14 44 -24.5t52.5 -17.5t55.5 -11
t52 -5q59 0 124 19.5t121.5 67t98.5 128t54 204.5q9 81 -2 148t-36.5 119.5t-61 91t-74.5 61.5l41 75q-18 8 -30.5 12.5t-30.5 14.5zM258 120q16 32 42 81t58.5 108t69 124.5t72 130t68.5 123.5t59 105q26 -12 58.5 -47t58 -85.5t37.5 -114t-1 -132.5q-14 -75 -48 -138
t-80.5 -109t-102.5 -71.5t-114 -25.5q-8 0 -27.5 2.5t-44.5 8.5t-52.5 16t-52.5 24zM569 822q-35 -67 -79 -149t-91.5 -169.5t-95.5 -176.5t-91 -169q-82 66 -119.5 162.5t-14.5 220.5q14 75 50.5 132.5t86 96.5t107.5 59t117 20q33 -2 70 -8.5t60 -18.5zM434 93
q53 -2 104.5 15.5t98.5 58.5q43 37 72 86t43.5 104t14.5 112.5t-15 111t-45 101t-74 82.5q-39 -71 -86.5 -156.5t-95 -172t-91 -166.5t-74.5 -140q35 -17 74 -26t74 -10zM441 832q-80 -4 -144.5 -38.5t-110.5 -88.5t-70.5 -122.5t-24.5 -139t26.5 -138t83.5 -119.5
q37 70 81.5 151.5t90.5 165t89.5 163.5t79.5 147q-47 17 -101 19z" />
    <glyph glyph-name="Ugrave" unicode="&#xd9;" horiz-adv-x="663" 
d="M624 363q1 16 2 59.5t2 101t2 121.5t1.5 121.5t1.5 101t1 59.5q-3 7 -17 9t-31 1.5t-33.5 -2t-23.5 -1.5q1 -51 1.5 -115.5t-1 -134.5t-4 -141t-7 -135t-12 -116.5t-17.5 -84.5q-5 -16 -19 -37t-38 -39.5t-59.5 -29.5t-83.5 -6q-31 3 -55 8t-43 14t-33 24.5t-24 39.5
q-10 23 -15.5 81t-9 133t-4.5 159.5t-1 160v134t-1 82.5l-1 1l-4 2h-1q-20 0 -42 -1t-52 -1q-1 -24 -1.5 -79t-0.5 -126v-149.5t1 -151t2 -131t3 -87.5q4 -78 45 -128.5t104 -74t139.5 -20t150.5 32.5q59 23 93.5 63.5t52.5 88t24 98.5t8 95zM604 365q-5 -81 -17 -136.5
t-33 -93t-53 -60.5t-75 -39q-67 -26 -136 -30t-125.5 16.5t-94.5 66.5t-43 120q-2 27 -3 82t-1.5 124.5t-1 145.5t-0.5 145t0.5 124t1.5 82q16 0 31.5 0.5t31.5 1.5q-1 -30 -2 -90t-2 -135.5t0 -159t5 -158.5t11 -134t19 -87q6 -15 26.5 -28.5t45.5 -23.5t51 -16t43 -6
q45 0 78 5.5t57.5 17t42.5 28.5t35 41q13 19 22.5 68.5t15.5 116.5t9.5 145t4.5 154.5t0 145t-3 116.5q17 0 34.5 1t34.5 1q0 -15 -1 -57.5t-1.5 -99t-1.5 -119.5t-2 -119t-2 -98.5t-2 -57.5zM246 1219q3 2 9 -1t25 -21t57 -57t105 -110q2 -6 -7 -17t-21.5 -21.5t-24.5 -18
t-16 -5.5q-5 6 -21 20t-38.5 32l-47.5 38l-47.5 38t-39 32t-20.5 20q-5 9 6.5 20t28 21.5t32.5 19t20 10.5zM377 987q13 10 22.5 18.5t22.5 18.5l-174 177q-14 -8 -31.5 -23t-31.5 -23q3 -4 17.5 -17t35 -30t43.5 -36.5t43 -36.5t34.5 -30.5t18.5 -17.5z" />
    <glyph glyph-name="Uacute" unicode="&#xda;" horiz-adv-x="663" 
d="M624 363q-2 -44 -8 -95t-24 -98.5t-52.5 -88t-93.5 -63.5q-74 -29 -150.5 -32.5t-139.5 20t-104 74t-45 128.5q-2 29 -3 87.5t-2 131t-1 151v149.5t0.5 126t1.5 79q30 0 52 1t42 1h1l4 -2l1 -1q1 -24 1 -82.5v-134t1 -160t4.5 -159.5t9 -133t15.5 -81q10 -24 24 -39.5
t33 -24.5t43 -14t55 -8q48 -5 83.5 6t59.5 29.5t38 39.5t19 37q10 32 17.5 84.5t12 116.5t7 135t4 141t1 134.5t-1.5 115.5q7 0 23.5 1.5t33.5 2t31 -1.5t17 -9q0 -16 -1 -59.5t-1.5 -101t-1.5 -121.5t-2 -121.5t-2 -101t-2 -59.5zM604 365q1 15 2 57.5t2 98.5t2 119
t1.5 119.5t1.5 99t1 57.5q-17 0 -34.5 -1t-34.5 -1q2 -48 3 -116.5t0 -145t-4.5 -154.5t-9.5 -145t-15.5 -116.5t-22.5 -68.5q-17 -24 -35 -41t-42.5 -28.5t-57.5 -17t-78 -5.5q-17 0 -43 6t-51 16t-45.5 23.5t-26.5 28.5q-12 28 -19 87t-11 134t-5 158.5t0 159t2 135.5
t2 90q-16 -1 -31.5 -1.5t-31.5 -0.5q-1 -27 -1.5 -82t-0.5 -124t0.5 -145t1 -145.5t1.5 -124.5t3 -82q5 -74 43 -120t94.5 -66.5t125.5 -16.5t136 30q43 16 75 39t53 60.5t33 93t17 136.5zM381 1219q4 -2 20 -10.5t32.5 -19t28 -21.5t6.5 -20q-4 -6 -20.5 -20t-39 -32
l-47.5 -38l-47.5 -38t-39 -32t-20.5 -20q-4 -2 -16 5.5t-24.5 18t-21.5 21.5t-7 17q67 71 105 110t57 57t25 21t9 1zM250 987q3 4 18 17.5t35 30.5t43 36.5t43.5 36.5t35 30t17.5 17q-14 8 -31.5 23t-31.5 23l-174 -177q13 -10 22.5 -18.5t22.5 -18.5z" />
    <glyph glyph-name="Ucircumflex" unicode="&#xdb;" horiz-adv-x="663" 
d="M624 363q1 16 2 59.5t2 101t2 121.5t1.5 121.5t1.5 101t1 59.5q-3 7 -17 9t-31 1.5t-33.5 -2t-23.5 -1.5q1 -51 1.5 -115.5t-1 -134.5t-4 -141t-7 -135t-12 -116.5t-17.5 -84.5q-5 -16 -19 -37t-38 -39.5t-59.5 -29.5t-83.5 -6q-31 3 -55 8t-43 14t-33 24.5t-24 39.5
q-10 23 -15.5 81t-9 133t-4.5 159.5t-1 160v134t-1 82.5l-1 1l-4 2h-1q-20 0 -42 -1t-52 -1q-1 -24 -1.5 -79t-0.5 -126v-149.5t1 -151t2 -131t3 -87.5q4 -78 45 -128.5t104 -74t139.5 -20t150.5 32.5q59 23 93.5 63.5t52.5 88t24 98.5t8 95zM604 365q-5 -81 -17 -136.5
t-33 -93t-53 -60.5t-75 -39q-67 -26 -136 -30t-125.5 16.5t-94.5 66.5t-43 120q-2 27 -3 82t-1.5 124.5t-1 145.5t-0.5 145t0.5 124t1.5 82q16 0 31.5 0.5t31.5 1.5q-1 -30 -2 -90t-2 -135.5t0 -159t5 -158.5t11 -134t19 -87q6 -15 26.5 -28.5t45.5 -23.5t51 -16t43 -6
q45 0 78 5.5t57.5 17t42.5 28.5t35 41q13 19 22.5 68.5t15.5 116.5t9.5 145t4.5 154.5t0 145t-3 116.5q17 0 34.5 1t34.5 1q0 -15 -1 -57.5t-1.5 -99t-1.5 -119.5t-2 -119t-2 -98.5t-2 -57.5zM326 1121q1 -1 -8.5 -13.5t-24 -31t-32.5 -40t-34 -40t-27 -31t-12 -12.5
q-14 14 -33.5 28t-40.5 20q-8 6 2 18t32.5 37.5t55.5 68t72 108.5q2 0 15 -0.5t28.5 -1.5t29 -4t18.5 -7l11 -14.5t27.5 -36.5t35.5 -47t35.5 -46.5t27 -36l10.5 -14.5q3 -6 -3.5 -15t-16.5 -18t-21.5 -16.5t-18.5 -9.5q-5 -2 -15 8t-22.5 25.5t-26.5 35t-26.5 37
l-22.5 31.5t-15 18zM497 1021q-1 0 -12 13.5t-27 34.5t-35 45.5t-35 45.5t-26.5 35t-9.5 14q1 1 -2 1l1 -1q-2 -1 -12.5 -0.5t-22.5 0.5h-22t-11 -2q-51 -72 -80.5 -110.5t-45 -56t-20 -20t-5.5 -3.5q14 -5 30.5 -17t27.5 -22q2 2 12.5 15.5t25 32.5t31 40t31 39t24.5 30
t12 12q4 0 13.5 -11.5t22 -28.5t26.5 -37.5t27 -38.5t23.5 -30.5t15.5 -14.5q11 4 23 12t20 23z" />
    <glyph glyph-name="Udieresis" unicode="&#xdc;" horiz-adv-x="663" 
d="M624 363q-2 -44 -8 -95t-24 -98.5t-52.5 -88t-93.5 -63.5q-74 -29 -150.5 -32.5t-139.5 20t-104 74t-45 128.5q-2 29 -3 87.5t-2 131t-1 151v149.5t0.5 126t1.5 79q30 0 52 1t42 1h1l4 -2l1 -1q1 -24 1 -82.5v-134t1 -160t4.5 -159.5t9 -133t15.5 -81q10 -24 24 -39.5
t33 -24.5t43 -14t55 -8q48 -5 83.5 6t59.5 29.5t38 39.5t19 37q10 32 17.5 84.5t12 116.5t7 135t4 141t1 134.5t-1.5 115.5q7 0 23.5 1.5t33.5 2t31 -1.5t17 -9q0 -16 -1 -59.5t-1.5 -101t-1.5 -121.5t-2 -121.5t-2 -101t-2 -59.5zM604 365q1 15 2 57.5t2 98.5t2 119
t1.5 119.5t1.5 99t1 57.5q-17 0 -34.5 -1t-34.5 -1q2 -48 3 -116.5t0 -145t-4.5 -154.5t-9.5 -145t-15.5 -116.5t-22.5 -68.5q-17 -24 -35 -41t-42.5 -28.5t-57.5 -17t-78 -5.5q-17 0 -43 6t-51 16t-45.5 23.5t-26.5 28.5q-12 28 -19 87t-11 134t-5 158.5t0 159t2 135.5
t2 90q-16 -1 -31.5 -1.5t-31.5 -0.5q-1 -27 -1.5 -82t-0.5 -124t0.5 -145t1 -145.5t1.5 -124.5t3 -82q5 -74 43 -120t94.5 -66.5t125.5 -16.5t136 30q43 16 75 39t53 60.5t33 93t17 136.5zM160 1013q-4 1 -8 5.5t-4 9.5q1 23 3 46t3 46q1 2 17 3t35 0t35 -4.5t18 -9.5
q2 -33 2.5 -52t-0.5 -29t-3.5 -13t-6.5 -3q-22 -2 -45.5 0t-45.5 1zM173 1102q-1 -17 -4.5 -36t-4.5 -36q17 2 39 0t39 0l-3 67q-16 1 -33 2.5t-33 2.5zM390 1013q-4 1 -8 5.5t-4 9.5q1 23 3 46t3 46q1 2 17 3t35 0t35 -4.5t18 -9.5q2 -33 2.5 -52t-0.5 -29t-3.5 -13
t-6.5 -3q-22 -2 -45.5 0t-45.5 1zM403 1102q-1 -17 -4.5 -36t-4.5 -36q17 2 39 0t39 0l-3 67q-16 1 -33 2.5t-33 2.5z" />
    <glyph glyph-name="Yacute" unicode="&#xdd;" horiz-adv-x="570" 
d="M309 439q-79 96 -133 164.5t-88.5 115.5t-53.5 74.5t-27.5 42.5t-10 19.5t-1.5 5.5l85 77q13 -22 39.5 -60.5t58 -84t65 -92t61.5 -84.5t46.5 -63t20.5 -27l317 411q8 6 21 -0.5t26.5 -17.5t25 -22.5l16.5 -16.5q-13 -20 -44.5 -60.5t-70.5 -89t-81 -100.5t-76.5 -93.5
t-57.5 -68t-23 -25.5q-1 4 -2.5 -19.5t-2.5 -63.5t-2 -91t-1.5 -102t-1 -96.5t-0.5 -75.5q-5 0 -22.5 0.5t-37 1t-36 1.5t-17.5 2q0 5 0.5 27.5t1.5 57.5t2.5 79t2.5 91t1.5 94t-0.5 89zM405 450l345 428q-16 12 -27 19t-26 20q-20 -23 -52.5 -67.5t-75 -101.5t-93 -122
t-104.5 -129l-1 -1l-296 412l-59 -50q2 -5 25.5 -36t57.5 -75.5t73 -95t72.5 -94t56.5 -74t25 -33.5q0 -61 -0.5 -112t-1 -101t-1 -102t-0.5 -115q20 0 36 -1.5t36 -2.5zM459 1219q4 -2 20 -10.5t32.5 -19t28 -21.5t6.5 -20q-5 -6 -21 -20t-38.5 -32l-47.5 -38l-47.5 -38
t-39 -32t-20.5 -20q-4 -2 -16 5.5t-24.5 18t-21.5 21.5t-7 17q67 71 105 110t57 57t25 21t9 1zM328 987q3 4 18 17.5t35 30.5t43 36.5t43.5 36.5t35 30t17.5 17q-14 8 -31.5 23t-31.5 23l-174 -177q13 -10 22.5 -18.5t22.5 -18.5z" />
    <glyph glyph-name="Thorn" unicode="&#xde;" horiz-adv-x="706" 
d="M43 -10q-10 2 -12 12q6 193 1.5 385t1.5 383q1 7 14 9.5t30 2t33.5 -1.5t24.5 1l0.5 -15t0.5 -38v-50.5v-51t0.5 -40t0.5 -18.5q58 33 121 49t122.5 16.5t113 -13t93.5 -40t63 -64t23 -84.5q-1 -74 -27.5 -131.5t-70.5 -99t-100 -66t-114.5 -32.5t-116 0.5t-103.5 33.5
q-1 -1 -0.5 -24t1 -50.5t0 -50t-3.5 -22.5q-2 -1 -15.5 -1h-30t-31.5 0.5t-19 0.5zM121 10q0 21 1 50t1.5 55.5t1.5 45l1 18.5q63 -38 126.5 -49.5t122 -1.5t109 38t88 69.5t58.5 92.5t20 107q0 50 -29 86t-75.5 57.5t-104.5 29.5t-116.5 1.5t-112 -26t-90.5 -51.5
q-1 1 -2 -3.5t-2.5 -5.5t-2.5 6t-0.5 32t2 72.5t5.5 127.5q-19 -2 -34.5 -1t-33.5 0q-5 -189 -1.5 -375.5t-1.5 -374.5q16 0 35.5 0.5t34.5 -0.5zM123 256q1 3 1 20t-1 40t-2 49.5t-1.5 49t0 38t3.5 17.5q27 27 71.5 45.5t94.5 27t101.5 6.5t94 -15t71 -38.5t32.5 -63.5
q6 -52 -18.5 -96t-67 -76.5t-96.5 -51.5t-107.5 -21.5t-100.5 14t-75 55.5zM144 265q27 -32 70 -45t90 -11t94.5 18.5t85.5 44.5t60 66t20 84q-2 35 -27.5 58.5t-65 36.5t-87.5 15t-94.5 -7t-87.5 -27.5t-65 -47.5z" />
    <glyph glyph-name="germandbls" unicode="&#xdf;" horiz-adv-x="622" 
d="M119 -3q-24 0 -41 2.5t-41 9.5q-4 1 -11.5 10t-8.5 14q1 0 -1.5 36t-5.5 94.5t-5.5 134.5t-2.5 156.5t4.5 159t15.5 143.5t29.5 110t46.5 57q34 15 75.5 21t85 3.5t86 -13.5t78.5 -30t63 -45.5t39 -60.5q16 -43 2.5 -86t-42.5 -80.5t-68.5 -67t-76.5 -44.5
q71 -10 121.5 -38t81.5 -67t42.5 -86t4.5 -94t-32.5 -90.5t-68.5 -76t-103.5 -51t-137.5 -14.5q-1 5 -2 9.5t-1.5 12.5t0 22t1.5 38q42 10 82 27.5t69 34.5q47 28 62 63t7 71t-34.5 69t-62.5 56t-77 32.5t-78 -1.5q-7 -9 -14 0q-2 10 -3.5 24t-2 28t1 27t4.5 22
q95 44 142 90t57.5 87t-10 73.5t-60 49t-92.5 13.5t-108 -33zM37 33q1 1 16.5 -2t44.5 -8q0 1 0.5 36.5t1 92.5t1.5 129.5t2 148t2.5 147.5t2.5 129t2 91.5t2 35.5q39 28 81.5 38t81.5 5t72 -22.5t52.5 -44t23 -60.5t-16 -72t-65 -78t-124.5 -78v-62q39 10 82.5 -1.5t82 -37
t67 -62t36.5 -76t-8.5 -79t-67.5 -71.5q-24 -14 -63.5 -31.5t-82.5 -29.5v-44q76 -3 134 16t97 52t59 76t21.5 88.5t-15.5 89.5t-53 78.5t-90.5 56t-127.5 22.5q44 27 75.5 49t53 40t35 33t22.5 29q37 61 32.5 107t-36 79t-82 52.5t-104.5 26.5t-103.5 2.5t-79.5 -20.5
q-24 -26 -39 -77t-23.5 -117t-11 -142t-2 -151.5t3 -145t5.5 -122.5t4 -84.5t-1 -31.5z" />
    <glyph glyph-name="agrave" unicode="&#xe0;" 
d="M42 437q6 -13 9.5 -21.5t6 -15.5t6 -13.5t9.5 -15.5q25 11 57 24.5t66.5 24.5t69.5 17.5t67.5 3t59 -19t44.5 -48.5q-24 4 -51 7t-55.5 3t-57 -2.5t-53.5 -9.5q-42 -11 -83 -38t-72.5 -64t-49.5 -81t-14 -90q1 -31 18.5 -50t43.5 -30.5t58.5 -15t64.5 -3t60.5 4.5t47.5 9
q26 7 48.5 13.5t43 14.5t38 19t34.5 28q-3 -23 -1.5 -42.5t2.5 -40.5q3 -3 17.5 -5t30.5 -2.5t29 1t14 5.5q5 48 9 101.5t3.5 107t-8.5 104.5t-27 94t-50.5 75.5t-79.5 48.5q-41 14 -89 11.5t-95 -16t-90.5 -34.5t-76.5 -43q-5 -1 -6.5 -5.5t2.5 -10.5zM80 396
q-2 4 -4.5 10.5t-4.5 14t-4.5 14.5t-4.5 11q39 21 89 42.5t103.5 32t105 4.5t92.5 -39q29 -23 47.5 -56.5t28 -73.5t12.5 -83.5t2 -87.5t-4.5 -85.5t-6.5 -76.5q-5 -3 -13 -4t-15.5 -1t-14 0.5t-9.5 0.5q-3 6 -2.5 22t2 33t2 30.5t-2.5 14.5q-29 -24 -74 -44.5t-96.5 -34.5
t-103 -19t-93.5 1q-12 2 -26.5 8.5t-27.5 17t-22.5 24t-12.5 29.5q-5 29 6 63t25 59q32 55 79 86t101.5 44.5t113.5 11.5t116 -13q-14 46 -41 70.5t-61 33.5t-73 5.5t-77 -14t-72 -25t-59 -26.5zM149 249q-25 -18 -43.5 -42.5t-23.5 -49.5t8.5 -46.5t53.5 -33.5
q32 -8 81 -1.5t98.5 22.5t91.5 39t61 48q2 22 0.5 44t-0.5 44q-36 24 -79.5 32t-88 3.5t-86.5 -20.5t-73 -39zM457 190q-28 -24 -62.5 -41t-68 -28.5t-62.5 -18t-46 -8.5q-20 -3 -41 -3.5t-38 4.5t-28 18.5t-9 38.5q1 29 22 53t53.5 42t72.5 28.5t79 13t73.5 -4t55.5 -23.5
q-1 -18 -0.5 -32.5t-0.5 -38.5zM249 827q3 2 9 -1t25 -21t57 -57t105 -110q2 -6 -7 -17t-21.5 -21.5t-24.5 -18t-16 -5.5q-5 6 -21 20t-38.5 32l-47.5 38l-47.5 38t-39 32t-20.5 20q-5 9 6.5 20t28 21.5t32.5 19t20 10.5zM380 595q13 10 22.5 18.5t22.5 18.5l-174 177
q-14 -8 -31.5 -23t-31.5 -23q3 -4 17.5 -17t35 -30t43.5 -36.5t43 -36.5t34.5 -30t18.5 -18z" />
    <glyph glyph-name="aacute" unicode="&#xe1;" 
d="M42 437q-4 6 -2.5 10.5t6.5 5.5q33 22 76.5 43t90.5 34.5t95 16t89 -11.5q48 -16 79.5 -48.5t50.5 -75.5t27 -94t8.5 -104.5t-3.5 -107t-9 -101.5q-1 -4 -14 -5.5t-29 -1t-30.5 2.5t-17.5 5q-1 21 -2.5 40.5t1.5 42.5q-17 -17 -34.5 -28t-38 -19t-43 -14.5t-48.5 -13.5
q-19 -5 -47.5 -9t-60.5 -4.5t-64.5 3t-58.5 15t-43.5 30.5t-18.5 50q-4 46 14 90t49.5 81t72.5 64t83 38q25 7 53.5 9.5t57 2.5t55.5 -3t51 -7q-18 33 -44.5 48.5t-59 19t-67.5 -3t-69.5 -17.5t-66.5 -24.5t-57 -24.5q-6 9 -9.5 15.5t-6 13.5t-6 15.5t-9.5 21.5zM80 396
q25 12 59 26.5t72 25t77 14t73 -5.5t61 -33.5t41 -70.5q-57 11 -116 13t-113.5 -11.5t-101.5 -44.5t-79 -86q-14 -25 -25 -59t-6 -63q3 -16 12.5 -29.5t22.5 -24t27.5 -17t26.5 -8.5q42 -6 93.5 -1t103 19t96.5 34.5t74 44.5q3 -1 2.5 -14.5t-2 -30.5t-2 -33t2.5 -22
q3 0 9.5 -0.5t14 -0.5t15.5 1t13 4q3 35 6.5 76.5t4.5 85.5t-2 87.5t-12.5 83.5t-28 73.5t-47.5 56.5q-41 33 -92.5 39t-105 -4.5t-103.5 -32t-89 -42.5q2 -4 4.5 -11t4.5 -14.5t4.5 -14t4.5 -10.5zM149 249q31 23 73 39t86.5 20.5t88 -3.5t79.5 -32q-1 -22 0.5 -44
t-0.5 -44q-19 -25 -61 -48t-91.5 -39t-98.5 -22.5t-81 1.5q-40 12 -53.5 33.5t-8.5 46.5t23.5 49.5t43.5 42.5zM457 190q1 24 0.5 38.5t0.5 32.5q-21 17 -55.5 23.5t-73.5 4t-79 -13t-72.5 -28.5t-53.5 -42t-22 -53q-2 -25 9 -38.5t28 -18.5t38 -4.5t41 3.5q17 2 46 8.5
t62.5 18t68 28.5t62.5 41zM349 827q4 -2 20 -10.5t32.5 -19t28 -21.5t6.5 -20q-5 -6 -21 -20t-38.5 -32l-47.5 -38l-47.5 -38t-39 -32t-20.5 -20q-4 -2 -16 5.5t-24.5 18t-21.5 21.5t-7 17q67 71 105 110t57 57t25 21t9 1zM218 595q3 5 18 18t35 30t43 36.5t43.5 36.5t35 30
t17.5 17q-14 8 -31.5 23t-31.5 23l-174 -177q13 -10 22.5 -18.5t22.5 -18.5z" />
    <glyph glyph-name="acircumflex" unicode="&#xe2;" 
d="M42 437q6 -13 9.5 -21.5t6 -15.5t6 -13.5t9.5 -15.5q25 11 57 24.5t66.5 24.5t69.5 17.5t67.5 3t59 -19t44.5 -48.5q-24 4 -51 7t-55.5 3t-57 -2.5t-53.5 -9.5q-42 -11 -83 -38t-72.5 -64t-49.5 -81t-14 -90q1 -31 18.5 -50t43.5 -30.5t58.5 -15t64.5 -3t60.5 4.5t47.5 9
q26 7 48.5 13.5t43 14.5t38 19t34.5 28q-3 -23 -1.5 -42.5t2.5 -40.5q3 -3 17.5 -5t30.5 -2.5t29 1t14 5.5q5 48 9 101.5t3.5 107t-8.5 104.5t-27 94t-50.5 75.5t-79.5 48.5q-41 14 -89 11.5t-95 -16t-90.5 -34.5t-76.5 -43q-5 -1 -6.5 -5.5t2.5 -10.5zM80 396
q-2 4 -4.5 10.5t-4.5 14t-4.5 14.5t-4.5 11q39 21 89 42.5t103.5 32t105 4.5t92.5 -39q29 -23 47.5 -56.5t28 -73.5t12.5 -83.5t2 -87.5t-4.5 -85.5t-6.5 -76.5q-5 -3 -13 -4t-15.5 -1t-14 0.5t-9.5 0.5q-3 6 -2.5 22t2 33t2 30.5t-2.5 14.5q-29 -24 -74 -44.5t-96.5 -34.5
t-103 -19t-93.5 1q-12 2 -26.5 8.5t-27.5 17t-22.5 24t-12.5 29.5q-5 29 6 63t25 59q32 55 79 86t101.5 44.5t113.5 11.5t116 -13q-14 46 -41 70.5t-61 33.5t-73 5.5t-77 -14t-72 -25t-59 -26.5zM149 249q-25 -18 -43.5 -42.5t-23.5 -49.5t8.5 -46.5t53.5 -33.5
q32 -8 81 -1.5t98.5 22.5t91.5 39t61 48q2 22 0.5 44t-0.5 44q-36 24 -79.5 32t-88 3.5t-86.5 -20.5t-73 -39zM457 190q-28 -24 -62.5 -41t-68 -28.5t-62.5 -18t-46 -8.5q-20 -3 -41 -3.5t-38 4.5t-28 18.5t-9 38.5q1 29 22 53t53.5 42t72.5 28.5t79 13t73.5 -4t55.5 -23.5
q-1 -18 -0.5 -32.5t-0.5 -38.5zM307 729q1 -1 -8.5 -13.5t-24 -31t-32.5 -40t-34 -40t-27 -31t-12 -12.5q-14 14 -33.5 28t-40.5 20q-8 6 2 18t32.5 37.5t55.5 68t72 108.5q2 0 15 -0.5t28.5 -1.5t29 -4t18.5 -7l11 -14.5t27.5 -36.5t35.5 -47t35.5 -46.5t27 -36l10.5 -14.5
q3 -6 -3.5 -15t-16.5 -18t-21.5 -16.5t-18.5 -9.5q-5 -2 -15 8t-22.5 25.5t-26.5 35t-26.5 37l-22.5 31.5t-15 18zM478 629q-1 0 -12 13.5t-27 34.5t-35 45.5t-35 45.5t-26 35l-10 14q1 1 -2 1l1 -1q-2 -1 -12.5 -0.5t-22.5 0.5h-22t-11 -2q-51 -72 -80.5 -110.5t-45 -56
t-20 -20t-5.5 -3.5q14 -5 30.5 -17t27.5 -22q2 2 12.5 15.5t25 32.5t31 40t31 39t24.5 30t12 12q4 0 13.5 -11.5t22 -28.5t26.5 -37.5t27 -38.5t23.5 -30.5t15.5 -14.5q11 4 23 12t20 23z" />
    <glyph glyph-name="atilde" unicode="&#xe3;" 
d="M42 437q-4 6 -2.5 10.5t6.5 5.5q33 22 76.5 43t90.5 34.5t95 16t89 -11.5q48 -16 79.5 -48.5t50.5 -75.5t27 -94t8.5 -104.5t-3.5 -107t-9 -101.5q-1 -4 -14 -5.5t-29 -1t-30.5 2.5t-17.5 5q-1 21 -2.5 40.5t1.5 42.5q-17 -17 -34.5 -28t-38 -19t-43 -14.5t-48.5 -13.5
q-19 -5 -47.5 -9t-60.5 -4.5t-64.5 3t-58.5 15t-43.5 30.5t-18.5 50q-4 46 14 90t49.5 81t72.5 64t83 38q25 7 53.5 9.5t57 2.5t55.5 -3t51 -7q-18 33 -44.5 48.5t-59 19t-67.5 -3t-69.5 -17.5t-66.5 -24.5t-57 -24.5q-6 9 -9.5 15.5t-6 13.5t-6 15.5t-9.5 21.5zM80 396
q25 12 59 26.5t72 25t77 14t73 -5.5t61 -33.5t41 -70.5q-57 11 -116 13t-113.5 -11.5t-101.5 -44.5t-79 -86q-14 -25 -25 -59t-6 -63q3 -16 12.5 -29.5t22.5 -24t27.5 -17t26.5 -8.5q42 -6 93.5 -1t103 19t96.5 34.5t74 44.5q3 -1 2.5 -14.5t-2 -30.5t-2 -33t2.5 -22
q3 0 9.5 -0.5t14 -0.5t15.5 1t13 4q3 35 6.5 76.5t4.5 85.5t-2 87.5t-12.5 83.5t-28 73.5t-47.5 56.5q-41 33 -92.5 39t-105 -4.5t-103.5 -32t-89 -42.5q2 -4 4.5 -11t4.5 -14.5t4.5 -14t4.5 -10.5zM149 249q31 23 73 39t86.5 20.5t88 -3.5t79.5 -32q-1 -22 0.5 -44
t-0.5 -44q-19 -25 -61 -48t-91.5 -39t-98.5 -22.5t-81 1.5q-40 12 -53.5 33.5t-8.5 46.5t23.5 49.5t43.5 42.5zM457 190q1 24 0.5 38.5t0.5 32.5q-21 17 -55.5 23.5t-73.5 4t-79 -13t-72.5 -28.5t-53.5 -42t-22 -53q-2 -25 9 -38.5t28 -18.5t38 -4.5t41 3.5q17 2 46 8.5
t62.5 18t68 28.5t62.5 41zM77 695q0 6 3 9q4 15 22.5 28.5t41 24t45 17t35.5 6.5t29 -6.5t25 -11.5q32 -15 51.5 -30t35 -22.5t32 -4t42.5 23.5q9 8 21.5 20.5t16.5 24.5q2 5 5 6q2 4 7 5t10 -3q3 -7 13 -16t20.5 -19t18.5 -19.5t6 -17.5t-13.5 -24t-47.5 -47
q-43 -38 -76 -45.5t-62.5 2t-58.5 29.5t-64 39q-8 4 -22 1.5t-28 -9.5t-26 -16t-16 -17q-7 -5 -13 4q-8 5 -16.5 13.5t-16 18t-13 19.5t-7.5 17zM99 697q-1 -1 -1 -2q5 -12 16 -23t21 -22q4 4 14.5 11.5t23.5 13.5t26.5 9.5t24.5 0.5q27 -7 48 -19.5t39 -24t35.5 -20.5
t37.5 -10t44 8.5t56 35.5q4 4 12 11t15.5 15.5t14 16.5t8.5 13l-42 47q-7 -13 -18.5 -25t-22.5 -20q-36 -27 -58 -28.5t-42 10t-46 30.5t-70 34q-9 3 -30.5 -2.5t-44.5 -15t-41 -22t-20 -22.5z" />
    <glyph glyph-name="adieresis" unicode="&#xe4;" 
d="M42 437q-4 6 -2.5 10.5t6.5 5.5q33 22 76.5 43t90.5 34.5t95 16t89 -11.5q48 -16 79.5 -48.5t50.5 -75.5t27 -94t8.5 -104.5t-3.5 -107t-9 -101.5q-1 -4 -14 -5.5t-29 -1t-30.5 2.5t-17.5 5q-1 21 -2.5 40.5t1.5 42.5q-17 -17 -34.5 -28t-38 -19t-43 -14.5t-48.5 -13.5
q-19 -5 -47.5 -9t-60.5 -4.5t-64.5 3t-58.5 15t-43.5 30.5t-18.5 50q-4 46 14 90t49.5 81t72.5 64t83 38q25 7 53.5 9.5t57 2.5t55.5 -3t51 -7q-18 33 -44.5 48.5t-59 19t-67.5 -3t-69.5 -17.5t-66.5 -24.5t-57 -24.5q-6 9 -9.5 15.5t-6 13.5t-6 15.5t-9.5 21.5zM80 396
q25 12 59 26.5t72 25t77 14t73 -5.5t61 -33.5t41 -70.5q-57 11 -116 13t-113.5 -11.5t-101.5 -44.5t-79 -86q-14 -25 -25 -59t-6 -63q3 -16 12.5 -29.5t22.5 -24t27.5 -17t26.5 -8.5q42 -6 93.5 -1t103 19t96.5 34.5t74 44.5q3 -1 2.5 -14.5t-2 -30.5t-2 -33t2.5 -22
q3 0 9.5 -0.5t14 -0.5t15.5 1t13 4q3 35 6.5 76.5t4.5 85.5t-2 87.5t-12.5 83.5t-28 73.5t-47.5 56.5q-41 33 -92.5 39t-105 -4.5t-103.5 -32t-89 -42.5q2 -4 4.5 -11t4.5 -14.5t4.5 -14t4.5 -10.5zM149 249q31 23 73 39t86.5 20.5t88 -3.5t79.5 -32q-1 -22 0.5 -44
t-0.5 -44q-19 -25 -61 -48t-91.5 -39t-98.5 -22.5t-81 1.5q-40 12 -53.5 33.5t-8.5 46.5t23.5 49.5t43.5 42.5zM457 190q1 24 0.5 38.5t0.5 32.5q-21 17 -55.5 23.5t-73.5 4t-79 -13t-72.5 -28.5t-53.5 -42t-22 -53q-2 -25 9 -38.5t28 -18.5t38 -4.5t41 3.5q17 2 46 8.5
t62.5 18t68 28.5t62.5 41zM144 622q-4 1 -8 5.5t-4 9.5q1 23 3 46t3 46q1 2 17 3t35 0t35 -4.5t18 -9.5q2 -33 2.5 -52t-0.5 -29t-3.5 -13t-6.5 -3q-22 -2 -45.5 0t-45.5 1zM157 711q-1 -17 -4.5 -36t-4.5 -36q17 2 39 0t39 0l-3 67q-16 1 -33 2.5t-33 2.5zM374 622
q-4 1 -8 5.5t-4 9.5q1 23 3 46t3 46q1 2 17 3t35 0t35 -4.5t18 -9.5q2 -33 2.5 -52t-0.5 -29t-3.5 -13t-6.5 -3q-22 -2 -45.5 0t-45.5 1zM387 711q-1 -17 -4.5 -36t-4.5 -36q17 2 39 0t39 0l-3 67q-16 1 -33 2.5t-33 2.5z" />
    <glyph glyph-name="aring" unicode="&#xe5;" 
d="M42 437q-4 6 -2.5 10.5t6.5 5.5q33 22 76.5 43t90.5 34.5t95 16t89 -11.5q48 -16 79.5 -48.5t50.5 -75.5t27 -94t8.5 -104.5t-3.5 -107t-9 -101.5q-1 -4 -14 -5.5t-29 -1t-30.5 2.5t-17.5 5q-1 21 -2.5 40.5t1.5 42.5q-17 -17 -34.5 -28t-38 -19t-43 -14.5t-48.5 -13.5
q-19 -5 -47.5 -9t-60.5 -4.5t-64.5 3t-58.5 15t-43.5 30.5t-18.5 50q-4 46 14 90t49.5 81t72.5 64t83 38q25 7 53.5 9.5t57 2.5t55.5 -3t51 -7q-18 33 -44.5 48.5t-59 19t-67.5 -3t-69.5 -17.5t-66.5 -24.5t-57 -24.5q-6 9 -9.5 15.5t-6 13.5t-6 15.5t-9.5 21.5zM80 396
q25 12 59 26.5t72 25t77 14t73 -5.5t61 -33.5t41 -70.5q-57 11 -116 13t-113.5 -11.5t-101.5 -44.5t-79 -86q-14 -25 -25 -59t-6 -63q3 -16 12.5 -29.5t22.5 -24t27.5 -17t26.5 -8.5q42 -6 93.5 -1t103 19t96.5 34.5t74 44.5q3 -1 2.5 -14.5t-2 -30.5t-2 -33t2.5 -22
q3 0 9.5 -0.5t14 -0.5t15.5 1t13 4q3 35 6.5 76.5t4.5 85.5t-2 87.5t-12.5 83.5t-28 73.5t-47.5 56.5q-41 33 -92.5 39t-105 -4.5t-103.5 -32t-89 -42.5q2 -4 4.5 -11t4.5 -14.5t4.5 -14t4.5 -10.5zM149 249q31 23 73 39t86.5 20.5t88 -3.5t79.5 -32q-1 -22 0.5 -44
t-0.5 -44q-19 -25 -61 -48t-91.5 -39t-98.5 -22.5t-81 1.5q-40 12 -53.5 33.5t-8.5 46.5t23.5 49.5t43.5 42.5zM457 190q1 24 0.5 38.5t0.5 32.5q-21 17 -55.5 23.5t-73.5 4t-79 -13t-72.5 -28.5t-53.5 -42t-22 -53q-2 -25 9 -38.5t28 -18.5t38 -4.5t41 3.5q17 2 46 8.5
t62.5 18t68 28.5t62.5 41zM202 874q31 25 69.5 35t77.5 7.5t74 -17t59 -39t32 -58t-6 -74.5q-12 -35 -40.5 -67.5t-66 -53.5t-81.5 -26.5t-88 12.5q-45 19 -68 54.5t-26 76t13.5 81t50.5 69.5zM488 733q11 39 2.5 69.5t-30.5 52t-53 33t-65 13t-67.5 -8.5t-58.5 -32
q-31 -27 -45.5 -62t-12 -70.5t22.5 -67t59 -49.5q34 -16 73.5 -12t75 22t62.5 47.5t37 64.5zM319 842q26 2 50.5 -8t39.5 -27t16.5 -40t-17.5 -47q-11 -14 -21.5 -23t-22 -15t-25.5 -10.5t-31 -9.5q-20 -6 -40.5 3t-35 26t-21 38t1.5 40q9 22 17 34.5t19 20t25 11.5t35 8h3
q1 0 1.5 0.5t1.5 0.5zM313 822q-5 -2 -6 0q-20 -3 -33 -6.5t-28 -22.5q-14 -17 -15 -37.5t8 -37.5t26.5 -28t39.5 -9q29 3 50 16.5t32 30.5t12.5 36t-7.5 33.5t-28.5 22t-50.5 2.5z" />
    <glyph glyph-name="ae" unicode="&#xe6;" horiz-adv-x="1054" 
d="M540 218q8 -47 37 -77.5t69.5 -46t88.5 -17t92.5 8.5t82 31t58.5 51q4 4 19 -9t28.5 -31t19.5 -34.5t-6 -17.5h-2q-60 -50 -125 -76.5t-129.5 -28.5t-126.5 20.5t-115 70.5l-6 -58q-1 -4 -14 -5.5t-29 -1t-30.5 2.5t-17.5 5q-1 21 -2.5 40.5t1.5 42.5q-17 -17 -30.5 -28
t-29 -19t-34 -14.5t-44.5 -13.5q-19 -5 -47.5 -9t-60.5 -4.5t-64.5 3t-58.5 15t-43.5 30.5t-18.5 50q-4 46 14 90t49.5 81t72.5 64t83 38q51 14 97 12.5t94 -10.5q-18 33 -43 48.5t-54 19t-61 -3t-63.5 -17.5t-61.5 -24.5t-55 -24.5q-6 9 -9.5 15.5t-6 13.5t-6 15.5
t-9.5 21.5q-4 6 -2.5 10.5t6.5 5.5q33 22 72.5 43t82 34.5t86 16t84.5 -11.5q44 -15 73.5 -43t49.5 -66q38 47 90.5 75.5t108.5 39t110.5 2.5t97.5 -35t69 -72.5t25 -110.5q-108 -20 -221 -48t-227 -48l-7 -2zM516 239q2 1 25 7t59 15t83 20t97.5 22t101 21t95.5 18
q-3 51 -26.5 88.5t-60.5 60.5t-82.5 31.5t-92.5 1.5q-39 -6 -69.5 -17t-56 -28t-49 -40t-48.5 -53q-2 12 -9 26.5t-16.5 28t-20 25.5t-19.5 20q-41 33 -88.5 39t-96 -4.5t-94.5 -32t-85 -42.5q2 -4 4.5 -11t4.5 -14.5t4.5 -14t4.5 -10.5q25 12 57.5 26.5t67.5 25t70 14
t66.5 -5.5t56.5 -33.5t39 -70.5q-57 11 -112 13t-104.5 -11.5t-92.5 -44.5t-75 -86q-14 -25 -25 -59t-6 -63q3 -16 12.5 -29.5t22.5 -24t27.5 -17t26.5 -8.5q42 -6 89.5 -1t94 19t87.5 34.5t70 44.5q3 -1 2.5 -14.5t-2 -30.5t-2 -33t2.5 -22q3 0 9.5 -0.5t14 -0.5t15.5 1
t13 4l6 80q6 -5 11.5 -11t12.5 -10q58 -56 125 -76t134 -15q30 3 65.5 15.5t67.5 28.5t55.5 32t29.5 24q0 1 0.5 1t0.5 1q-5 14 -17 27t-22 24q-37 -37 -83.5 -59t-94.5 -28.5t-94.5 1.5t-85 31t-65.5 60.5t-36 89.5zM420 288q5 -2 12.5 -7.5t14.5 -13.5q0 -20 1 -39t1 -39
v-5l-3 -5q-21 -24 -59 -46t-81.5 -37t-86.5 -21t-74 2q-40 12 -53.5 33.5t-8.5 47t23.5 50t43.5 42.5q27 21 59 35.5t66 20.5t69.5 3t70.5 -17q1 -2 5 -4zM432 190q1 24 0.5 38.5t0.5 32.5q-21 17 -53.5 23.5t-69 4t-72.5 -13t-65.5 -28.5t-49 -42t-20.5 -53q-2 -25 9 -38.5
t28 -18.5t38 -4.5t41 3.5q17 2 42 8.5t53.5 18t59 28.5t58.5 41zM912 384q-3 0 -27 -5.5t-60.5 -14.5t-81 -20t-88 -20.5t-80.5 -16t-59 -7.5q-3 41 23.5 74.5t69 56.5t93.5 33.5t96 6t77 -25.5t37 -61zM539 323q2 0 28 5.5t64.5 14t83 18t83 18t64.5 13.5t28 5
q-15 28 -45.5 41.5t-68 15t-77.5 -8t-74.5 -27t-58 -42t-27.5 -53.5z" />
    <glyph glyph-name="ccedilla" unicode="&#xe7;" horiz-adv-x="678" 
d="M288 -226q1 1 15 -0.5t33.5 -1.5t41.5 4.5t41 19.5l1 1q7 22 -2.5 36.5t-27.5 22t-40 9.5t-38 -1q-5 1 -10.5 0.5t-10.5 0t-8.5 3.5t-3.5 13q0 31 -1 61t-1 60q-45 4 -86.5 19.5t-82.5 45.5q-89 67 -103.5 150.5t45.5 171.5q56 81 129.5 123t178.5 42q59 -1 110.5 -13.5
t105.5 -32.5q7 -7 10 -9.5t1 -12.5q-6 -9 -13 -23.5t-13.5 -28.5t-12 -23.5t-9.5 -7.5q-30 21 -69 30.5t-81 8.5t-83.5 -10.5t-76.5 -27t-60 -41t-33 -51.5q-19 -64 -6 -106t47.5 -65.5t84 -29.5t103.5 0.5t106 25t91 44.5q3 7 14 4q9 -7 19 -16.5t18.5 -20t15 -20.5
t10.5 -17q-8 -9 -21.5 -17.5t-29.5 -16t-31.5 -14t-26.5 -11.5q-36 -16 -72.5 -27.5t-73.5 -18.5v-3q2 -14 3 -28.5t-2 -29.5q31 -1 64 -21t55.5 -50t27.5 -64.5t-20 -64.5q-21 -26 -47.5 -38t-56.5 -16.5t-61 -4.5t-60 -2zM439 -211q-4 -12 -21.5 -20t-39.5 -12.5
t-43.5 -5.5t-32.5 1v-47q26 1 52.5 1t51.5 4t48 14.5t41 33.5q22 27 15.5 56.5t-28 54t-53.5 40t-61 12.5q-5 6 -5 18t1.5 25.5t2.5 28.5t-2 27v2h1q2 2 5 1q32 5 63.5 14.5t63.5 22.5q8 3 22.5 9t30.5 13.5l32 15t27 15.5q-4 7 -15.5 23t-24.5 27q-39 -29 -94.5 -48.5
t-113 -25t-112 4t-93 37t-54 74.5t3.5 117q7 24 32.5 51t66 49t94 35.5t116.5 10.5q32 -2 61 -14.5t55 -23.5q8 16 18 29.5t15 30.5v1q-52 19 -101 30t-106 13q-94 3 -165.5 -37.5t-125.5 -119.5q-40 -58 -43 -113t21.5 -101t73.5 -81t114 -52q7 -3 18 -5.5t21 -4t17 -2.5
t6 -2q0 -29 2 -66t2 -66q16 4 43 1t51.5 -14.5t39.5 -32t6 -49.5z" />
    <glyph glyph-name="egrave" unicode="&#xe8;" horiz-adv-x="669" 
d="M113 240l2 2q57 10 119 22.5t125 25t124 24.5t115 22q1 72 -33.5 120.5t-89.5 74t-123 28t-132 -17.5t-117.5 -62t-80.5 -106q-10 -24 -15 -51.5t-5 -55.5t6.5 -55.5t20.5 -51.5q31 -53 74.5 -89.5t94.5 -57.5t106.5 -26.5t111.5 4t110 34.5t101 65h2q12 1 6 17.5
t-19.5 34.5t-28.5 31t-19 9q-21 -30 -60.5 -50t-87 -29.5t-99 -6.5t-95 19.5t-74.5 47.5t-39 78zM91 255q7 -57 37.5 -95.5t74.5 -60t96 -27.5t103.5 2t97 29.5t75.5 53.5q10 -11 22 -24t17 -27q0 -1 -0.5 -1t-0.5 -1q-6 -8 -29.5 -24t-55.5 -32t-67.5 -28.5t-65.5 -15.5
q-33 -3 -72 0.5t-78 14.5t-76 29.5t-66.5 47t-49.5 66.5t-24 88q-5 59 13 107.5t55 85t90 60t117 32.5q47 7 94.5 -0.5t86.5 -31t63.5 -62.5t25.5 -95q-118 -20 -242 -42t-241 -49zM104 316l18 3t47 9t66 13.5t75 15t74.5 15t65 13.5t46 9t16.5 3q-4 40 -32 61t-68.5 27.5
t-88 0.5t-91.5 -20.5t-79 -36t-50 -44.5q-4 -6 -9.5 -17.5t-7.5 -22.5t1.5 -19.5t16.5 -9.5zM106 336q4 29 30 53.5t64 42t82.5 27t85.5 8t74 -15t48 -41.5q-2 0 -30.5 -5t-70.5 -13.5t-91 -18t-91 -18t-70.5 -14t-30.5 -5.5zM249 827q3 2 9 -1t25 -21t57 -57t105 -110
q2 -6 -7 -17t-21.5 -21.5t-24.5 -18t-16 -5.5q-5 6 -21 20t-38.5 32l-47.5 38l-47.5 38t-39 32t-20.5 20q-5 9 6.5 20t28 21.5t32.5 19t20 10.5zM380 595q13 10 22.5 18.5t22.5 18.5l-174 177q-14 -8 -31.5 -23t-31.5 -23q3 -4 17.5 -17t35 -30t43.5 -36.5t43 -36.5
t34.5 -30t18.5 -18z" />
    <glyph glyph-name="eacute" unicode="&#xe9;" horiz-adv-x="669" 
d="M113 240q8 -47 39 -78t74.5 -47.5t95 -19.5t99 6.5t87 29.5t60.5 50q4 4 19 -9t28.5 -31t19.5 -34.5t-6 -17.5h-2q-47 -40 -101 -65t-110 -34.5t-111.5 -4t-106.5 26.5t-94.5 57.5t-74.5 89.5q-14 24 -20.5 51.5t-6.5 55.5t5 55.5t15 51.5q27 64 80.5 106t117.5 62
t132 17.5t123 -28t89.5 -74t33.5 -120.5q-54 -10 -115 -22t-124 -24.5t-125 -25t-119 -22.5zM91 255q117 27 241 49t242 42q-1 56 -25.5 95t-63.5 62.5t-86.5 31t-94.5 0.5q-64 -9 -117 -32.5t-90 -60t-55 -85t-13 -107.5q4 -50 24 -88t49.5 -66.5t66.5 -47t76 -29.5
t78 -14.5t72 -0.5q30 3 65.5 15.5t67.5 28.5t55.5 32t29.5 24q0 1 0.5 1t0.5 1q-5 14 -17 27t-22 24q-30 -32 -75.5 -53.5t-97 -29.5t-103.5 -2t-96 27.5t-74.5 60t-37.5 95.5zM104 316q-13 1 -16.5 9.5t-1.5 19.5t7.5 22.5t9.5 17.5q15 23 50 44.5t79 36t91.5 20.5t88 -0.5
t68.5 -27.5t32 -61q1 0 -16.5 -3t-46 -9t-65 -13.5t-74.5 -15t-75 -15t-66 -13.5t-47 -9zM106 336q2 0 30.5 5.5t70.5 14t91 18t91 18t70.5 13.5t30.5 5q-15 28 -48 41.5t-74 15t-85.5 -8t-82.5 -27t-64 -42t-30 -53.5zM349 827q4 -2 20 -10.5t32.5 -19t28 -21.5t6.5 -20
q-5 -6 -21 -20t-38.5 -32l-47.5 -38l-47.5 -38t-39 -32t-20.5 -20q-4 -2 -16 5.5t-24.5 18t-21.5 21.5t-7 17q67 71 105 110t57 57t25 21t9 1zM218 595q3 5 18 18t35 30t43 36.5t43.5 36.5t35 30t17.5 17q-14 8 -31.5 23t-31.5 23l-174 -177q13 -10 22.5 -18.5t22.5 -18.5z
" />
    <glyph glyph-name="ecircumflex" unicode="&#xea;" horiz-adv-x="669" 
d="M113 240l2 2q57 10 119 22.5t125 25t124 24.5t115 22q1 72 -33.5 120.5t-89.5 74t-123 28t-132 -17.5t-117.5 -62t-80.5 -106q-10 -24 -15 -51.5t-5 -55.5t6.5 -55.5t20.5 -51.5q31 -53 74.5 -89.5t94.5 -57.5t106.5 -26.5t111.5 4t110 34.5t101 65h2q12 1 6 17.5
t-19.5 34.5t-28.5 31t-19 9q-21 -30 -60.5 -50t-87 -29.5t-99 -6.5t-95 19.5t-74.5 47.5t-39 78zM91 255q7 -57 37.5 -95.5t74.5 -60t96 -27.5t103.5 2t97 29.5t75.5 53.5q10 -11 22 -24t17 -27q0 -1 -0.5 -1t-0.5 -1q-6 -8 -29.5 -24t-55.5 -32t-67.5 -28.5t-65.5 -15.5
q-33 -3 -72 0.5t-78 14.5t-76 29.5t-66.5 47t-49.5 66.5t-24 88q-5 59 13 107.5t55 85t90 60t117 32.5q47 7 94.5 -0.5t86.5 -31t63.5 -62.5t25.5 -95q-118 -20 -242 -42t-241 -49zM104 316l18 3t47 9t66 13.5t75 15t74.5 15t65 13.5t46 9t16.5 3q-4 40 -32 61t-68.5 27.5
t-88 0.5t-91.5 -20.5t-79 -36t-50 -44.5q-4 -6 -9.5 -17.5t-7.5 -22.5t1.5 -19.5t16.5 -9.5zM106 336q4 29 30 53.5t64 42t82.5 27t85.5 8t74 -15t48 -41.5q-2 0 -30.5 -5t-70.5 -13.5t-91 -18t-91 -18t-70.5 -14t-30.5 -5.5zM329 729q1 -1 -8.5 -13.5t-24 -31t-32.5 -40
t-34 -40t-27 -31t-12 -12.5q-14 14 -33.5 28t-40.5 20q-8 6 2 18t32.5 37.5t55.5 68t72 108.5q2 0 15 -0.5t28.5 -1.5t29 -4t18.5 -7l11 -14.5t27.5 -36.5t35.5 -47t35.5 -46.5t27 -36l10.5 -14.5q3 -6 -3.5 -15t-16.5 -18t-21.5 -16.5t-18.5 -9.5q-5 -2 -15 8t-22.5 25.5
t-26.5 35t-26.5 37l-22.5 31.5t-15 18zM500 629q-1 0 -12 13.5t-27 34.5t-35 45.5t-35 45.5t-26.5 35t-9.5 14q1 1 -2 1l1 -1q-2 -1 -12.5 -0.5t-22.5 0.5h-22t-11 -2q-51 -72 -80.5 -110.5t-45 -56t-20 -20t-5.5 -3.5q14 -5 30.5 -17t27.5 -22q2 2 12.5 15.5t25 32.5t31 40
t31 39t24.5 30t12 12q4 0 13.5 -11.5t22 -28.5t26.5 -37.5t27 -38.5t23.5 -30.5t15.5 -14.5q11 4 23 12t20 23z" />
    <glyph glyph-name="edieresis" unicode="&#xeb;" horiz-adv-x="669" 
d="M113 240q8 -47 39 -78t74.5 -47.5t95 -19.5t99 6.5t87 29.5t60.5 50q4 4 19 -9t28.5 -31t19.5 -34.5t-6 -17.5h-2q-47 -40 -101 -65t-110 -34.5t-111.5 -4t-106.5 26.5t-94.5 57.5t-74.5 89.5q-14 24 -20.5 51.5t-6.5 55.5t5 55.5t15 51.5q27 64 80.5 106t117.5 62
t132 17.5t123 -28t89.5 -74t33.5 -120.5q-54 -10 -115 -22t-124 -24.5t-125 -25t-119 -22.5zM91 255q117 27 241 49t242 42q-1 56 -25.5 95t-63.5 62.5t-86.5 31t-94.5 0.5q-64 -9 -117 -32.5t-90 -60t-55 -85t-13 -107.5q4 -50 24 -88t49.5 -66.5t66.5 -47t76 -29.5
t78 -14.5t72 -0.5q30 3 65.5 15.5t67.5 28.5t55.5 32t29.5 24q0 1 0.5 1t0.5 1q-5 14 -17 27t-22 24q-30 -32 -75.5 -53.5t-97 -29.5t-103.5 -2t-96 27.5t-74.5 60t-37.5 95.5zM104 316q-13 1 -16.5 9.5t-1.5 19.5t7.5 22.5t9.5 17.5q15 23 50 44.5t79 36t91.5 20.5t88 -0.5
t68.5 -27.5t32 -61q1 0 -16.5 -3t-46 -9t-65 -13.5t-74.5 -15t-75 -15t-66 -13.5t-47 -9zM106 336q2 0 30.5 5.5t70.5 14t91 18t91 18t70.5 13.5t30.5 5q-15 28 -48 41.5t-74 15t-85.5 -8t-82.5 -27t-64 -42t-30 -53.5zM165 622q-4 1 -8 5.5t-4 9.5q1 23 3 46t3 46q1 2 17 3
t35 0t35 -4.5t18 -9.5q2 -33 2.5 -52t-0.5 -29t-3.5 -13t-6.5 -3q-22 -2 -45.5 0t-45.5 1zM178 711q-1 -17 -4.5 -36t-4.5 -36q17 2 39 0t39 0l-3 67q-16 1 -33 2.5t-33 2.5zM395 622q-4 1 -8 5.5t-4 9.5q1 23 3 46t3 46q1 2 17 3t35 0t35 -4.5t18 -9.5q2 -33 2.5 -52
t-0.5 -29t-3.5 -13t-6.5 -3q-22 -2 -45.5 0t-45.5 1zM408 711q-1 -17 -4.5 -36t-4.5 -36q17 2 39 0t39 0l-3 67q-16 1 -33 2.5t-33 2.5z" />
    <glyph glyph-name="igrave" unicode="&#xec;" horiz-adv-x="193" 
d="M142 6q0 135 -2 267.5t-2 266.5q-2 9 -20 13t-37.5 3.5t-35 -6t-13.5 -16.5q0 -65 3 -130.5t4.5 -131.5t-2.5 -131t-17 -128q10 -13 28.5 -17t38 -3t35.5 5t20 8zM122 14h-77q12 67 14.5 131.5t0.5 128.5t-5.5 128.5t-2.5 131.5q20 -1 33 -2.5t33 -1.5q0 -130 2 -258
t2 -258zM79 788q3 2 4.5 1t12 -12.5t34.5 -38t73 -74.5q2 -6 -7 -17t-21.5 -21.5t-24.5 -18t-16 -5.5q-7 9 -27.5 24.5t-43.5 33t-43.5 33t-27.5 24.5q-5 9 6.5 20t28 21.5t32.5 19t20 10.5zM138 621q13 10 22.5 18.5t22.5 18.5l-102 112q-15 -16 -32 -27t-31 -19
q5 -6 22.5 -20.5t37.5 -30.5t37.5 -30.5t22.5 -21.5z" />
    <glyph glyph-name="iacute" unicode="&#xed;" horiz-adv-x="193" 
d="M142 6q-4 -4 -20 -8t-35.5 -5t-38 3t-28.5 17q13 63 17 128t2.5 131t-4.5 131.5t-3 130.5q-2 11 13.5 16.5t35 6t37.5 -3.5t20 -13q0 -134 2 -266.5t2 -267.5zM122 14q0 130 -2 258t-2 258q-20 0 -33 1.5t-33 2.5q-1 -67 2.5 -131.5t5.5 -128.5t-0.5 -128.5t-14.5 -131.5
h77zM116 788q4 -2 20 -10.5t32.5 -19t28 -21.5t6.5 -20q-7 -9 -27.5 -24.5t-43.5 -33t-43.5 -33t-27.5 -24.5q-4 -2 -16 5.5t-24.5 18t-21.5 21.5t-7 17q49 48 73 74.5t34.5 38t12 12.5t4.5 -1zM57 621q5 7 22.5 21.5t37.5 30.5t37.5 30.5t22.5 20.5q-14 8 -31 19t-32 27
l-102 -112q13 -10 22.5 -18.5t22.5 -18.5z" />
    <glyph glyph-name="icircumflex" unicode="&#xee;" horiz-adv-x="224" 
d="M173 6q0 135 -2 267.5t-2 266.5q-2 9 -20 13t-37.5 3.5t-35 -6t-13.5 -16.5q0 -65 3 -130.5t4.5 -131.5t-2.5 -131t-17 -128q10 -13 28.5 -17t38 -3t35.5 5t20 8zM153 14h-77q12 67 14.5 131.5t0.5 128.5t-5.5 128.5t-2.5 131.5q20 -1 33 -2.5t33 -1.5q0 -130 2 -258
t2 -258zM122 673q2 -1 -7.5 -13.5t-21.5 -27.5t-23 -27.5t-13 -12.5q-14 14 -33.5 28t-40.5 20q-8 6 -9.5 4.5t7 7.5t30.5 38t61 95q2 0 15 -0.5t28.5 -1.5t29 -4t18.5 -7l6.5 -8t15.5 -20t19.5 -25.5t19.5 -25t15 -19.5l6 -8q3 -6 -3.5 -15t-16.5 -18t-21.5 -16.5
t-18.5 -9.5t-15 5.5t-16.5 18.5t-16.5 23t-15 19zM228 662q-1 0 -14 15t-28 33.5t-27 34.5t-11 16q1 1 -2 1l1 -1q-2 -1 -12.5 -0.5t-22.5 0.5h-22t-11 -2q-27 -39 -42.5 -59.5t-23 -30t-9.5 -11t-3 -2.5q14 -5 30.5 -17t27.5 -22q3 3 12.5 16.5t19.5 28t19 26t12 11.5
q6 0 13.5 -10.5t16 -23t17 -24t16.5 -14.5q11 4 23 12t20 23z" />
    <glyph glyph-name="idieresis" unicode="&#xef;" horiz-adv-x="264" 
d="M195 6q-4 -4 -20 -8t-35.5 -5t-38 3t-28.5 17q13 63 17 128t2.5 131t-4.5 131.5t-3 130.5q-2 11 13.5 16.5t35 6t37.5 -3.5t20 -13q0 -134 2 -266.5t2 -267.5zM175 14q0 130 -2 258t-2 258q-20 0 -33 1.5t-33 2.5q-1 -67 2.5 -131.5t5.5 -128.5t-0.5 -128.5t-14.5 -131.5
h77zM165 622q-4 1 -8 5.5t-4 9.5q1 23 3 46t3 46q1 2 17 3t35 0t35 -4.5t18 -9.5q2 -33 2.5 -52t-0.5 -29t-3.5 -13t-6.5 -3q-22 -2 -45.5 0t-45.5 1zM178 711q-1 -17 -4.5 -36t-4.5 -36q17 2 39 0t39 0l-3 67q-16 1 -33 2.5t-33 2.5zM15 622q-4 1 -8 5.5t-4 9.5q1 23 3 46
t3 46q1 2 17 3t35 0t35 -4.5t18 -9.5q2 -33 2.5 -52t-0.5 -29t-3.5 -13t-6.5 -3q-22 -2 -45.5 0t-45.5 1zM28 711q-1 -17 -4.5 -36t-4.5 -36q17 2 39 0t39 0l-3 67q-16 1 -33 2.5t-33 2.5z" />
    <glyph glyph-name="eth" unicode="&#xf0;" horiz-adv-x="581" 
d="M391 15q-64 -19 -128 -17t-118 23.5t-92 63t-51 101.5q-10 66 13 125.5t69.5 103t110.5 65t137 10.5q-10 14 -21 31t-24 37q-26 -24 -47 -41.5t-28 -21.5q-5 -3 -13.5 10t-17.5 31t-16.5 34.5t-8.5 21.5q-1 2 1 6t9.5 11t21.5 18t38 28l-77 121q-1 1 0 3.5t8.5 7.5t23 15
t44.5 27q0 1 7 -7t19 -23t27.5 -36.5t32.5 -47.5q18 13 39 26.5t45 30.5q6 1 15.5 -10t17.5 -25t13.5 -27t3.5 -16q-8 -4 -29.5 -22.5t-49.5 -43.5l108 -175l6.5 -9.5t16 -23.5t20 -30.5t19.5 -30.5q12 -18 20 -46.5t8.5 -62t-7.5 -69t-28.5 -67.5t-54 -58.5t-83.5 -40.5z
M427 701q-8 14 -14.5 25t-14.5 25l-96 -68q-9 15 -20.5 32t-23 33t-21 30t-14.5 23q0 1 -8 -3t-17 -9.5t-16.5 -11t-7.5 -6.5l80 -123l-80 -57q5 -15 17 -34.5t18 -34.5q1 -2 14 9t28 24.5t28 24.5t13 9l82 -126q-86 20 -155 2.5t-115 -59t-67.5 -100t-12.5 -120.5
q10 -56 51.5 -94t97.5 -57t117.5 -18t110.5 22q45 19 73 44.5t44 56t22 65t6 70.5q-2 19 -18 50.5t-43.5 76t-64.5 101t-82 125.5q6 9 20 20.5t28.5 22t26.5 19t14 11.5zM456 167q-17 -31 -47 -53t-65.5 -33.5t-74 -13t-72.5 8.5t-60 30.5t-36 53.5q-16 50 -10.5 91.5t27 73
t55 52t73.5 27.5t82.5 0.5t82.5 -28.5q54 -41 63 -98t-18 -111zM113 206q7 -39 30 -65t54.5 -39.5t68 -15t70.5 8t60.5 30.5t39.5 53q20 52 15.5 91t-26 65t-55 39t-71 14t-74 -10t-64.5 -34t-42 -57.5t-6 -79.5z" />
    <glyph glyph-name="ntilde" unicode="&#xf1;" horiz-adv-x="615" 
d="M476 -1q-3 46 -4 104t-6 117.5t-18 114.5t-41 94q-11 16 -32.5 22t-45.5 5.5t-46 -7t-33 -16.5q-39 -32 -63 -67.5t-37.5 -72t-18.5 -74t-6.5 -74.5t-1.5 -72t-3 -67q-8 0 -20.5 -2.5t-26.5 -3.5t-29 1t-28 11q-2 129 1.5 263t3.5 265q-1 13 14.5 18t35.5 4t38 -5.5
t22 -10.5q-1 -25 -1 -44t-3 -43q10 27 36.5 47t61.5 32t75 15.5t77.5 -2t69.5 -20.5t51 -40q23 -31 37 -79t21.5 -102.5t9.5 -109.5t1.5 -99.5t-2 -73.5t-1.5 -31l-7 3h-81zM426 433q28 -38 42 -89t19 -107t4.5 -112.5t-1.5 -105.5h53q0 28 1 66.5t0.5 82t-3 88.5t-9.5 87
t-18.5 77t-30.5 58q-27 32 -70 46.5t-90.5 12.5t-92 -19.5t-73.5 -47.5q-11 -11 -19.5 -25t-14.5 -25l-9 -16.5t-3 -0.5q0 21 -0.5 37t-1.5 31t-1 31t1 36q-4 2 -13 2h-19.5t-20 -0.5t-15.5 -0.5q-2 -131 -3.5 -258.5t0.5 -257.5q14 -5 29.5 -3.5t31.5 3.5q2 52 4 86.5
t3.5 59t4 41t6 31.5t8.5 32.5t13 42.5q7 23 23 48.5t38 48.5t49.5 39.5t57 22t60.5 -3.5t60 -38zM56 695q0 6 3 9q4 15 22.5 28.5t41 24t45 17t35.5 6.5t29 -6.5t25 -11.5q32 -15 51.5 -30t35 -22.5t32 -4t42.5 23.5q9 8 21.5 20.5t16.5 24.5q2 5 5 6q2 4 7 5t10 -3
q3 -7 13 -16t20.5 -19t18.5 -19.5t6 -17.5t-13.5 -24t-47.5 -47q-43 -38 -76 -45.5t-62.5 2t-58.5 29.5t-64 39q-8 4 -22 1.5t-28 -9.5t-26 -16t-16 -17q-7 -5 -13 4q-8 5 -16.5 13.5t-16 18t-13 19.5t-7.5 17zM78 697q-1 -1 -1 -2q5 -12 16 -23t21 -22q4 4 14.5 11.5
t23.5 13.5t26.5 9.5t24.5 0.5q27 -7 48 -19.5t39 -24t35.5 -20.5t37.5 -10t44 8.5t56 35.5q4 4 12 11t15.5 15.5t14 16.5t8.5 13l-42 47q-7 -13 -18.5 -25t-22.5 -20q-36 -27 -58 -28.5t-42 10t-46 30.5t-70 34q-9 3 -30.5 -2.5t-44.5 -15t-41 -22t-20 -22.5z" />
    <glyph glyph-name="ograve" unicode="&#xf2;" horiz-adv-x="667" 
d="M366 549q-71 6 -133.5 -8t-111 -46t-78.5 -81.5t-34 -113.5q-4 -50 8 -94.5t38 -82t66.5 -66t93.5 -44.5q40 -14 86.5 -13.5t92.5 12.5t90 35t79 54t59 69t30 79q8 57 -15.5 111.5t-66 96.5t-97 67.5t-107.5 24.5zM632 254q-6 -39 -29 -74.5t-57.5 -64.5t-77 -51
t-85.5 -33.5t-84.5 -12t-73.5 12.5q-110 46 -157 109t-39 156q6 75 48 126t101.5 78.5t128 32.5t129.5 -11q41 -13 78.5 -42t65.5 -66.5t42.5 -79.5t9.5 -80zM111 347q-14 -43 -14 -88.5t22 -90.5q19 -37 55 -58t80.5 -27t92 0.5t89.5 25.5t73 48t43 67q20 65 -2.5 117
t-66.5 88q-23 23 -57 34.5t-72 12.5t-77 -7.5t-72.5 -25.5t-58.5 -41.5t-35 -54.5zM471 413q33 -27 51.5 -54t18.5 -74q0 -49 -25 -86t-64 -61t-86 -34t-92 -5.5t-82 24.5t-55 55q-8 15 -12.5 36.5t-6 44.5t1 44t10.5 35q24 43 65 73.5t88.5 42.5t97 3t90.5 -44zM286 827
q3 2 9 -1t25 -21t57 -57t105 -110q2 -6 -7 -17t-21.5 -21.5t-24.5 -18t-16 -5.5q-5 6 -21 20t-38.5 32l-47.5 38l-47.5 38t-39 32t-20.5 20q-5 9 6.5 20t28 21.5t32.5 19t20 10.5zM417 595q13 10 22.5 18.5t22.5 18.5l-174 177q-14 -8 -31.5 -23t-31.5 -23q3 -4 17.5 -17
t35 -30t43.5 -36.5t43 -36.5t34.5 -30t18.5 -18z" />
    <glyph glyph-name="oacute" unicode="&#xf3;" horiz-adv-x="667" 
d="M366 549q53 1 107.5 -24.5t97 -67.5t66 -96.5t15.5 -111.5q-6 -41 -30 -79t-59 -69t-79 -54t-90 -35t-92.5 -12.5t-86.5 13.5q-53 16 -93.5 44.5t-66.5 66t-38 82t-8 94.5q4 64 34 113.5t78.5 81.5t111 46t133.5 8zM632 254q5 38 -9.5 80t-42.5 79.5t-65.5 66.5t-78.5 42
q-61 16 -129.5 11t-128 -32.5t-101.5 -78.5t-48 -126q-8 -93 39 -156t157 -109q32 -13 73.5 -12.5t84.5 12t85.5 33.5t77 51t57.5 64.5t29 74.5zM111 347q10 30 35 54.5t58.5 41.5t72.5 25.5t77 7.5t72 -12.5t57 -34.5q44 -36 66.5 -88t2.5 -117q-12 -38 -43 -67t-73 -48
t-89.5 -25.5t-92 -0.5t-80.5 27t-55 58q-22 45 -22 90.5t14 88.5zM471 413q-41 35 -90.5 44t-97 -3t-88.5 -42.5t-65 -73.5q-8 -14 -10.5 -35t-1 -44t6 -44.5t12.5 -36.5q18 -35 55 -55t82 -24.5t92 5.5t86 34t64 61t25 86q0 47 -18.5 74t-51.5 54zM387 827q4 -2 20 -10.5
t32.5 -19t28 -21.5t6.5 -20q-5 -6 -21 -20t-38.5 -32l-47.5 -38l-47.5 -38t-39 -32t-20.5 -20q-4 -2 -16 5.5t-24.5 18t-21.5 21.5t-7 17q67 71 105 110t57 57t25 21t9 1zM256 595q3 5 18 18t35 30t43 36.5t43.5 36.5t35 30t17.5 17q-14 8 -31.5 23t-31.5 23l-174 -177
q13 -10 22.5 -18.5t22.5 -18.5z" />
    <glyph glyph-name="ocircumflex" unicode="&#xf4;" horiz-adv-x="667" 
d="M366 549q-71 6 -133.5 -8t-111 -46t-78.5 -81.5t-34 -113.5q-4 -50 8 -94.5t38 -82t66.5 -66t93.5 -44.5q40 -14 86.5 -13.5t92.5 12.5t90 35t79 54t59 69t30 79q8 57 -15.5 111.5t-66 96.5t-97 67.5t-107.5 24.5zM632 254q-6 -39 -29 -74.5t-57.5 -64.5t-77 -51
t-85.5 -33.5t-84.5 -12t-73.5 12.5q-110 46 -157 109t-39 156q6 75 48 126t101.5 78.5t128 32.5t129.5 -11q41 -13 78.5 -42t65.5 -66.5t42.5 -79.5t9.5 -80zM111 347q-14 -43 -14 -88.5t22 -90.5q19 -37 55 -58t80.5 -27t92 0.5t89.5 25.5t73 48t43 67q20 65 -2.5 117
t-66.5 88q-23 23 -57 34.5t-72 12.5t-77 -7.5t-72.5 -25.5t-58.5 -41.5t-35 -54.5zM471 413q33 -27 51.5 -54t18.5 -74q0 -49 -25 -86t-64 -61t-86 -34t-92 -5.5t-82 24.5t-55 55q-8 15 -12.5 36.5t-6 44.5t1 44t10.5 35q24 43 65 73.5t88.5 42.5t97 3t90.5 -44zM328 729
q1 -1 -8.5 -13.5t-24 -31t-32.5 -40t-34 -40t-27 -31t-12 -12.5q-14 14 -33.5 28t-40.5 20q-8 6 2 18t32.5 37.5t55.5 68t72 108.5q2 0 15 -0.5t28.5 -1.5t29 -4t18.5 -7l11 -14.5t27.5 -36.5t35.5 -47t35.5 -46.5t27 -36l10.5 -14.5q3 -6 -3.5 -15t-16.5 -18t-21.5 -16.5
t-18.5 -9.5q-5 -2 -15 8t-22.5 25.5t-26.5 35t-26.5 37l-22.5 31.5t-15 18zM499 629q-1 0 -12 13.5t-27 34.5t-35 45.5t-35 45.5t-26.5 35t-9.5 14q1 1 -2 1l1 -1q-2 -1 -12.5 -0.5t-22.5 0.5h-22t-11 -2q-51 -72 -80.5 -110.5t-45 -56t-20 -20t-5.5 -3.5q14 -5 30.5 -17
t27.5 -22q2 2 12.5 15.5t25 32.5t31 40t31 39t24.5 30t12 12q4 0 13.5 -11.5t22 -28.5t26.5 -37.5t27 -38.5t23.5 -30.5t15.5 -14.5q11 4 23 12t20 23z" />
    <glyph glyph-name="otilde" unicode="&#xf5;" horiz-adv-x="667" 
d="M366 549q53 1 107.5 -24.5t97 -67.5t66 -96.5t15.5 -111.5q-6 -41 -30 -79t-59 -69t-79 -54t-90 -35t-92.5 -12.5t-86.5 13.5q-53 16 -93.5 44.5t-66.5 66t-38 82t-8 94.5q4 64 34 113.5t78.5 81.5t111 46t133.5 8zM632 254q5 38 -9.5 80t-42.5 79.5t-65.5 66.5t-78.5 42
q-61 16 -129.5 11t-128 -32.5t-101.5 -78.5t-48 -126q-8 -93 39 -156t157 -109q32 -13 73.5 -12.5t84.5 12t85.5 33.5t77 51t57.5 64.5t29 74.5zM111 347q10 30 35 54.5t58.5 41.5t72.5 25.5t77 7.5t72 -12.5t57 -34.5q44 -36 66.5 -88t2.5 -117q-12 -38 -43 -67t-73 -48
t-89.5 -25.5t-92 -0.5t-80.5 27t-55 58q-22 45 -22 90.5t14 88.5zM471 413q-41 35 -90.5 44t-97 -3t-88.5 -42.5t-65 -73.5q-8 -14 -10.5 -35t-1 -44t6 -44.5t12.5 -36.5q18 -35 55 -55t82 -24.5t92 5.5t86 34t64 61t25 86q0 47 -18.5 74t-51.5 54zM91 695q0 6 3 9
q4 15 22.5 28.5t41 24t45 17t35.5 6.5t29 -6.5t25 -11.5q32 -15 51.5 -30t35 -22.5t32 -4t42.5 23.5q9 8 21.5 20.5t16.5 24.5q2 5 5 6q2 4 7 5t10 -3q3 -7 13 -16t20.5 -19t18.5 -19.5t6 -17.5t-13.5 -24t-47.5 -47q-43 -38 -76 -45.5t-62.5 2t-58.5 29.5t-64 39
q-8 4 -22 1.5t-28 -9.5t-26 -16t-16 -17q-7 -5 -13 4q-8 5 -16.5 13.5t-16 18t-13 19.5t-7.5 17zM113 697q-1 -1 -1 -2q5 -12 16 -23t21 -22q4 4 14.5 11.5t23.5 13.5t26.5 9.5t24.5 0.5q27 -7 48 -19.5t39 -24t35.5 -20.5t37.5 -10t44 8.5t56 35.5q4 4 12 11t15.5 15.5
t14 16.5t8.5 13l-42 47q-7 -13 -18.5 -25t-22.5 -20q-36 -27 -58 -28.5t-42 10t-46 30.5t-70 34q-9 3 -30.5 -2.5t-44.5 -15t-41 -22t-20 -22.5z" />
    <glyph glyph-name="odieresis" unicode="&#xf6;" horiz-adv-x="667" 
d="M366 549q53 1 107.5 -24.5t97 -67.5t66 -96.5t15.5 -111.5q-6 -41 -30 -79t-59 -69t-79 -54t-90 -35t-92.5 -12.5t-86.5 13.5q-53 16 -93.5 44.5t-66.5 66t-38 82t-8 94.5q4 64 34 113.5t78.5 81.5t111 46t133.5 8zM632 254q5 38 -9.5 80t-42.5 79.5t-65.5 66.5t-78.5 42
q-61 16 -129.5 11t-128 -32.5t-101.5 -78.5t-48 -126q-8 -93 39 -156t157 -109q32 -13 73.5 -12.5t84.5 12t85.5 33.5t77 51t57.5 64.5t29 74.5zM111 347q10 30 35 54.5t58.5 41.5t72.5 25.5t77 7.5t72 -12.5t57 -34.5q44 -36 66.5 -88t2.5 -117q-12 -38 -43 -67t-73 -48
t-89.5 -25.5t-92 -0.5t-80.5 27t-55 58q-22 45 -22 90.5t14 88.5zM471 413q-41 35 -90.5 44t-97 -3t-88.5 -42.5t-65 -73.5q-8 -14 -10.5 -35t-1 -44t6 -44.5t12.5 -36.5q18 -35 55 -55t82 -24.5t92 5.5t86 34t64 61t25 86q0 47 -18.5 74t-51.5 54zM168 622q-4 1 -8 5.5
t-4 9.5q1 23 3 46t3 46q1 2 17 3t35 0t35 -4.5t18 -9.5q2 -33 2.5 -52t-0.5 -29t-3.5 -13t-6.5 -3q-22 -2 -45.5 0t-45.5 1zM181 711q-1 -17 -4.5 -36t-4.5 -36q17 2 39 0t39 0l-3 67q-16 1 -33 2.5t-33 2.5zM398 622q-4 1 -8 5.5t-4 9.5q1 23 3 46t3 46q1 2 17 3t35 0
t35 -4.5t18 -9.5q2 -33 2.5 -52t-0.5 -29t-3.5 -13t-6.5 -3q-22 -2 -45.5 0t-45.5 1zM411 711q-1 -17 -4.5 -36t-4.5 -36q17 2 39 0t39 0l-3 67q-16 1 -33 2.5t-33 2.5z" />
    <glyph glyph-name="divide" unicode="&#xf7;" horiz-adv-x="500" 
d="M431 312q-1 0 -20.5 0.5t-52 1.5t-75 1.5t-88 1t-91 0t-85.5 -1.5q-4 -8 -11 -8t-9 9q0 28 2.5 47.5t2.5 46.5q0 2 1 3q0 6 9 8q67 -1 113.5 -1h89h89t112.5 -1h2q2 -1 3 -1t2 -1l1 -1l2 -2q1 -2 1 -7l3 -7zM412 399q-43 1 -76.5 1h-62.5h-55h-55h-62.5t-76.5 1
q0 -20 -1.5 -33t-3.5 -33h71t84.5 -0.5t85.5 -1.5t75.5 -1.5t54.5 -1l21 -0.5zM176 446q-5 1 -7 5q-5 3 -5 10q1 23 3 46t3 46q3 6 9.5 7t9.5 -5q16 -1 35 -3t36 -2q4 2 8.5 0.5t6.5 -8.5v-81q4 -5 2 -10t-10 -6q-22 -2 -45.5 0t-45.5 1zM189 535q-1 -17 -4.5 -36t-4.5 -36
q17 2 39 0t39 0l-3 67q-16 1 -33 2.5t-33 2.5zM173 183q-5 1 -7 5q-5 3 -5 10q1 23 3 46t3 46q3 6 9.5 7t9.5 -5q16 -1 35 -3t36 -2q4 2 8.5 0.5t6.5 -8.5v-81q4 -5 2 -10t-10 -6q-22 -2 -45.5 0t-45.5 1zM186 272q-1 -17 -4.5 -36t-4.5 -36q17 2 39 0t39 0l-3 67
q-16 1 -33 2.5t-33 2.5z" />
    <glyph glyph-name="oslash" unicode="&#xf8;" horiz-adv-x="667" 
d="M92 -12q-16 16 34 67q-63 42 -93.5 105.5t-23.5 139.5q7 78 48.5 133t102 86t132.5 36.5t141 -16.5q15 37 26.5 57.5t19.5 30.5t14 12t11 1q6 -2 17 -8t22.5 -13t20.5 -14.5t11 -11.5q5 -5 -0.5 -19t-15 -29.5t-19 -30.5t-13.5 -21q30 -21 55 -49t42.5 -59.5t25 -66
t2.5 -69.5q-7 -40 -29.5 -77t-56.5 -67.5t-76.5 -54t-87.5 -36.5t-90.5 -15t-85.5 10q-3 -4 -8.5 -14.5t-11.5 -21.5t-12 -20t-10 -9q-1 0 -3 1l-11 5.5t-27 13t-51 24.5zM179 -35l6 10l13.5 22.5t13.5 23t6 12.5q28 -14 68.5 -14.5t85 10.5t88.5 32t80.5 50.5t61.5 65.5
t30 77q4 28 -3.5 58.5t-24.5 61.5t-43 60t-59 55q20 32 32.5 54t21.5 39q-18 10 -29 17t-28 18q-22 -35 -33.5 -55t-16.5 -30.5t-6 -13.5t-2 -3q-35 15 -79 18t-89.5 -5t-89 -27t-77.5 -48.5t-55 -68.5t-22 -88q-3 -36 6.5 -73t27.5 -69t42.5 -56t51.5 -34q-3 -5 -11 -19
t-35 -43zM185 104q-29 17 -43.5 32t-22.5 32q-22 45 -22 90.5t14 88.5q12 38 49.5 66t83.5 44.5t92 19.5t76 -9q-23 -40 -51 -87t-58.5 -96t-61 -95.5t-56.5 -85.5zM248 84q3 6 18.5 31t37.5 59.5t47.5 75t49.5 78t42.5 67.5t27.5 44q54 -46 77.5 -99t3.5 -116
q-11 -36 -41 -64.5t-71 -47t-91 -26t-101 -2.5zM137 178q13 -28 42 -47q49 73 103 158.5t102 166.5q-36 8 -73.5 3t-71.5 -21t-62.5 -41.5t-46.5 -58.5q-8 -14 -10.5 -35t-1 -44t6 -44.5t12.5 -36.5zM541 285q0 22 -4.5 39.5t-12.5 32t-20.5 27t-27.5 25.5
q-48 -75 -99.5 -156t-96.5 -155q44 -3 90.5 7.5t84.5 34.5t62 60.5t24 84.5z" />
    <glyph glyph-name="ugrave" unicode="&#xf9;" horiz-adv-x="583" 
d="M420 1q6 0 22 -1t32.5 -2t30 0t15.5 6q2 28 1.5 76t-1.5 103.5t-2.5 114t-2.5 109.5t-0.5 88t2.5 50q-3 11 -12 9h-1q-23 0 -50.5 -2t-50.5 -2q2 -86 0 -153.5t-12 -119t-30.5 -87t-55.5 -56.5q-67 -41 -106.5 -37t-60 36t-26 84.5t-4.5 110t4.5 112t0.5 90.5l1 1
q3 8 -11.5 11t-34 3t-37.5 -1t-21 -1q-2 -74 -5 -162t2 -173q2 -57 22 -99t51.5 -68.5t72 -37t85 -4t89.5 30.5t86 66q-1 -14 -2.5 -30t-1.5 -30t2.5 -23.5t8.5 -11.5zM501 22q-19 -4 -36 -3l-34 2q0 26 1 53t1 54q-2 8 -9.5 10t-12.5 -6q-29 -41 -68 -68t-80 -38.5
t-81.5 -6.5t-73.5 27.5t-55 63t-26 99.5q-5 81 -2 157t5 157q16 0 31.5 0.5t31.5 1.5q1 -23 -2 -66.5t-5 -95t0.5 -104.5t14.5 -95t36.5 -66t66.5 -17q78 12 123.5 46t68 90t26.5 134.5t0 180.5q17 0 37.5 1t37.5 1zM199 827q3 2 9 -1t25 -21t57 -57t105 -110q2 -6 -7 -17
t-21.5 -21.5t-24.5 -18t-16 -5.5q-5 6 -21 20t-38.5 32l-47.5 38l-47.5 38t-39 32t-20.5 20q-5 9 6.5 20t28 21.5t32.5 19t20 10.5zM330 595q13 10 22.5 18.5t22.5 18.5l-174 177q-14 -8 -31.5 -23t-31.5 -23q3 -4 17.5 -17t35 -30t43.5 -36.5t43 -36.5t34.5 -30t18.5 -18z
" />
    <glyph glyph-name="uacute" unicode="&#xfa;" horiz-adv-x="583" 
d="M420 1q-6 2 -8.5 11.5t-2.5 23.5t1.5 30t2.5 30q-41 -42 -86 -66t-89.5 -30.5t-85 4t-72 37t-51.5 68.5t-22 99q-5 85 -2 173t5 162q3 0 21 1t37.5 1t34 -3t11.5 -11l-1 -1q3 -36 -0.5 -90.5t-4.5 -112t4.5 -110t26 -84.5t60 -36t106.5 37q35 21 55.5 56.5t30.5 87
t12 119t0 153.5q23 0 50.5 2t50.5 2h1q9 2 12 -9q-2 -13 -2.5 -50t0.5 -88t2.5 -109.5t2.5 -114t1.5 -103.5t-1.5 -76q-2 -5 -15.5 -6t-30 0t-32.5 2t-22 1zM497 534q-17 0 -37.5 -1t-37.5 -1q4 -102 0 -180.5t-26.5 -134.5t-68 -90t-123.5 -46q-42 -7 -66.5 17t-36.5 66
t-14.5 95t-0.5 104.5t5 95t2 66.5q-16 -1 -31.5 -1.5t-31.5 -0.5q-2 -81 -5 -157t2 -157q4 -59 26 -99.5t55 -63t73.5 -27.5t81.5 6.5t80 38.5t68 68q5 8 12.5 6t9.5 -10q0 -27 -1 -54t-1 -53l34 -2t36 3zM316 827q4 -2 20 -10.5t32.5 -19t28 -21.5t6.5 -20q-5 -6 -21 -20
t-38.5 -32l-47.5 -38l-47.5 -38t-39 -32t-20.5 -20q-4 -2 -16 5.5t-24.5 18t-21.5 21.5t-7 17q67 71 105 110t57 57t25 21t9 1zM185 595q3 5 18 18t35 30t43 36.5t43.5 36.5t35 30t17.5 17q-14 8 -31.5 23t-31.5 23l-174 -177q13 -10 22.5 -18.5t22.5 -18.5z" />
    <glyph glyph-name="ucircumflex" unicode="&#xfb;" horiz-adv-x="583" 
d="M420 1q6 0 22 -1t32.5 -2t30 0t15.5 6q2 28 1.5 76t-1.5 103.5t-2.5 114t-2.5 109.5t-0.5 88t2.5 50q-3 11 -12 9h-1q-23 0 -50.5 -2t-50.5 -2q2 -86 0 -153.5t-12 -119t-30.5 -87t-55.5 -56.5q-67 -41 -106.5 -37t-60 36t-26 84.5t-4.5 110t4.5 112t0.5 90.5l1 1
q3 8 -11.5 11t-34 3t-37.5 -1t-21 -1q-2 -74 -5 -162t2 -173q2 -57 22 -99t51.5 -68.5t72 -37t85 -4t89.5 30.5t86 66q-1 -14 -2.5 -30t-1.5 -30t2.5 -23.5t8.5 -11.5zM501 22q-19 -4 -36 -3l-34 2q0 26 1 53t1 54q-2 8 -9.5 10t-12.5 -6q-29 -41 -68 -68t-80 -38.5
t-81.5 -6.5t-73.5 27.5t-55 63t-26 99.5q-5 81 -2 157t5 157q16 0 31.5 0.5t31.5 1.5q1 -23 -2 -66.5t-5 -95t0.5 -104.5t14.5 -95t36.5 -66t66.5 -17q78 12 123.5 46t68 90t26.5 134.5t0 180.5q17 0 37.5 1t37.5 1zM269 729q1 -1 -8.5 -13.5t-24 -31t-32.5 -40t-34 -40
t-27 -31t-12 -12.5q-14 14 -33.5 28t-40.5 20q-8 6 2 18t32.5 37.5t55.5 68t72 108.5q2 0 15 -0.5t28.5 -1.5t29 -4t18.5 -7l11 -14.5t27.5 -36.5t35.5 -47t35.5 -46.5t27 -36l10.5 -14.5q3 -6 -3.5 -15t-16.5 -18t-21.5 -16.5t-18.5 -9.5q-5 -2 -15 8t-22.5 25.5t-26.5 35
t-26.5 37l-22.5 31.5t-15 18zM440 629q-1 0 -12 13.5t-27 34.5t-35 45.5t-35 45.5t-26.5 35t-9.5 14q1 1 -2 1l1 -1q-2 -1 -12.5 -0.5t-22.5 0.5h-22t-11 -2q-51 -72 -80.5 -110.5t-45 -56t-20 -20t-5.5 -3.5q14 -5 30.5 -17t27.5 -22q2 2 12.5 15.5t25 32.5t31 40t31 39
t24.5 30t12 12q4 0 13.5 -11.5t22 -28.5t26.5 -37.5t27 -38.5t23.5 -30.5t15.5 -14.5q11 4 23 12t20 23z" />
    <glyph glyph-name="udieresis" unicode="&#xfc;" horiz-adv-x="583" 
d="M420 1q-6 2 -8.5 11.5t-2.5 23.5t1.5 30t2.5 30q-41 -42 -86 -66t-89.5 -30.5t-85 4t-72 37t-51.5 68.5t-22 99q-5 85 -2 173t5 162q3 0 21 1t37.5 1t34 -3t11.5 -11l-1 -1q3 -36 -0.5 -90.5t-4.5 -112t4.5 -110t26 -84.5t60 -36t106.5 37q35 21 55.5 56.5t30.5 87
t12 119t0 153.5q23 0 50.5 2t50.5 2h1q9 2 12 -9q-2 -13 -2.5 -50t0.5 -88t2.5 -109.5t2.5 -114t1.5 -103.5t-1.5 -76q-2 -5 -15.5 -6t-30 0t-32.5 2t-22 1zM497 534q-17 0 -37.5 -1t-37.5 -1q4 -102 0 -180.5t-26.5 -134.5t-68 -90t-123.5 -46q-42 -7 -66.5 17t-36.5 66
t-14.5 95t-0.5 104.5t5 95t2 66.5q-16 -1 -31.5 -1.5t-31.5 -0.5q-2 -81 -5 -157t2 -157q4 -59 26 -99.5t55 -63t73.5 -27.5t81.5 6.5t80 38.5t68 68q5 8 12.5 6t9.5 -10q0 -27 -1 -54t-1 -53l34 -2t36 3zM102 622q-4 1 -8 5.5t-4 9.5q1 23 3 46t3 46q1 2 17 3t35 0t35 -4.5
t18 -9.5q2 -33 2.5 -52t-0.5 -29t-3.5 -13t-6.5 -3q-22 -2 -45.5 0t-45.5 1zM115 711q-1 -17 -4.5 -36t-4.5 -36q17 2 39 0t39 0l-3 67q-16 1 -33 2.5t-33 2.5zM332 622q-4 1 -8 5.5t-4 9.5q1 23 3 46t3 46q1 2 17 3t35 0t35 -4.5t18 -9.5q2 -33 2.5 -52t-0.5 -29t-3.5 -13
t-6.5 -3q-22 -2 -45.5 0t-45.5 1zM345 711q-1 -17 -4.5 -36t-4.5 -36q17 2 39 0t39 0l-3 67q-16 1 -33 2.5t-33 2.5z" />
    <glyph glyph-name="yacute" unicode="&#xfd;" horiz-adv-x="584" 
d="M209 3q-15 28 -38.5 75.5t-49.5 103t-52.5 112t-46.5 103t-31.5 77t-8.5 32.5q16 12 38.5 22t41.5 17h1q5 3 10 1t7 -9q2 0 10.5 -20.5t21.5 -54.5t30.5 -78t37.5 -92t41.5 -96.5t42.5 -91.5q33 62 61.5 112.5t56 97.5t55.5 95t58 104q11 35 14.5 40.5t11.5 1.5l13 -6.5
t25 -13t27 -16t19 -15.5q-2 -4 -15 -28t-31 -56.5t-38.5 -69t-37.5 -65.5l-227 -406q-24 -40 -47 -80t-41 -71t-29 -47.5t-11 -8.5q-3 -1 -17 6.5t-28 17.5t-24.5 20t-7.5 14l12 20.5t29.5 50.5t38 65t38 65t29 50.5t11.5 21.5zM275 82q-7 -11 -13.5 -10t-6.5 8
q-44 94 -78.5 175t-59 141t-38.5 94t-16 34q-11 -7 -27 -14.5t-29 -12.5q0 -10 16.5 -50t41.5 -95t54 -116t53.5 -113t41 -86t16.5 -35q0 -2 -10.5 -22.5t-27 -49.5t-35.5 -63t-35.5 -63.5t-29 -49.5t-14.5 -22q14 -19 28.5 -24.5t24.5 -9.5q25 49 53.5 97t54.5 96
q19 34 48.5 85.5t61.5 108.5t63.5 113t55.5 99q13 22 30 53t33.5 60.5t29.5 53.5t19 34q-14 5 -28 13.5t-25 16.5q-3 -7 -5 -10.5t-4.5 -7t-5.5 -8t-8 -13.5q-55 -107 -114.5 -204.5t-114.5 -202.5zM368 827q4 -2 20 -10.5t32.5 -19t28 -21.5t6.5 -20q-5 -6 -21 -20
t-38.5 -32l-47.5 -38l-47.5 -38t-39 -32t-20.5 -20q-4 -2 -16 5.5t-24.5 18t-21.5 21.5t-7 17q67 71 105 110t57 57t25 21t9 1zM237 595q3 5 18 18t35 30t43 36.5t43.5 36.5t35 30t17.5 17q-14 8 -31.5 23t-31.5 23l-174 -177q13 -10 22.5 -18.5t22.5 -18.5z" />
    <glyph glyph-name="thorn" unicode="&#xfe;" horiz-adv-x="500" 
d="M37 -315q-10 2 -12 12q2 64 3 162t1 213t0.5 238t0.5 237.5t1 212t3 161.5q1 7 14 9.5t30 2t33.5 -1.5t24.5 1l0.5 -15t0.5 -38v-50.5v-51t0.5 -40t0.5 -18.5q67 46 123 47.5t100 -28.5t75.5 -86t49 -124.5t21 -144.5t-8 -146t-39 -128.5t-71.5 -92.5t-105 -37.5
t-141 35.5q-1 0 -1 -25t-0.5 -61.5t-1 -79t-1 -79t-2 -60.5t-3.5 -24q-2 -1 -15.5 -1h-30t-31.5 0.5t-19 0.5zM115 -295q0 14 1 45.5t2 70.5t2.5 80.5t2.5 75.5t2 56.5l1 22.5q79 -47 140 -49.5t104.5 27t71 84.5t39 122.5t8 140.5t-21 139.5t-48.5 119.5t-75 80t-99.5 21
t-122.5 -58q-1 1 -2 -3.5t-2.5 -5.5t-2.5 6t-0.5 32t2 72.5t5.5 127.5q-19 -2 -34.5 -1t-33.5 0q-1 -47 -2 -113.5t-1.5 -145.5t-0.5 -167t-0.5 -177.5t-0.5 -177.5t-0.5 -167t-1.5 -145t-2 -113q16 0 35.5 0.5t34.5 -0.5zM123 133q1 2 1 24t-0.5 56.5t-1.5 77.5t-1.5 88
t-1 88t-0.5 76.5t1 55t3 22.5q57 45 104 51.5t83 -14t61.5 -63.5t39.5 -97t16.5 -113.5t-8 -114t-34 -98.5t-60 -66.5t-87 -18.5t-115.5 46zM144 142q54 -34 96.5 -35t74 21.5t52.5 64t30.5 92t8.5 105t-12.5 103.5t-33.5 87.5t-54 57t-74.5 12t-94.5 -48.5z" />
    <glyph glyph-name="ydieresis" unicode="&#xff;" horiz-adv-x="584" 
d="M209 3q-15 28 -38.5 75.5t-49.5 103t-52.5 112t-46.5 103t-31.5 77t-8.5 32.5q16 12 38.5 22t41.5 17h1q5 3 10 1t7 -9q2 0 10.5 -20.5t21.5 -54.5t30.5 -78t37.5 -92t41.5 -96.5t42.5 -91.5q33 62 61.5 112.5t56 97.5t55.5 95t58 104q11 35 14.5 40.5t11.5 1.5l13 -6.5
t25 -13t27 -16t19 -15.5q-2 -4 -15 -28t-31 -56.5t-38.5 -69t-37.5 -65.5l-227 -406q-24 -40 -47 -80t-41 -71t-29 -47.5t-11 -8.5q-3 -1 -17 6.5t-28 17.5t-24.5 20t-7.5 14l12 20.5t29.5 50.5t38 65t38 65t29 50.5t11.5 21.5zM275 82q-7 -11 -13.5 -10t-6.5 8
q-44 94 -78.5 175t-59 141t-38.5 94t-16 34q-11 -7 -27 -14.5t-29 -12.5q0 -10 16.5 -50t41.5 -95t54 -116t53.5 -113t41 -86t16.5 -35q0 -2 -10.5 -22.5t-27 -49.5t-35.5 -63t-35.5 -63.5t-29 -49.5t-14.5 -22q14 -19 28.5 -24.5t24.5 -9.5q25 49 53.5 97t54.5 96
q19 34 48.5 85.5t61.5 108.5t63.5 113t55.5 99q13 22 30 53t33.5 60.5t29.5 53.5t19 34q-14 5 -28 13.5t-25 16.5q-3 -7 -5 -10.5t-4.5 -7t-5.5 -8t-8 -13.5q-55 -107 -114.5 -204.5t-114.5 -202.5zM130 622q-4 1 -8 5.5t-4 9.5q1 23 3 46t3 46q1 2 17 3t35 0t35 -4.5
t18 -9.5q2 -33 2.5 -52t-0.5 -29t-3.5 -13t-6.5 -3q-22 -2 -45.5 0t-45.5 1zM143 711q-1 -17 -4.5 -36t-4.5 -36q17 2 39 0t39 0l-3 67q-16 1 -33 2.5t-33 2.5zM360 622q-4 1 -8 5.5t-4 9.5q1 23 3 46t3 46q1 2 17 3t35 0t35 -4.5t18 -9.5q2 -33 2.5 -52t-0.5 -29t-3.5 -13
t-6.5 -3q-22 -2 -45.5 0t-45.5 1zM373 711q-1 -17 -4.5 -36t-4.5 -36q17 2 39 0t39 0l-3 67q-16 1 -33 2.5t-33 2.5z" />
    <glyph glyph-name="Lslash" unicode="&#x141;" horiz-adv-x="644" 
d="M101 29q0 53 -0.5 135.5t-0.5 182.5q-16 -8 -19 -5q-4 3 -19 12.5t-30.5 21.5t-25.5 24t-4 20q5 7 33 26t65 43v147.5v130t0.5 93t1.5 36.5q3 3 15.5 3.5t28.5 1t33 0.5t28 1q0 -23 -0.5 -59.5t-1 -82t-1 -98t-1.5 -107.5q28 17 47.5 31t24.5 19q4 1 15 -7.5t22.5 -20
t20 -23.5t5.5 -17q-43 -38 -76.5 -66t-59.5 -49v-95.5t1 -88t2 -77t3 -60.5q97 2 196 3.5t196 3.5q7 -2 11.5 -13t7.5 -25.5t4.5 -29.5l2.5 -25q-1 -5 -7.5 -9.5t-11.5 -5.5q-48 0 -97 0.5t-98 -1.5q-35 -1 -73 -1h-77.5t-78 0.5t-72.5 -0.5q-5 1 -7 4q-4 0 -3.5 10.5
t0.5 16.5zM27 411q14 -10 29 -26.5t29 -24.5q-1 0 5 4t13.5 9.5t13.5 10.5t6 6q0 -1 -0.5 -23.5t-0.5 -57v-77v-83.5t0.5 -76t1.5 -55q69 2 144.5 0.5t144.5 0.5q48 2 96 1.5t96 -0.5q-2 20 -6 34t-5 34q-98 -3 -198.5 -6t-198.5 -5q-1 -1 -6.5 1.5t-5.5 8.5q-2 23 -2 44.5
v34.5v34.5t0.5 54t0.5 62v59v43.5v18l135 107q-13 12 -21.5 21.5t-20.5 21.5q-5 -5 -27.5 -21t-65.5 -45q-1 1 -0.5 27t1.5 65.5t2 86t1.5 86.5t0.5 67t-1 29q-20 -1 -33 -2.5t-33 -1.5q-1 -1 -0.5 -30.5t0.5 -73.5t0.5 -95.5t1 -95.5t0.5 -74t-1 -30q-46 -31 -69 -47.5
t-27 -20.5z" />
    <glyph glyph-name="lslash" unicode="&#x142;" horiz-adv-x="343" 
d="M219 790q-8 -42 -12 -102t-5 -132q27 18 47 33.5t25 20.5q4 1 15 -8t22.5 -21t20 -24.5t5.5 -17.5q-42 -37 -75.5 -65t-59.5 -50q0 -61 1.5 -121.5t2.5 -116t1.5 -103t0.5 -83.5q-5 0 -21 -1t-34 0t-33 4t-17 11v68t-0.5 81.5t-1 90.5t-0.5 96q-17 -10 -21 -6
q-4 3 -19 12.5t-30.5 21.5t-25.5 24t-4 20q5 7 33.5 26.5t65.5 42.5q-1 85 -1 159v126v2q6 6 8 7.5t11.5 2t31.5 0.5t69 2zM276 589q1 0 -13.5 -11t-32.5 -24.5t-33.5 -24t-16.5 -9.5q-1 24 0 57.5t3 68.5t5 68t8 56h-77q-1 -26 -0.5 -59.5t1.5 -71t1 -78t-1 -81.5
q-45 -30 -67.5 -46.5t-26.5 -20.5q14 -10 29 -26.5t29 -24.5q1 0 7.5 4.5t13.5 10t12 10t4 4.5q1 -121 1.5 -214t0.5 -153q20 0 33 -1.5t33 -2.5v32.5t-0.5 77.5t-2 100t-2.5 100t-2 76.5t-1 31.5l2 3t15 14t41 32.5t79 58.5q-13 12 -21.5 21.5t-20.5 21.5z" />
    <glyph glyph-name="OE" unicode="&#x152;" horiz-adv-x="944" 
d="M848 499q-1 -1 -26 -4t-62 -6.5t-80.5 -7t-80.5 -6.5t-62 -4.5t-26 -1.5v-22.5v-55.5v-76v-83.5v-78.5v-61q33 -1 74.5 -0.5t84.5 2t84.5 3t75 3t54.5 1.5t24 -2q6 -5 8.5 -19.5t3 -30.5t-1.5 -30.5t-6 -18.5q-1 0 -2 -0.5t-2 -0.5h-1q-62 1 -119.5 0t-117 -2
t-123.5 -0.5t-138 4.5q-52 10 -106 28.5t-102.5 48t-89 70.5t-66.5 96.5t-34.5 126t6.5 159.5q34 204 152 301.5t315 100.5l393 2q7 2 13 -12.5t8.5 -32.5t0.5 -34.5t-11 -17.5q-98 0 -188.5 -4t-187.5 -5q0 -28 -0.5 -61t-0.5 -66.5v-66.5v-61q37 1 78.5 2.5t83 2.5t82 2.5
t76.5 3.5q7 2 10.5 -11t5 -29t1.5 -30v-15zM905 19q-2 20 -4.5 32t-3.5 32q-98 -3 -197 -6t-197 -5h-1q-11 0 -11 12l5 405q37 1 80 4t87 6t87 6t80 5q-2 11 -3.5 27.5t-3.5 26.5q-9 -1 -37 -2.5t-65 -2.5t-77.5 -2t-74.5 -1.5t-56 -0.5t-22 1v71.5v88t0.5 81.5t2.5 51
q0 -1 20 -1t52.5 0.5t73.5 1.5t84 2.5t85 2.5t75 3l-7 57h-64t-90.5 -0.5t-101.5 -0.5t-95.5 -0.5t-74 -1.5t-36.5 -2q-62 -7 -125 -30.5t-116.5 -71t-92 -122.5t-50.5 -184q-12 -111 16 -195t84 -142.5t133.5 -93.5t164.5 -49zM432 853q0 -93 -1 -195t-1.5 -204t-1 -198.5
t-0.5 -179.5q-52 9 -97 23.5t-82 42.5q-98 74 -143.5 172t-19.5 226q14 65 45.5 118.5t77 93.5t102.5 66t121 35zM263 156q68 -43 147 -57q1 44 1 102.5t0.5 124.5t0.5 136t0.5 136t0.5 125.5t1 105.5q-45 -6 -87.5 -23t-81.5 -47q-49 -38 -82 -88t-48.5 -106t-14 -114.5
t20 -113t54 -101.5t88.5 -80z" />
    <glyph glyph-name="oe" unicode="&#x153;" horiz-adv-x="1038" 
d="M493 256q8 -47 39 -78t74.5 -47.5t95 -19.5t99 6.5t87 29.5t60.5 50q4 4 19 -9t28.5 -31t19.5 -34.5t-6 -17.5h-2q-53 -45 -114.5 -71t-124.5 -32.5t-124.5 6t-114.5 44.5h-1q-52 -23 -105.5 -37t-107 -14.5t-106 15t-101.5 51.5q-89 67 -103.5 150.5t45.5 171.5
q56 81 129.5 123t178.5 42q45 -1 86 -8.5t82 -20.5q44 25 95.5 37.5t102 12t97 -15t82 -42t56 -69t19.5 -96.5q-54 -10 -115 -22t-124 -24.5t-125 -25t-119 -22.5zM471 271q117 27 241 49t242 42q-1 56 -25.5 95t-63.5 62.5t-86.5 31t-94.5 0.5q-53 -8 -91.5 -21.5
t-73.5 -39.5q-7 10 -25.5 17.5t-42 13.5t-48.5 9t-45 4q-94 3 -165.5 -37.5t-125.5 -119.5q-40 -58 -43 -113t21.5 -101t73.5 -81t114 -52q68 -19 138.5 -5.5t157.5 50.5q55 -34 116.5 -47t123 -7t119.5 31t105 68q1 1 1 2q-5 14 -17 27t-22 24q-30 -32 -75.5 -53.5
t-97 -29.5t-103.5 -2t-96 27.5t-74.5 60t-37.5 95.5zM409 266q5 -53 27.5 -89t47.5 -65q-41 -14 -90 -21t-96.5 -4.5t-89.5 16t-70.5 41.5t-38 71.5t7.5 106.5q7 26 39.5 55t81.5 50.5t111.5 30.5t129.5 -4q-12 -15 -24 -34t-21 -43t-13.5 -52t-1.5 -59zM128 312
q-15 -51 -9.5 -87.5t26.5 -61t54.5 -37.5t73.5 -16.5t83.5 1.5t85.5 17q-9 11 -12.5 17.5t-11.5 19.5q-14 24 -21 52.5t-8 58.5t3.5 59t14.5 53q5 14 10 27t13 24q-46 5 -95.5 -2.5t-92 -24.5t-74 -42.5t-40.5 -57.5zM484 332q-13 1 -16.5 9.5t-1.5 19.5t7.5 22.5t9.5 17.5
q15 23 50 44.5t79 36t91.5 20.5t88 -0.5t68.5 -27.5t32 -61q1 0 -16.5 -3t-46 -9t-65 -13.5t-74.5 -15t-75 -15t-66 -13.5t-47 -9zM486 352q2 0 30.5 5.5t70.5 14t91 18t91 18t70.5 13.5t30.5 5q-15 28 -48 41.5t-74 15t-85.5 -8t-82.5 -27t-64 -42t-30 -53.5z" />
    <glyph glyph-name="Scaron" unicode="&#x160;" horiz-adv-x="590" 
d="M466 58q-51 -29 -108.5 -42.5t-115.5 -16t-114 4t-104 17.5q-4 5 -3.5 23.5t5 38t12.5 33.5t20 11q29 -14 74 -20t94 -2.5t96.5 18t83 40.5t53 64.5t6.5 90.5q-9 42 -34 68t-60 41.5t-76.5 24t-83 16.5t-80.5 18t-68.5 29t-47 49.5t-16.5 79.5q1 29 6.5 61t18.5 57
q43 82 108.5 123t141 48.5t154 -15.5t146.5 -68q3 -5 -4 -21.5t-18 -33t-23.5 -27.5t-19.5 -5q-68 40 -127 53t-107 6.5t-83 -28t-56 -48.5q-25 -34 -34.5 -60.5t0 -47t39 -35.5t83.5 -25q43 -8 77 -14.5t65.5 -16.5t63 -24.5t67.5 -39.5q34 -23 53.5 -57.5t26.5 -74.5
t2 -83t-20 -82.5t-39 -73t-54 -54.5zM54 111q-5 -17 -10 -38t-8 -35q35 -15 89 -20.5t112 -1.5t112.5 17t91.5 33q29 16 53 46t40 67t23.5 78.5t3.5 80.5t-20 72.5t-46 55.5q-36 24 -68 38t-64 23.5t-66.5 16.5t-75.5 18q-2 1 -20 3t-40.5 8.5t-45 19t-33 34t-4 53
t41.5 76.5q39 51 90.5 70.5t105.5 17t107 -21.5t95 -44h1q5 3 15.5 22t21.5 37q-63 44 -136.5 64.5t-144.5 13t-133 -46.5t-101 -115q-12 -24 -18.5 -55t-4 -62.5t16 -60t42.5 -48.5q30 -19 70.5 -29t84 -18t86.5 -16.5t78.5 -25t59.5 -44.5t29 -73q6 -53 -5 -91t-34 -63.5
t-55.5 -40.5t-69.5 -23.5t-76 -11.5t-75 -5q-7 0 -21.5 1.5t-31 4.5t-33.5 8t-30 11zM302 1067q5 4 14 17t21 29t24.5 34t24.5 32t21 22.5t14 7.5q7 -2 18.5 -9.5t21.5 -16.5t16.5 -18t3.5 -15l-10 -13.5t-25 -33.5t-33 -43.5t-33.5 -44t-26 -34l-10.5 -13.5
q-5 -5 -18.5 -7.5t-29 -3.5t-28.5 -1.5t-15 -0.5q-39 66 -69.5 104.5t-50 59.5t-26.5 29.5t1 14.5q21 6 40.5 20t33.5 28q1 0 11 -11t24 -26.5t29.5 -34t28.5 -34.5t21 -27t7 -11zM464 1154q-8 15 -20 23t-23 12q-5 -2 -15 -13.5t-22 -28t-24.5 -35t-24 -34.5t-20.5 -26.5
t-13 -10.5q-2 0 -11 10t-21.5 25.5t-26.5 33.5t-26.5 34.5t-22 28t-11.5 13.5q-11 -10 -27.5 -22t-30.5 -17q1 -1 1.5 0t4 -1t11.5 -10t22.5 -26.5t37.5 -49.5t57 -79q1 -2 11 -2h22t22.5 0.5t12.5 -0.5l-1 -1q3 0 2 1l9.5 13.5t24.5 33t32.5 42t33 42t25.5 32t11 12.5z" />
    </font>
</defs>
</svg>
